<?xml version="1.0" encoding="utf-8"?>
<!-- Generator: Adobe Illustrator 24.2.1, SVG Export Plug-In . SVG Version: 6.00 Build 0)  -->
<svg version="1.1" id="Layer_1" xmlns="http://www.w3.org/2000/svg" xmlns:xlink="http://www.w3.org/1999/xlink" x="0px" y="0px"
	 viewBox="0 0 500 300" style="enable-background:new 0 0 500 300;" xml:space="preserve">
<style type="text/css">
	.st0{fill:none;stroke:#1B78AA;stroke-width:0.5;stroke-miterlimit:10;}
	.st1{fill:none;stroke:#1878AA;stroke-width:0.5;stroke-miterlimit:10;}
	.st2{opacity:0.8;fill:none;stroke:#1B78AA;stroke-width:0.5;stroke-miterlimit:10;enable-background:new    ;}
	.st3{opacity:0.6;fill:none;stroke:#1B78AA;stroke-width:0.5;stroke-miterlimit:10;enable-background:new    ;}
	.st4{opacity:0.7;fill:none;stroke:#1B78AA;stroke-width:0.5;stroke-miterlimit:10;enable-background:new    ;}
	.st5{opacity:0.4;}
</style>
<g>
	<polygon class="st0" points="35.1,19.9 27,12.7 16.7,16.2 14.5,26.9 22.7,34 33,30.5 	"/>
	<polygon class="st0" points="41.5,39.9 33.4,32.8 23.1,36.2 20.9,46.9 29.1,54 39.4,50.6 	"/>
	<polygon class="st1" points="55.8,23.7 47.6,16.5 37.3,20 35.2,30.6 43.4,37.8 53.7,34.3 	"/>
	<polygon class="st1" points="20.6,35.6 12.4,28.4 2.2,31.9 0,42.6 8.2,49.7 18.5,46.2 	"/>
	<polygon class="st0" points="27.8,55.8 19.6,48.6 9.4,52.1 7.2,62.8 15.4,69.9 25.7,66.4 	"/>
	<polygon class="st0" points="49,3.6 40.8,-3.6 30.6,-0.1 28.4,10.5 36.6,17.7 46.9,14.2 	"/>
	<polygon class="st0" points="69.5,8.1 61.3,0.9 51.1,4.4 48.9,15.1 57.1,22.2 67.4,18.8 	"/>
	<polygon class="st2" points="76.4,27.7 68.3,20.5 58,24 55.8,34.6 64,41.8 74.3,38.3 	"/>
	<polygon class="st2" points="62.7,43.6 54.5,36.4 44.2,39.9 42.1,50.5 50.2,57.7 60.5,54.2 	"/>
	<polygon class="st2" points="48.9,59.7 40.8,52.5 30.5,56 28.4,66.6 36.5,73.8 46.8,70.3 	"/>
	<polygon class="st2" points="69.8,63.3 61.6,56.1 51.4,59.6 49.2,70.3 57.4,77.4 67.7,73.9 	"/>
	<polygon class="st2" points="83.1,47.4 75,40.3 64.7,43.8 62.6,54.4 70.7,61.6 81,58.1 	"/>
	<polygon class="st3" points="90.5,67 82.3,59.8 72,63.3 69.9,73.9 78.1,81.1 88.3,77.6 	"/>
	<polygon class="st0" points="90.8,11.5 82.7,4.4 72.4,7.8 70.2,18.5 78.4,25.6 88.7,22.2 	"/>
	<polygon class="st0" points="35,75.8 26.8,68.6 16.5,72.1 14.4,82.7 22.5,89.9 32.8,86.4 	"/>
	<polygon class="st3" points="41.9,95.5 33.7,88.4 23.4,91.8 21.3,102.5 29.5,109.7 39.8,106.2 	"/>
	<polygon class="st0" points="21.2,91.2 13,84.1 2.7,87.5 0.6,98.2 8.8,105.3 19.1,101.9 	"/>
	<polygon class="st4" points="55.8,79.4 47.7,72.3 37.4,75.7 35.3,86.4 43.4,93.5 53.7,90.1 	"/>
	<polygon class="st0" points="28.6,0 20.4,-7.1 10.1,-3.7 8,7 16.2,14.2 26.5,10.7 	"/>
	<polygon class="st0" points="14.8,15.8 6.6,8.6 -3.7,12.1 -5.8,22.7 2.3,29.9 12.6,26.4 	"/>
	<polygon class="st0" points="82.8,-7.8 74.6,-15 64.4,-11.5 62.2,-0.8 70.4,6.3 80.7,2.9 	"/>
	<polygon class="st3" points="97.4,31.5 89.3,24.4 79,27.8 76.9,38.5 85,45.7 95.3,42.2 	"/>
	<polygon class="st3" points="104.4,51.5 96.3,44.4 86,47.8 83.9,58.5 92,65.7 102.3,62.2 	"/>
	<polygon class="st3" points="111.4,71.5 103.3,64.4 93,67.8 90.9,78.5 99,85.7 109.3,82.2 	"/>
	<polygon class="st3" points="62.4,99.5 54.3,92.4 44,95.8 41.9,106.5 50,113.7 60.3,110.2 	"/>
	<polygon class="st0" points="104.4,-4.5 96.3,-11.6 86,-8.2 83.9,2.5 92,9.7 102.3,6.2 	"/>
</g>
<g>
	<polygon class="st0" points="43.1,27.9 35,20.7 24.7,24.2 22.5,34.9 30.7,42 41,38.5 	"/>
	<polygon class="st0" points="49.5,47.9 41.4,40.8 31.1,44.2 28.9,54.9 37.1,62 47.4,58.6 	"/>
	<polygon class="st1" points="63.8,31.7 55.6,24.5 45.3,28 43.2,38.6 51.4,45.8 61.7,42.3 	"/>
	<polygon class="st1" points="28.6,43.6 20.4,36.4 10.2,39.9 8,50.6 16.2,57.7 26.5,54.2 	"/>
	<polygon class="st0" points="35.8,63.8 27.6,56.6 17.4,60.1 15.2,70.8 23.4,77.9 33.7,74.4 	"/>
	<polygon class="st0" points="57,11.6 48.8,4.4 38.6,7.9 36.4,18.5 44.6,25.7 54.9,22.2 	"/>
	<polygon class="st0" points="77.5,16.1 69.3,8.9 59.1,12.4 56.9,23.1 65.1,30.2 75.4,26.8 	"/>
	<polygon class="st2" points="84.4,35.7 76.3,28.5 66,32 63.8,42.6 72,49.8 82.3,46.3 	"/>
	<polygon class="st2" points="70.7,51.6 62.5,44.4 52.2,47.9 50.1,58.5 58.2,65.7 68.5,62.2 	"/>
	<polygon class="st2" points="56.9,67.7 48.8,60.5 38.5,64 36.4,74.6 44.5,81.8 54.8,78.3 	"/>
	<polygon class="st2" points="77.8,71.3 69.6,64.1 59.4,67.6 57.2,78.3 65.4,85.4 75.7,81.9 	"/>
	<polygon class="st2" points="91.1,55.4 83,48.3 72.7,51.8 70.6,62.4 78.7,69.6 89,66.1 	"/>
	<polygon class="st3" points="98.5,75 90.3,67.8 80,71.3 77.9,81.9 86.1,89.1 96.3,85.6 	"/>
	<polygon class="st0" points="98.8,19.5 90.7,12.4 80.4,15.8 78.2,26.5 86.4,33.6 96.7,30.2 	"/>
	<polygon class="st0" points="43,83.8 34.8,76.6 24.5,80.1 22.4,90.7 30.5,97.9 40.8,94.4 	"/>
	<polygon class="st3" points="49.9,103.5 41.7,96.4 31.4,99.8 29.3,110.5 37.5,117.7 47.8,114.2 	"/>
	<polygon class="st0" points="29.2,99.2 21,92.1 10.7,95.5 8.6,106.2 16.8,113.3 27.1,109.9 	"/>
	<polygon class="st4" points="63.8,87.4 55.7,80.3 45.4,83.7 43.3,94.4 51.4,101.5 61.7,98.1 	"/>
	<polygon class="st0" points="36.6,8 28.4,0.9 18.1,4.3 16,15 24.2,22.2 34.5,18.7 	"/>
	<polygon class="st0" points="22.8,23.8 14.6,16.6 4.3,20.1 2.2,30.7 10.3,37.9 20.6,34.4 	"/>
	<polygon class="st0" points="90.8,0.2 82.6,-7 72.4,-3.5 70.2,7.2 78.4,14.3 88.7,10.9 	"/>
	<polygon class="st3" points="105.4,39.5 97.3,32.4 87,35.8 84.9,46.5 93,53.7 103.3,50.2 	"/>
	<polygon class="st3" points="112.4,59.5 104.3,52.4 94,55.8 91.9,66.5 100,73.7 110.3,70.2 	"/>
	<polygon class="st3" points="119.4,79.5 111.3,72.4 101,75.8 98.9,86.5 107,93.7 117.3,90.2 	"/>
	<polygon class="st3" points="70.4,107.5 62.3,100.4 52,103.8 49.9,114.5 58,121.7 68.3,118.2 	"/>
	<polygon class="st0" points="112.4,3.5 104.3,-3.6 94,-0.2 91.9,10.5 100,17.7 110.3,14.2 	"/>
</g>
<g class="st5">
	<polygon class="st0" points="103.4,107.7 95.2,100.5 84.9,104 82.8,114.6 90.9,121.8 101.2,118.3 	"/>
	<polygon class="st0" points="109.8,127.7 101.6,120.5 91.3,124 89.2,134.7 97.3,141.8 107.6,138.3 	"/>
	<polygon class="st1" points="124,111.5 115.9,104.3 105.6,107.8 103.5,118.4 111.6,125.6 121.9,122.1 	"/>
	<polygon class="st1" points="88.8,123.4 80.7,116.2 70.4,119.7 68.3,130.3 76.4,137.5 86.7,134 	"/>
	<polygon class="st0" points="96,143.6 87.9,136.4 77.6,139.9 75.5,150.5 83.6,157.7 93.9,154.2 	"/>
	<polygon class="st0" points="117.2,91.4 109.1,84.2 98.8,87.7 96.7,98.3 104.8,105.5 115.1,102 	"/>
	<polygon class="st0" points="137.7,95.9 129.6,88.7 119.3,92.2 117.2,102.9 125.3,110 135.6,106.5 	"/>
	<polygon class="st2" points="144.7,115.4 136.5,108.3 126.2,111.8 124.1,122.4 132.2,129.6 142.5,126.1 	"/>
	<polygon class="st2" points="130.9,131.3 122.7,124.2 112.5,127.6 110.3,138.3 118.5,145.5 128.8,142 	"/>
	<polygon class="st2" points="117.2,147.4 109,140.3 98.7,143.7 96.6,154.4 104.8,161.6 115,158.1 	"/>
	<polygon class="st2" points="138,151.1 129.9,143.9 119.6,147.4 117.5,158 125.6,165.2 135.9,161.7 	"/>
	<polygon class="st2" points="151.4,135.2 143.2,128.1 132.9,131.5 130.8,142.2 139,149.4 149.2,145.9 	"/>
	<polygon class="st3" points="158.7,154.7 150.6,147.6 140.3,151.1 138.1,161.7 146.3,168.9 156.6,165.4 	"/>
	<polygon class="st0" points="159,99.3 150.9,92.1 140.6,95.6 138.5,106.3 146.6,113.4 156.9,109.9 	"/>
	<polygon class="st0" points="103.2,163.5 95.1,156.4 84.8,159.9 82.6,170.5 90.8,177.7 101.1,174.2 	"/>
	<polygon class="st3" points="110.1,183.3 102,176.1 91.7,179.6 89.6,190.3 97.7,197.4 108,194 	"/>
	<polygon class="st0" points="89.4,179 81.3,171.8 71,175.3 68.9,186 77,193.1 87.3,189.6 	"/>
	<polygon class="st4" points="124.1,167.2 115.9,160 105.7,163.5 103.5,174.2 111.7,181.3 122,177.8 	"/>
	<polygon class="st0" points="96.8,87.8 88.7,80.6 78.4,84.1 76.3,94.8 84.4,101.9 94.7,98.5 	"/>
	<polygon class="st0" points="83,103.6 74.8,96.4 64.6,99.9 62.4,110.5 70.6,117.7 80.9,114.2 	"/>
	<polygon class="st0" points="151,80 142.9,72.8 132.6,76.3 130.5,86.9 138.6,94.1 148.9,90.6 	"/>
	<polygon class="st3" points="165.7,119.3 157.5,112.1 147.3,115.6 145.1,126.3 153.3,133.4 163.6,130 	"/>
	<polygon class="st3" points="172.7,139.3 164.5,132.1 154.3,135.6 152.1,146.3 160.3,153.4 170.6,150 	"/>
	<polygon class="st3" points="179.7,159.3 171.5,152.1 161.3,155.6 159.1,166.3 167.3,173.4 177.6,170 	"/>
	<polygon class="st3" points="130.7,187.3 122.5,180.1 112.3,183.6 110.1,194.3 118.3,201.4 128.6,198 	"/>
	<polygon class="st0" points="172.7,83.3 164.5,76.1 154.3,79.6 152.1,90.3 160.3,97.4 170.6,94 	"/>
</g>
<g class="st5">
	<polygon class="st0" points="113.4,117.7 105.2,110.5 94.9,114 92.8,124.6 100.9,131.8 111.2,128.3 	"/>
	<polygon class="st0" points="119.8,137.7 111.6,130.5 101.3,134 99.2,144.7 107.3,151.8 117.6,148.3 	"/>
	<polygon class="st1" points="134,121.5 125.9,114.3 115.6,117.8 113.5,128.4 121.6,135.6 131.9,132.1 	"/>
	<polygon class="st1" points="98.8,133.4 90.7,126.2 80.4,129.7 78.3,140.3 86.4,147.5 96.7,144 	"/>
	<polygon class="st0" points="106,153.6 97.9,146.4 87.6,149.9 85.5,160.5 93.6,167.7 103.9,164.2 	"/>
	<polygon class="st0" points="127.2,101.4 119.1,94.2 108.8,97.7 106.7,108.3 114.8,115.5 125.1,112 	"/>
	<polygon class="st0" points="147.7,105.9 139.6,98.7 129.3,102.2 127.2,112.9 135.3,120 145.6,116.5 	"/>
	<polygon class="st2" points="154.7,125.4 146.5,118.3 136.2,121.8 134.1,132.4 142.2,139.6 152.5,136.1 	"/>
	<polygon class="st2" points="140.9,141.3 132.7,134.2 122.5,137.6 120.3,148.3 128.5,155.5 138.8,152 	"/>
	<polygon class="st2" points="127.2,157.4 119,150.3 108.7,153.7 106.6,164.4 114.8,171.6 125,168.1 	"/>
	<polygon class="st2" points="148,161.1 139.9,153.9 129.6,157.4 127.5,168 135.6,175.2 145.9,171.7 	"/>
	<polygon class="st2" points="161.4,145.2 153.2,138.1 142.9,141.5 140.8,152.2 149,159.4 159.2,155.9 	"/>
	<polygon class="st3" points="168.7,164.7 160.6,157.6 150.3,161.1 148.1,171.7 156.3,178.9 166.6,175.4 	"/>
	<polygon class="st0" points="169,109.3 160.9,102.1 150.6,105.6 148.5,116.3 156.6,123.4 166.9,119.9 	"/>
	<polygon class="st0" points="113.2,173.5 105.1,166.4 94.8,169.9 92.6,180.5 100.8,187.7 111.1,184.2 	"/>
	<polygon class="st3" points="120.1,193.3 112,186.1 101.7,189.6 99.6,200.3 107.7,207.4 118,204 	"/>
	<polygon class="st0" points="99.4,189 91.3,181.8 81,185.3 78.9,196 87,203.1 97.3,199.6 	"/>
	<polygon class="st4" points="134.1,177.2 125.9,170 115.7,173.5 113.5,184.2 121.7,191.3 132,187.8 	"/>
	<polygon class="st0" points="106.8,97.8 98.7,90.6 88.4,94.1 86.3,104.8 94.4,111.9 104.7,108.5 	"/>
	<polygon class="st0" points="93,113.6 84.8,106.4 74.6,109.9 72.4,120.5 80.6,127.7 90.9,124.2 	"/>
	<polygon class="st0" points="161,90 152.9,82.8 142.6,86.3 140.5,96.9 148.6,104.1 158.9,100.6 	"/>
	<polygon class="st3" points="175.7,129.3 167.5,122.1 157.3,125.6 155.1,136.3 163.3,143.4 173.6,140 	"/>
	<polygon class="st3" points="182.7,149.3 174.5,142.1 164.3,145.6 162.1,156.3 170.3,163.4 180.6,160 	"/>
	<polygon class="st3" points="189.7,169.3 181.5,162.1 171.3,165.6 169.1,176.3 177.3,183.4 187.6,180 	"/>
	<polygon class="st3" points="140.7,197.3 132.5,190.1 122.3,193.6 120.1,204.3 128.3,211.4 138.6,208 	"/>
	<polygon class="st0" points="182.7,93.3 174.5,86.1 164.3,89.6 162.1,100.3 170.3,107.4 180.6,104 	"/>
</g>
<g class="st5">
	<g>
		<polygon class="st0" points="131.6,-36.8 123.5,-43.9 113.2,-40.5 111,-29.8 119.2,-22.6 129.5,-26.1 		"/>
		<polygon class="st0" points="138,-16.7 129.9,-23.9 119.6,-20.4 117.4,-9.8 125.6,-2.6 135.9,-6.1 		"/>
		<polygon class="st1" points="152.3,-33 144.1,-40.2 133.8,-36.7 131.7,-26 139.9,-18.9 150.2,-22.3 		"/>
		<polygon class="st1" points="117.1,-21.1 108.9,-28.2 98.7,-24.8 96.5,-14.1 104.7,-6.9 115,-10.4 		"/>
		<polygon class="st0" points="124.3,-0.9 116.1,-8 105.9,-4.6 103.7,6.1 111.9,13.3 122.2,9.8 		"/>
		<polygon class="st0" points="145.5,-53.1 137.3,-60.3 127.1,-56.8 124.9,-46.1 133.1,-39 143.4,-42.4 		"/>
		<polygon class="st0" points="166,-48.6 157.8,-55.7 147.6,-52.2 145.4,-41.6 153.6,-34.4 163.9,-37.9 		"/>
		<polygon class="st2" points="172.9,-29 164.8,-36.2 154.5,-32.7 152.3,-22 160.5,-14.9 170.8,-18.4 		"/>
		<polygon class="st2" points="159.2,-13.1 151,-20.3 140.7,-16.8 138.6,-6.2 146.7,1 157,-2.5 		"/>
		<polygon class="st2" points="145.4,3 137.3,-4.2 127,-0.7 124.9,9.9 133,17.1 143.3,13.6 		"/>
		<polygon class="st2" points="166.3,6.6 158.1,-0.5 147.9,3 145.7,13.6 153.9,20.8 164.2,17.3 		"/>
		<polygon class="st2" points="179.6,-9.2 171.5,-16.4 161.2,-12.9 159.1,-2.3 167.2,4.9 177.5,1.4 		"/>
		<polygon class="st3" points="187,10.3 178.8,3.1 168.5,6.6 166.4,17.3 174.6,24.4 184.8,20.9 		"/>
		<polygon class="st0" points="187.3,-45.1 179.1,-52.3 168.9,-48.8 166.7,-38.2 174.9,-31 185.2,-34.5 		"/>
		<polygon class="st0" points="131.5,19.1 123.3,11.9 113,15.4 110.9,26.1 119,33.2 129.3,29.7 		"/>
		<polygon class="st3" points="138.4,38.9 130.2,31.7 119.9,35.2 117.8,45.8 126,53 136.3,49.5 		"/>
		<polygon class="st0" points="117.7,34.6 109.5,27.4 99.2,30.9 97.1,41.5 105.3,48.7 115.6,45.2 		"/>
		<polygon class="st4" points="152.3,22.8 144.2,15.6 133.9,19.1 131.8,29.7 139.9,36.9 150.2,33.4 		"/>
		<polygon class="st0" points="125.1,-56.6 116.9,-63.8 106.6,-60.3 104.5,-49.7 112.7,-42.5 123,-46 		"/>
		<polygon class="st0" points="111.3,-40.9 103.1,-48.1 92.8,-44.6 90.7,-33.9 98.8,-26.8 109.1,-30.3 		"/>
		<polygon class="st0" points="179.3,-64.5 171.1,-71.6 160.9,-68.1 158.7,-57.5 166.9,-50.3 177.2,-53.8 		"/>
		<polygon class="st3" points="193.9,-25.1 185.8,-32.3 175.5,-28.8 173.4,-18.2 181.5,-11 191.8,-14.5 		"/>
		<polygon class="st3" points="200.9,-5.1 192.8,-12.3 182.5,-8.8 180.4,1.8 188.5,9 198.8,5.5 		"/>
		<polygon class="st3" points="207.9,14.9 199.8,7.7 189.5,11.2 187.4,21.8 195.5,29 205.8,25.5 		"/>
		<polygon class="st3" points="158.9,42.9 150.8,35.7 140.5,39.2 138.4,49.8 146.5,57 156.8,53.5 		"/>
		<polygon class="st0" points="200.9,-61.1 192.8,-68.3 182.5,-64.8 180.4,-54.2 188.5,-47 198.8,-50.5 		"/>
	</g>
	<g>
		<polygon class="st0" points="141.6,-26.8 133.5,-33.9 123.2,-30.5 121,-19.8 129.2,-12.6 139.5,-16.1 		"/>
		<polygon class="st0" points="148,-6.7 139.9,-13.9 129.6,-10.4 127.4,0.2 135.6,7.4 145.9,3.9 		"/>
		<polygon class="st1" points="162.3,-23 154.1,-30.2 143.8,-26.7 141.7,-16 149.9,-8.9 160.2,-12.3 		"/>
		<polygon class="st1" points="127.1,-11.1 118.9,-18.2 108.7,-14.8 106.5,-4.1 114.7,3.1 125,-0.4 		"/>
		<polygon class="st0" points="134.3,9.1 126.1,2 115.9,5.4 113.7,16.1 121.9,23.3 132.2,19.8 		"/>
		<polygon class="st0" points="155.5,-43.1 147.3,-50.3 137.1,-46.8 134.9,-36.1 143.1,-29 153.4,-32.4 		"/>
		<polygon class="st0" points="176,-38.6 167.8,-45.7 157.6,-42.2 155.4,-31.6 163.6,-24.4 173.9,-27.9 		"/>
		<polygon class="st2" points="182.9,-19 174.8,-26.2 164.5,-22.7 162.3,-12 170.5,-4.9 180.8,-8.4 		"/>
		<polygon class="st2" points="169.2,-3.1 161,-10.3 150.7,-6.8 148.6,3.8 156.7,11 167,7.5 		"/>
		<polygon class="st2" points="155.4,13 147.3,5.8 137,9.3 134.9,19.9 143,27.1 153.3,23.6 		"/>
		<polygon class="st2" points="176.3,16.6 168.1,9.5 157.9,13 155.7,23.6 163.9,30.8 174.2,27.3 		"/>
		<polygon class="st2" points="189.6,0.8 181.5,-6.4 171.2,-2.9 169.1,7.7 177.2,14.9 187.5,11.4 		"/>
		<polygon class="st3" points="197,20.3 188.8,13.1 178.5,16.6 176.4,27.3 184.6,34.4 194.8,30.9 		"/>
		<polygon class="st0" points="197.3,-35.1 189.1,-42.3 178.9,-38.8 176.7,-28.2 184.9,-21 195.2,-24.5 		"/>
		<polygon class="st0" points="141.5,29.1 133.3,21.9 123,25.4 120.9,36.1 129,43.2 139.3,39.7 		"/>
		<polygon class="st3" points="148.4,48.9 140.2,41.7 129.9,45.2 127.8,55.8 136,63 146.3,59.5 		"/>
		<polygon class="st0" points="127.7,44.6 119.5,37.4 109.2,40.9 107.1,51.5 115.3,58.7 125.6,55.2 		"/>
		<polygon class="st4" points="162.3,32.8 154.2,25.6 143.9,29.1 141.8,39.7 149.9,46.9 160.2,43.4 		"/>
		<polygon class="st0" points="135.1,-46.6 126.9,-53.8 116.6,-50.3 114.5,-39.7 122.7,-32.5 133,-36 		"/>
		<polygon class="st0" points="121.3,-30.9 113.1,-38.1 102.8,-34.6 100.7,-23.9 108.8,-16.8 119.1,-20.3 		"/>
		<polygon class="st0" points="189.3,-54.5 181.1,-61.6 170.9,-58.1 168.7,-47.5 176.9,-40.3 187.2,-43.8 		"/>
		<polygon class="st3" points="203.9,-15.1 195.8,-22.3 185.5,-18.8 183.4,-8.2 191.5,-1 201.8,-4.5 		"/>
		<polygon class="st3" points="210.9,4.9 202.8,-2.3 192.5,1.2 190.4,11.8 198.5,19 208.8,15.5 		"/>
		<polygon class="st3" points="217.9,24.9 209.8,17.7 199.5,21.2 197.4,31.8 205.5,39 215.8,35.5 		"/>
		<polygon class="st3" points="168.9,52.9 160.8,45.7 150.5,49.2 148.4,59.8 156.5,67 166.8,63.5 		"/>
		<polygon class="st0" points="210.9,-51.1 202.8,-58.3 192.5,-54.8 190.4,-44.2 198.5,-37 208.8,-40.5 		"/>
	</g>
</g>
</svg>
