<?xml version="1.0" encoding="utf-8"?>
<!-- Generator: Adobe Illustrator 24.2.1, SVG Export Plug-In . SVG Version: 6.00 Build 0)  -->
<svg version="1.1" id="Layer_1" xmlns="http://www.w3.org/2000/svg" xmlns:xlink="http://www.w3.org/1999/xlink" x="0px" y="0px"
	 viewBox="0 0 500 500" style="enable-background:new 0 0 500 500;" xml:space="preserve">
<style type="text/css">
	.st0{fill:none;stroke:#4480C2;stroke-width:15;stroke-miterlimit:10;}
	.st1{fill:#4580C2;}
	.st2{fill:#FFFFFF;}
	.st3{fill:#121212;}
	.st4{display:none;}
	.st5{display:inline;fill:#FFFFFF;}
	.st6{display:inline;}
</style>
<polygon class="st0" points="350.9,383.6 397,221.7 258,141.5 119,221.7 159.5,382.8 "/>
<g id="recruit">
	<circle class="st1" cx="108.6" cy="212" r="48.6"/>
	<g id="rc2">
		<path class="st2" d="M88.6,193.9c0,0-9.8,18.2-11.1,18.5l3.1,4.3c0,0,5.1-4.6,8.2,1.6c0,0,6.6-6.9,8.7,2.8c0,0,6.5,2.5,5,6.4
			c0,0,7.6,1,3.9,8.2c0,0,8.2,4.5,12-0.8l-8.6-4.4c0,0,0.2-1.9,1-1.5c0.7,0.4,9.3,4.5,9.3,4.5s4.4,0.5,4.3-3.5l-10.7-6.2
			c0,0,0.4-1.8,1-1.5s10.9,6.4,10.9,6.4s4.7,0.2,4.6-4.3l-12.7-7.7c0,0,0-1.4,0.7-1.2s13.3,8.1,13.3,8.1s6.2,0.5,4.2-4.9
			c0,0-26-18.4-27-18.1c-0.9,0.3-3.9,1-3.9,1s-5.9,7.9-11.2,6.8c0,0-3.7-1.5-1.8-4.9l5.2-7.4C97.4,196.1,90.5,195.4,88.6,193.9z"/>
		<path class="st2" d="M136.3,216.6c0,0-22.7-17.4-27.2-17.8l-4.8,1.4c0,0-5.3,7.2-10,6.2c0,0-0.6-0.5-0.3-1.9s6.8-10.7,6.8-10.7
			s8.4-2,9.8-1.9c1.5,0.1,10.9,0.2,15.8,1.9c0,0,3.9,0.1,4.4-0.6l10.6,18.3C141.2,211.2,138.1,216.6,136.3,216.6z"/>
		<polygon class="st2" points="145,213.8 130.9,189.5 137.4,185.5 151.4,209.9 		"/>
		<polygon class="st2" points="75,214 88.4,189.8 81.8,185.4 67.8,209.8 		"/>
		<path class="st2" d="M81.6,224.4l-0.4-0.2c-1-0.6-1.4-2.1-0.7-3.1l2.3-3.7c0.6-1,2-1.4,3-0.7l0.4,0.2c1,0.6,1.4,2.1,0.7,3.1
			l-2.3,3.7C84,224.7,82.6,225,81.6,224.4z"/>
		<path class="st2" d="M87.4,229.7l-1.5-1c-0.8-0.6-1-1.8-0.4-2.6l5.5-7.8c0.6-0.8,1.8-1,2.6-0.4l1.5,1c0.8,0.6,1,1.8,0.4,2.6
			l-5.5,7.8C89.4,230.1,88.3,230.3,87.4,229.7z"/>
		<path class="st2" d="M93.3,234.6l-1.5-1c-0.8-0.6-1-1.8-0.4-2.6l4.7-6.7c0.6-0.8,1.8-1,2.6-0.4l1.5,1c0.8,0.6,1,1.8,0.4,2.6
			l-4.7,6.7C95.3,235,94.1,235.2,93.3,234.6z"/>
		<path class="st2" d="M100.2,238.2l-1.5-1c-0.8-0.6-1-1.8-0.4-2.6l3.1-4.4c0.6-0.8,1.8-1,2.6-0.4l1.5,1c0.8,0.6,1,1.8,0.4,2.6
			l-3.1,4.4C102.2,238.5,101,238.7,100.2,238.2z"/>
	</g>
	<g>
		<path class="st3" d="M8.7,142.4c0.6-0.1,1.6-0.2,2.5-0.2c1.3,0,2.1,0.2,2.7,0.6c0.5,0.4,0.7,0.9,0.7,1.8c0,1-0.7,1.8-1.5,2.1l0,0
			c0.6,0.2,0.9,0.8,1.2,1.6c0.3,0.9,0.5,2.1,0.7,2.4h-2c-0.1-0.2-0.3-0.9-0.6-2c-0.2-1-0.6-1.4-1.4-1.4h-0.6v3.3H8.6L8.7,142.4
			L8.7,142.4L8.7,142.4z M10.6,146h0.7c0.9,0,1.6-0.5,1.6-1.3c0-0.7-0.5-1.2-1.4-1.2c-0.4,0-0.7,0-0.8,0.1v2.3L10.6,146L10.6,146z"
			/>
		<path class="st3" d="M17.5,148.3c0.1,0.8,0.8,1.2,1.8,1.2c0.6,0,1.2-0.1,1.7-0.2l0.2,1.3c-0.6,0.2-1.4,0.4-2.2,0.4
			c-2.1,0-3.2-1.3-3.2-3.1c0-1.6,0.9-3.2,3.1-3.2c2,0,2.7,1.6,2.7,3c0,0.3,0,0.6-0.1,0.7L17.5,148.3L17.5,148.3z M19.8,146.9
			c0-0.4-0.2-1.3-1-1.3s-1.2,0.7-1.2,1.3H19.8z"/>
		<path class="st3" d="M27.3,150.6c-0.3,0.1-0.9,0.3-1.7,0.3c-2,0-3.2-1.3-3.2-3.1s1.3-3.2,3.6-3.2c0.5,0,1,0.1,1.5,0.2l-0.3,1.5
			c-0.2-0.1-0.5-0.2-1-0.2c-1,0-1.7,0.7-1.7,1.7c0,1.2,0.7,1.7,1.7,1.7c0.4,0,0.8-0.1,1-0.2L27.3,150.6z"/>
		<path class="st3" d="M28.4,146.6c0-0.9,0-1.5,0-2H30l0.1,1.2l0,0c0.3-0.9,1-1.3,1.7-1.3c0.2,0,0.3,0,0.4,0v1.8c-0.1,0-0.3,0-0.5,0
			c-0.7,0-1.2,0.4-1.3,0.9c0,0.1,0,0.3,0,0.4v3.1h-1.9v-4.2h-0.1C28.4,146.5,28.4,146.6,28.4,146.6z"/>
		<path class="st3" d="M38.8,148.8c0,0.8,0,1.5,0,2h-1.6l-0.1-0.8l0,0c-0.2,0.4-0.8,1-1.9,1c-1.3,0-2.2-0.7-2.2-2.7v-3.6h2v3.3
			c0,0.9,0.3,1.5,0.9,1.5c0.5,0,0.8-0.3,0.9-0.6c0-0.1,0.1-0.3,0.1-0.4v-3.7h1.9C38.8,144.8,38.8,148.8,38.8,148.8z"/>
		<path class="st3" d="M42.4,142.9c0,0.5-0.4,0.9-1,0.9s-1-0.4-0.9-0.9c0-0.5,0.4-0.9,1-0.9C42.1,141.9,42.4,142.3,42.4,142.9z
			 M40.4,150.7v-6.2h1.9v6.2H40.4z"/>
		<path class="st3" d="M45.9,142.9v1.8h1.4v1.4h-1.4v2.2c0,0.7,0.2,1,0.7,1c0.2,0,0.4,0,0.5,0v1.5c-0.2,0.1-0.7,0.2-1.3,0.2
			s-1.2-0.2-1.5-0.5s-0.5-0.9-0.5-1.8v-2.5H43v-1.4h0.8v-1.4L45.9,142.9z"/>
		<path class="st3" d="M48.4,146.5c0-0.7,0-1.5,0-2H50l0.1,0.8l0,0c0.3-0.4,0.8-0.9,1.9-0.9c0.8,0,1.5,0.4,1.7,1l0,0
			c0.2-0.3,0.5-0.5,0.8-0.7s0.7-0.3,1.2-0.3c1.2,0,2.1,0.8,2.1,2.6v3.7h-1.9v-3.3c0-0.9-0.3-1.4-0.9-1.4c-0.4,0-0.7,0.3-0.8,0.6
			c0,0.1-0.1,0.3-0.1,0.5v3.6h-1.9v-3.5c0-0.7-0.3-1.3-0.8-1.3s-0.7,0.4-0.9,0.7c-0.1,0.1-0.1,0.3-0.1,0.5v3.6h-1.9L48.4,146.5
			L48.4,146.5L48.4,146.5z"/>
		<path class="st3" d="M60.7,148.3c0.1,0.8,0.8,1.2,1.8,1.2c0.6,0,1.2-0.1,1.7-0.2l0.2,1.3c-0.6,0.2-1.4,0.4-2.2,0.4
			c-2.1,0-3.2-1.3-3.2-3.1c0-1.6,0.9-3.2,3.1-3.2c2,0,2.7,1.6,2.7,3c0,0.3,0,0.6-0.1,0.7L60.7,148.3L60.7,148.3z M63,146.9
			c0-0.4-0.2-1.3-1-1.3s-1.2,0.7-1.2,1.3H63z"/>
		<path class="st3" d="M65.8,146.5c0-0.7,0-1.5,0-2h1.7l0.1,0.8l0,0c0.2-0.4,0.8-0.9,1.9-0.9c1.3,0,2.2,0.8,2.2,2.6v3.7h-1.9v-3.5
			c0-0.8-0.3-1.4-0.9-1.4c-0.5,0-0.8,0.3-0.9,0.7c0,0.1-0.1,0.3-0.1,0.5v3.6H66v-4.2L65.8,146.5L65.8,146.5z"/>
		<path class="st3" d="M75.2,142.9v1.8h1.4v1.4h-1.4v2.2c0,0.7,0.2,1,0.7,1c0.2,0,0.4,0,0.5,0v1.5c-0.2,0.1-0.7,0.2-1.3,0.2
			c-0.6,0-1.2-0.2-1.5-0.5s-0.5-0.9-0.5-1.8v-2.5h-0.8v-1.4h0.8v-1.4L75.2,142.9z"/>
		<path class="st3" d="M76.9,152.3c0.4-1.2,0.7-2.4,0.9-3.6l2-0.1c-0.4,1.3-0.9,2.6-1.6,3.6L76.9,152.3z"/>
		<path class="st3" d="M83.6,148.8c0.5,0.3,1.3,0.5,2.1,0.5c0.8,0,1.4-0.3,1.4-0.9c0-0.5-0.4-0.8-1.5-1.2c-1.4-0.5-2.3-1.3-2.3-2.5
			c0-1.5,1.3-2.5,3.2-2.5c0.9,0,1.7,0.2,2.2,0.4l-0.4,1.6c-0.3-0.2-0.9-0.4-1.8-0.4s-1.3,0.4-1.3,0.8c0,0.5,0.5,0.7,1.6,1.2
			c1.5,0.5,2.2,1.4,2.2,2.5c0,1.5-1,2.6-3.5,2.6c-0.9,0-1.9-0.2-2.4-0.5L83.6,148.8z"/>
		<path class="st3" d="M91.7,148.3c0.1,0.8,0.8,1.2,1.8,1.2c0.6,0,1.2-0.1,1.7-0.2l0.2,1.3c-0.6,0.2-1.4,0.4-2.2,0.4
			c-2.1,0-3.2-1.3-3.2-3.1c0-1.6,0.9-3.2,3.1-3.2c2,0,2.7,1.6,2.7,3c0,0.3,0,0.6-0.1,0.7L91.7,148.3L91.7,148.3z M94,146.9
			c0-0.4-0.2-1.3-1-1.3s-1.2,0.7-1.2,1.3H94z"/>
		<path class="st3" d="M97,141.8h1.9v8.9H97V141.8z"/>
		<path class="st3" d="M101.9,148.3c0.1,0.8,0.8,1.2,1.8,1.2c0.6,0,1.2-0.1,1.7-0.2l0.2,1.3c-0.6,0.2-1.4,0.4-2.2,0.4
			c-2.1,0-3.2-1.3-3.2-3.1c0-1.6,0.9-3.2,3.1-3.2c2,0,2.7,1.6,2.7,3c0,0.3,0,0.6-0.1,0.7L101.9,148.3L101.9,148.3z M104.1,146.9
			c0-0.4-0.2-1.3-1-1.3s-1.2,0.7-1.2,1.3H104.1z"/>
		<path class="st3" d="M111.6,150.6c-0.3,0.1-0.9,0.3-1.7,0.3c-2,0-3.2-1.3-3.2-3.1s1.3-3.2,3.6-3.2c0.5,0,1,0.1,1.5,0.2l-0.3,1.5
			c-0.2-0.1-0.5-0.2-1-0.2c-1,0-1.7,0.7-1.7,1.7c0,1.2,0.7,1.7,1.7,1.7c0.4,0,0.8-0.1,1-0.2L111.6,150.6z"/>
		<path class="st3" d="M114.9,142.9v1.8h1.4v1.4h-1.4v2.2c0,0.7,0.2,1,0.7,1c0.2,0,0.4,0,0.5,0v1.5c-0.2,0.1-0.7,0.2-1.3,0.2
			c-0.6,0-1.2-0.2-1.5-0.5s-0.5-0.9-0.5-1.8v-2.5H112v-1.4h0.8v-1.4L114.9,142.9z"/>
		<path class="st3" d="M119.4,142.9c0,0.5-0.4,0.9-1,0.9s-1-0.4-0.9-0.9c0-0.5,0.4-0.9,1-0.9C119,141.9,119.4,142.3,119.4,142.9z
			 M117.5,150.7v-6.2h1.9v6.2H117.5z"/>
		<path class="st3" d="M127,147.6c0,2.2-1.6,3.2-3.2,3.2c-1.8,0-3.1-1.2-3.1-3.1s1.3-3.2,3.2-3.2C125.7,144.4,127,145.8,127,147.6z
			 M122.5,147.7c0,1,0.4,1.9,1.3,1.9c0.7,0,1.3-0.7,1.3-1.9c0-0.9-0.3-1.9-1.3-1.9C122.9,145.8,122.5,146.7,122.5,147.7z"/>
		<path class="st3" d="M128.1,146.5c0-0.7,0-1.5,0-2h1.7l0.1,0.8l0,0c0.2-0.4,0.8-0.9,1.9-0.9c1.3,0,2.2,0.8,2.2,2.6v3.7h-1.9v-3.5
			c0-0.8-0.3-1.4-0.9-1.4c-0.5,0-0.8,0.3-0.9,0.7c0,0.1-0.1,0.3-0.1,0.5v3.6h-1.9v-4.2L128.1,146.5L128.1,146.5z"/>
		<path class="st3" d="M134.7,152.3c0.4-1.2,0.7-2.4,0.9-3.6l2-0.1c-0.4,1.3-0.9,2.6-1.6,3.6L134.7,152.3z"/>
		<path class="st3" d="M141.3,142.4c0.6-0.1,1.5-0.2,2.6-0.2c1.2,0,2,0.2,2.6,0.6c0.5,0.4,0.9,1.2,0.9,2s-0.3,1.6-0.7,2
			c-0.6,0.6-1.6,0.9-2.7,0.9c-0.2,0-0.5,0-0.6,0v3h-1.9v-8.4L141.3,142.4L141.3,142.4z M143.3,146.2c0.2,0,0.3,0,0.6,0
			c1,0,1.7-0.5,1.7-1.4c0-0.7-0.5-1.3-1.5-1.3c-0.4,0-0.6,0-0.8,0.1V146.2L143.3,146.2z"/>
		<path class="st3" d="M148.6,141.8h1.9v8.9h-1.9V141.8z"/>
		<path class="st3" d="M155.5,150.7l-0.1-0.6l0,0c-0.4,0.5-1,0.7-1.8,0.7c-1.3,0-2-0.9-2-1.9c0-1.6,1.5-2.4,3.6-2.3v-0.1
			c0-0.3-0.2-0.8-1.2-0.8c-0.6,0-1.3,0.2-1.7,0.4l-0.3-1.3c0.4-0.2,1.3-0.5,2.4-0.5c2.1,0,2.7,1.3,2.7,2.6v2.1c0,0.6,0,1.2,0.1,1.5
			h-1.8v0.2L155.5,150.7L155.5,150.7z M155.3,147.9c-1,0-1.8,0.2-1.8,0.9c0,0.5,0.3,0.7,0.7,0.7c0.5,0,0.8-0.3,0.9-0.7
			c0-0.1,0-0.2,0-0.3v-0.6L155.3,147.9L155.3,147.9z"/>
		<path class="st3" d="M163.3,150.6c-0.3,0.1-0.9,0.3-1.7,0.3c-2,0-3.2-1.3-3.2-3.1s1.3-3.2,3.6-3.2c0.5,0,1,0.1,1.5,0.2l-0.3,1.5
			c-0.2-0.1-0.5-0.2-1-0.2c-1,0-1.7,0.7-1.7,1.7c0,1.2,0.7,1.7,1.7,1.7c0.4,0,0.8-0.1,1-0.2L163.3,150.6z"/>
		<path class="st3" d="M165.7,148.3c0.1,0.8,0.8,1.2,1.8,1.2c0.6,0,1.2-0.1,1.7-0.2l0.2,1.3c-0.6,0.2-1.4,0.4-2.2,0.4
			c-2.1,0-3.2-1.3-3.2-3.1c0-1.6,0.9-3.2,3.1-3.2c2,0,2.7,1.6,2.7,3c0,0.3,0,0.6-0.1,0.7L165.7,148.3L165.7,148.3z M167.9,146.9
			c0-0.4-0.2-1.3-1-1.3s-1.2,0.7-1.2,1.3H167.9z"/>
		<path class="st3" d="M170.8,146.5c0-0.7,0-1.5,0-2h1.6l0.1,0.8l0,0c0.3-0.4,0.8-0.9,1.9-0.9c0.8,0,1.5,0.4,1.7,1l0,0
			c0.2-0.3,0.5-0.5,0.8-0.7s0.7-0.3,1.2-0.3c1.2,0,2.1,0.8,2.1,2.6v3.7h-1.9v-3.3c0-0.9-0.3-1.4-0.9-1.4c-0.4,0-0.7,0.3-0.8,0.6
			c0,0.1-0.1,0.3-0.1,0.5v3.6h-1.9v-3.5c0-0.7-0.3-1.3-0.8-1.3s-0.7,0.4-0.9,0.7c-0.1,0.1-0.1,0.3-0.1,0.5v3.6h-1.9v-4.3
			L170.8,146.5L170.8,146.5z"/>
		<path class="st3" d="M183,148.3c0.1,0.8,0.8,1.2,1.8,1.2c0.6,0,1.2-0.1,1.7-0.2l0.2,1.3c-0.6,0.2-1.4,0.4-2.2,0.4
			c-2.1,0-3.2-1.3-3.2-3.1c0-1.6,0.9-3.2,3.1-3.2c2,0,2.7,1.6,2.7,3c0,0.3,0,0.6-0.1,0.7L183,148.3L183,148.3z M185.3,146.9
			c0-0.4-0.2-1.3-1-1.3s-1.2,0.7-1.2,1.3H185.3z"/>
		<path class="st3" d="M188.3,146.5c0-0.7,0-1.5,0-2h1.7l0.1,0.8l0,0c0.2-0.4,0.8-0.9,1.9-0.9c1.3,0,2.2,0.8,2.2,2.6v3.7h-1.9v-3.5
			c0-0.8-0.3-1.4-0.9-1.4c-0.5,0-0.8,0.3-0.9,0.7c0,0.1-0.1,0.3-0.1,0.5v3.6h-1.9v-4.2L188.3,146.5L188.3,146.5z"/>
		<path class="st3" d="M197.7,142.9v1.8h1.4v1.4h-1.4v2.2c0,0.7,0.2,1,0.7,1c0.2,0,0.4,0,0.5,0v1.5c-0.2,0.1-0.7,0.2-1.3,0.2
			s-1.2-0.2-1.5-0.5s-0.5-0.9-0.5-1.8v-2.5h-0.8v-1.4h0.8v-1.4L197.7,142.9z"/>
	</g>
</g>
<g id="Layer_2_1_">
</g>
<g id="learning">
	<g>
		<circle class="st1" cx="401.3" cy="213.7" r="48.6"/>
		<g class="st4">
			<path class="st5" d="M381.2,200.7c0,0-9.8,18.2-11.1,18.5l3.1,4.3c0,0,5.1-4.6,8.2,1.6c0,0,6.6-6.9,8.7,2.8c0,0,6.5,2.5,5,6.4
				c0,0,7.6,1,3.9,8.2c0,0,8.2,4.5,12-0.8l-8.6-4.4c0,0,0.2-1.9,1-1.5c0.7,0.4,9.3,4.5,9.3,4.5s4.4,0.5,4.3-3.5l-10.7-6.2
				c0,0,0.4-1.8,1-1.5s10.9,6.4,10.9,6.4s4.7,0.2,4.6-4.3l-12.7-7.8c0,0,0-1.4,0.7-1.2s13.3,8.1,13.3,8.1s6.2,0.5,4.2-4.9
				c0,0-26-18.4-27-18.1c-0.9,0.3-3.9,1-3.9,1s-5.9,7.9-11.2,6.8c0,0-3.7-1.5-1.8-4.9l5.2-7.4C389.9,203,383.1,202.2,381.2,200.7z"
				/>
			<path class="st5" d="M428.9,223.4c0,0-22.7-17.4-27.2-17.8l-4.8,1.4c0,0-5.3,7.2-10,6.2c0,0-0.6-0.5-0.3-1.9
				c0.3-1.4,6.8-10.7,6.8-10.7s8.4-2,9.8-1.9c1.5,0.1,10.9,0.2,15.8,1.9c0,0,3.9,0.1,4.4-0.6l10.6,18.3
				C433.8,218.2,430.7,223.4,428.9,223.4z"/>
			<polygon class="st5" points="437.6,220.6 423.4,196.4 429.9,192.3 444,216.8 			"/>
			<polygon class="st5" points="367.6,220.8 381,196.7 374.4,192.2 360.4,216.7 			"/>
			<path class="st5" d="M374.2,231.2l-0.4-0.2c-1-0.6-1.4-2.1-0.7-3.1l2.3-3.7c0.6-1,2-1.4,3-0.7l0.4,0.2c1,0.6,1.4,2.1,0.7,3.1
				l-2.3,3.7C376.6,231.6,375.2,232,374.2,231.2z"/>
			<path class="st5" d="M380,236.6l-1.5-1c-0.8-0.6-1-1.8-0.4-2.6l5.5-7.8c0.6-0.8,1.8-1,2.6-0.4l1.5,1c0.8,0.6,1,1.8,0.4,2.6
				l-5.5,7.8C382,236.9,380.9,237.1,380,236.6z"/>
			<path class="st5" d="M385.9,241.5l-1.5-1c-0.8-0.6-1-1.8-0.4-2.6l4.7-6.7c0.6-0.8,1.8-1,2.6-0.4l1.5,1c0.8,0.6,1,1.8,0.4,2.6
				l-4.7,6.7C387.9,241.9,386.7,242,385.9,241.5z"/>
			<path class="st5" d="M392.8,245l-1.5-1c-0.8-0.6-1-1.8-0.4-2.6l3.1-4.4c0.6-0.8,1.8-1,2.6-0.4l1.5,1c0.8,0.6,1,1.8,0.4,2.6
				l-3.1,4.4C394.8,245.4,393.6,245.7,392.8,245z"/>
		</g>
		<g class="st4">
			<g class="st6">
				<path class="st2" d="M424.5,209.6c0,13.6-11.1,24.6-24.7,24.4c-13.1-0.2-23.8-10.9-24.1-24.1c-0.2-13.6,10.8-24.7,24.4-24.7
					c6.7,0,12.9,2.7,17.3,7.1C421.8,196.8,424.5,202.9,424.5,209.6z"/>
				<path class="st2" d="M426.7,223.8c0,0-0.8-27-9.3-31.4v31.4H426.7z"/>
				<path class="st2" d="M417.6,226.3v10c0,0-9.1,0-12.2-1.5v7.3h-20.5v-17.8l19.9-10.8"/>
			</g>
			<g class="st6">
				<circle class="st1" cx="401.5" cy="202.7" r="10"/>
				<path class="st1" d="M398.3,213.2l-3.9-2.1c-1-0.5-1.5-1.8-0.8-2.8l3.5-6.6c0.5-1,1.8-1.5,2.8-0.8l3.9,2.1
					c1,0.5,1.5,1.8,0.8,2.8l-3.5,6.6C400.6,213.3,399.4,213.8,398.3,213.2z"/>
				<path class="st1" d="M397.9,215.9l-5.5-2.9c-0.3-0.2-0.5-0.6-0.3-0.9l0.1-0.2c0.2-0.3,0.6-0.5,0.9-0.3l5.5,2.9
					c0.3,0.2,0.5,0.6,0.3,0.9l-0.1,0.2C398.8,215.9,398.3,216,397.9,215.9z"/>
				<path class="st1" d="M396.9,217.9l-5.5-2.9c-0.3-0.2-0.5-0.6-0.3-0.9l0.1-0.2c0.2-0.3,0.6-0.5,0.9-0.3l5.5,2.9
					c0.3,0.2,0.5,0.6,0.3,0.9l-0.1,0.2C397.6,217.9,397.2,218,396.9,217.9z"/>
			</g>
		</g>
		<g id="l2">
			<path class="st2" d="M401.2,189.2c-8.5,0-15.3,6.7-15.3,14.9c0,7.4,5.5,13.5,12.8,14.7c0.2-1.5,0.6-4.6,0-8
				c-0.1-0.1-0.2-0.2-0.3-0.3l-0.2-0.4c-0.2-0.5-0.9-0.5-1.1,0l-0.2,0.4c-0.2,0.6-1.1,0.4-1.1-0.2v-0.4c0-0.5-0.6-0.8-1-0.4
				l-0.3,0.3c-0.4,0.5-1.2,0-0.9-0.6l0.2-0.4c0.2-0.5-0.3-1-0.8-0.8l-0.4,0.2c-0.6,0.2-1.1-0.5-0.6-0.9l0.3-0.3c0.4-0.4,0.1-1-0.4-1
				h-0.4c-0.6,0-0.8-0.9-0.2-1.1l0.4-0.2c0.5-0.2,0.5-0.9,0-1.1l-0.4-0.2c-0.6-0.2-0.4-1.1,0.2-1.1h0.4c0.5,0,0.8-0.6,0.4-1L392,201
				c-0.5-0.4,0-1.2,0.6-0.9l0.4,0.2c0.5,0.2,1-0.3,0.8-0.8l-0.2-0.4c-0.2-0.6,0.5-1.1,0.9-0.6l0.3,0.3c0.4,0.4,1,0.1,1-0.4V198
				c0-0.6,0.9-0.8,1.1-0.2l0.2,0.4c0.2,0.5,0.9,0.5,1.1,0l0.2-0.4c0.2-0.6,1.1-0.4,1.1,0.2v0.4c0,0.5,0.6,0.8,1,0.4l0.3-0.3
				c0.4-0.5,1.2,0,0.9,0.6l-0.2,0.4c-0.2,0.5,0.3,1,0.8,0.8l0.4-0.2c0.6-0.2,1.1,0.5,0.6,0.9l-0.3,0.3c-0.4,0.4-0.1,1,0.4,1h0.4
				c0.6,0,0.8,0.9,0.2,1.1l-0.4,0.2c-0.5,0.2-0.5,0.9,0,1.1l0.4,0.2c0.6,0.2,0.4,1.1-0.2,1.1h-0.4c-0.5,0-0.8,0.6-0.4,1l0.3,0.3
				c0.5,0.4,0,1.2-0.6,0.9l-0.4-0.2c-0.5-0.2-1,0.3-0.8,0.8l0.2,0.4c0.2,0.6-0.5,1.1-0.9,0.6l-0.3-0.3c-0.4-0.4-1-0.1-1,0.4v0.4
				c0,0.1,0,0.2-0.1,0.3c0.6,3.5,0.3,6.7,0.1,8.3c0.6,0.1,1.1,0.1,1.7,0.1c0-1.5,0.3-6,2.8-8.1h-0.1h-0.3c-0.4,0-0.6-0.6-0.2-0.8
				l0.3-0.1c0.3-0.2,0.3-0.6-0.1-0.8l-0.3-0.1c-0.4-0.1-0.4-0.8,0.1-0.8h0.3c0.4,0,0.5-0.5,0.2-0.7l-0.2-0.2c-0.3-0.3,0-0.8,0.4-0.7
				l0.3,0.1c0.3,0.1,0.7-0.3,0.5-0.6l-0.1-0.3c-0.2-0.4,0.3-0.8,0.6-0.5l0.2,0.2c0.3,0.2,0.7,0,0.7-0.4v-0.3c0-0.4,0.6-0.6,0.8-0.2
				l0.1,0.3c0.2,0.3,0.6,0.3,0.8-0.1l0.1-0.3c0.1-0.4,0.8-0.4,0.8,0.1v0.3c0,0.4,0.5,0.5,0.7,0.2l0.2-0.2c0.3-0.3,0.8,0,0.7,0.4
				l-0.1,0.3c-0.1,0.3,0.3,0.7,0.6,0.5l0.3-0.1c0.4-0.2,0.8,0.3,0.5,0.6l-0.2,0.2c-0.2,0.3,0,0.7,0.4,0.7h0.3c0.4,0,0.6,0.6,0.2,0.8
				l-0.3,0.1c-0.3,0.2-0.3,0.6,0.1,0.8l0.3,0.1c0.4,0.1,0.4,0.8-0.1,0.8h-0.3c-0.4,0-0.5,0.5-0.2,0.7l0.2,0.2c0.3,0.3,0,0.8-0.4,0.7
				l-0.3-0.1c-0.3-0.1-0.7,0.3-0.5,0.6l0.1,0.3c0.2,0.4-0.3,0.8-0.6,0.5l-0.2-0.2c-0.3-0.2-0.7,0-0.7,0.4v0.3c0,0.4-0.6,0.6-0.8,0.2
				l-0.1-0.3c-0.2-0.3-0.6-0.3-0.8,0.1l-0.1,0.3c-0.1,0.4-0.8,0.4-0.8-0.1v-0.3c0-0.4-0.5-0.5-0.7-0.2l-0.2,0.2
				c-0.3,0.3-0.8,0-0.7-0.4l0.1-0.3c0.1-0.3-0.3-0.7-0.6-0.5l-0.3,0.1c-0.3,0.2-0.6-0.1-0.6-0.4c-1.8,2.1-2,5.7-2,7
				c8.1-0.3,14.6-6.9,14.6-14.9C416.5,195.8,409.6,189.2,401.2,189.2z"/>
			<ellipse class="st2" cx="407.7" cy="209.3" rx="2.6" ry="2.6"/>
			
				<ellipse transform="matrix(0.9732 -0.2298 0.2298 0.9732 -36.2612 96.8317)" class="st2" cx="397.6" cy="204.1" rx="3.7" ry="3.7"/>
			<path class="st2" d="M431.5,209.6c-0.4-1.6,1.6-4.2,1.6-4.2c-0.7-2.9-4.1-12.6-4.1-12.6c-4-6-14.5-11.3-14.5-11.3
				c-24.9-10.3-38.8,11.6-38.8,11.6c-7.2,11.3-0.1,28.5-0.1,28.5c4.1,4.1,7.5,6.1,10.5,11c3.1,4.8-1.8,17-1.8,17h32.5
				c-1.2-1.6-0.4-8.3,0.7-9.2c1.2-0.9,9.1,2.5,10.5,1c1.5-1.5,0-6,0-6.7s1.9-2,2.3-2.6s-1.2-1-1.3-2c-0.1-1,1.8-1.8,1.2-2.8
				c-0.6-1,0-2.9,0.7-3.8s5-1.5,6.1-1.9C438.4,221,432,211.2,431.5,209.6z M405.4,232.8c0,0.3-0.2,0.5-0.5,0.5h-8.4
				c-0.3,0-0.5-0.2-0.5-0.5v-0.7c0-0.3,0.2-0.5,0.5-0.5h8.4c0.3,0,0.5,0.2,0.5,0.5V232.8z M407.5,229.6c0,0.3-0.2,0.5-0.5,0.5h-12.3
				c-0.3,0-0.5-0.2-0.5-0.5v-0.7c0-0.3,0.2-0.5,0.5-0.5H407c0.3,0,0.5,0.2,0.5,0.5V229.6z M407.5,226.6c0,0.3-0.2,0.5-0.5,0.5h-12.3
				c-0.3,0-0.5-0.2-0.5-0.5v-0.7c0-0.3,0.2-0.5,0.5-0.5H407c0.3,0,0.5,0.2,0.5,0.5V226.6z M419.2,204.9h0.2c1,0.2,0.9,1.7-0.1,1.7
				h-0.1c-0.9,0-1.1,1.4-0.3,1.7l0,0c0.9,0.4,0.5,1.9-0.4,1.7h-0.2c-0.9-0.2-1.4,1.1-0.6,1.6l0.1,0.1c0.9,0.6,0.2,2-0.7,1.6
				l-0.4-0.2c-0.8-0.3-1.5,0.8-0.8,1.5l0.2,0.2c0.7,0.7-0.1,2-1,1.4l-0.6-0.4c-0.8-0.5-1.6,0.5-1.1,1.3l0.3,0.5
				c0.6,0.9-0.5,1.9-1.2,1.2l-0.7-0.7c-0.7-0.6-1.7,0.1-1.3,1l0.3,0.7c0.4,1-0.8,1.7-1.4,0.9l-0.6-0.9c-0.5-0.8-1.7-0.2-1.5,0.7
				l0.2,1c0.2,1-1.1,1.5-1.6,0.6l-0.5-1.2c-0.4-0.9-1.6-0.6-1.6,0.4v1.2c0,1.1-1.4,1.2-1.6,0.2l-0.3-1.6c-0.2-0.8-1.3-0.8-1.4,0
				l-0.3,1.6c-0.2,1-1.6,0.9-1.6-0.2v-1.2c0-0.9-1.2-1.2-1.6-0.4l-0.5,1.2c-0.4,1-1.8,0.5-1.6-0.6l0.2-1c0.2-0.9-0.9-1.5-1.5-0.7
				l-0.6,0.9c-0.6,0.9-1.8,0.1-1.4-0.9l0.3-0.7c0.4-0.9-0.6-1.7-1.3-1l-0.7,0.7c-0.7,0.7-1.8-0.3-1.2-1.2l0.3-0.5
				c0.5-0.8-0.3-1.8-1.1-1.3l-0.6,0.4c-0.9,0.6-1.7-0.7-1-1.4l0.2-0.2c0.7-0.7,0-1.8-0.8-1.5l-0.4,0.2c-0.9,0.4-1.6-1-0.7-1.6
				l0.1-0.1c0.8-0.5,0.3-1.8-0.6-1.6h-0.2c-1,0.2-1.4-1.3-0.4-1.7l0,0c0.9-0.3,0.6-1.7-0.3-1.7h-0.1c-1,0-1.1-1.6-0.1-1.7h0.2
				c0.9,0,1.1-0.5,0.5-1.1l-0.6-0.6c-1-0.2-0.9-1.7,0.1-1.7h0.1c0.9,0,1.1-1.4,0.3-1.7l0,0c-0.9-0.4-0.5-1.9,0.4-1.7h0.2
				c0.9,0.2,1.4-1.1,0.6-1.6l-0.1-0.1c-0.9-0.6-0.2-2,0.7-1.6l0.4,0.2c0.8,0.3,1.5-0.8,0.8-1.5l-0.2-0.2c-0.7-0.7,0.1-2,1-1.4
				l0.6,0.4c0.8,0.5,1.6-0.5,1.1-1.3l-0.3-0.5c-0.6-0.9,0.5-1.9,1.2-1.2l0.7,0.7c0.7,0.7,1.7-0.1,1.3-1l-0.3-0.8
				c-0.4-1,0.8-1.8,1.4-0.9l0.6,1c0.5,0.8,1.7,0.2,1.5-0.7l-0.2-1c-0.2-1.1,1.1-1.5,1.6-0.6l0.5,1.2c0.4,0.9,1.6,0.6,1.6-0.4v-1.2
				c0-1.1,1.4-1.2,1.6-0.2l0.2,1.2c0.2,0.9,1.4,0.9,1.6,0l0.2-1.2c0.2-1,1.6-0.9,1.6,0.2v1.2c0,1,1.2,1.2,1.6,0.4l0.5-1.2
				c0.4-1,1.8-0.5,1.6,0.6l-0.2,1c-0.2,0.9,0.9,1.5,1.5,0.7l0.6-1c0.6-0.9,1.8-0.1,1.4,0.9l-0.3,0.8c-0.4,0.9,0.6,1.7,1.3,1l0.7-0.7
				c0.7-0.7,1.8,0.3,1.2,1.2l-0.3,0.5c-0.5,0.8,0.3,1.8,1.1,1.3l0.6-0.4c0.9-0.6,1.7,0.7,1,1.4l-0.2,0.2c-0.7,0.7,0,1.9,0.8,1.5
				l0.4-0.2c0.9-0.4,1.6,1,0.7,1.6l-0.1,0.1c-0.8,0.5-0.3,1.8,0.6,1.6h0.2c1-0.2,1.4,1.3,0.4,1.7l0,0c-0.9,0.4-0.6,1.7,0.3,1.7h0.1
				c1,0,1.1,1.6,0.1,1.7l-0.6,0.6C418.1,204.4,418.3,204.9,419.2,204.9z"/>
		</g>
	</g>
	<g>
		<path class="st3" d="M338.5,149.5h1.9v6.8h3.3v1.6h-5.2L338.5,149.5L338.5,149.5z"/>
		<path class="st3" d="M346.3,155.5c0.1,0.8,0.8,1.2,1.8,1.2c0.6,0,1.2-0.1,1.7-0.2l0.2,1.3c-0.6,0.2-1.4,0.4-2.2,0.4
			c-2.1,0-3.2-1.3-3.2-3.1c0-1.6,0.9-3.2,3.1-3.2c2,0,2.7,1.6,2.7,3c0,0.3,0,0.6-0.1,0.7L346.3,155.5L346.3,155.5z M348.6,154.2
			c0-0.4-0.2-1.3-1-1.3s-1.2,0.7-1.2,1.3H348.6z"/>
		<path class="st3" d="M354.9,157.9l-0.1-0.6l0,0c-0.4,0.5-1,0.7-1.8,0.7c-1.3,0-2-0.9-2-1.9c0-1.6,1.5-2.4,3.6-2.3v-0.1
			c0-0.3-0.2-0.8-1.2-0.8c-0.6,0-1.3,0.2-1.7,0.4l-0.3-1.3c0.4-0.2,1.3-0.5,2.4-0.5c2.1,0,2.7,1.3,2.7,2.6v2.1c0,0.6,0,1.2,0.1,1.5
			h-1.8L354.9,157.9L354.9,157.9z M354.7,155.1c-1,0-1.8,0.2-1.8,0.9c0,0.5,0.3,0.7,0.7,0.7c0.5,0,0.8-0.3,0.9-0.7
			c0-0.1,0-0.2,0-0.3v-0.6L354.7,155.1L354.7,155.1z"/>
		<path class="st3" d="M358.1,153.8c0-0.9,0-1.5,0-2h1.7l0.1,1.2l0,0c0.3-0.9,1-1.3,1.7-1.3c0.2,0,0.3,0,0.4,0v1.8
			c-0.1,0-0.3,0-0.5,0c-0.7,0-1.2,0.4-1.3,0.9c0,0.1,0,0.3,0,0.4v3.1h-1.9v-4.2h-0.2L358.1,153.8L358.1,153.8z"/>
		<path class="st3" d="M362.8,153.7c0-0.7,0-1.5,0-2h1.7l0.1,0.8l0,0c0.2-0.4,0.8-0.9,1.9-0.9c1.3,0,2.2,0.8,2.2,2.6v3.7h-1.9v-3.5
			c0-0.8-0.3-1.4-0.9-1.4c-0.5,0-0.8,0.3-0.9,0.7c0,0.1-0.1,0.3-0.1,0.5v3.6H363v-4.2L362.8,153.7L362.8,153.7z"/>
		<path class="st3" d="M372.2,150.1c0,0.5-0.4,0.9-1,0.9s-1-0.4-0.9-0.9c0-0.5,0.4-0.9,1-0.9C371.8,149.1,372.1,149.6,372.2,150.1z
			 M370.2,157.9v-6.2h1.9v6.2H370.2z"/>
		<path class="st3" d="M373.7,153.7c0-0.7,0-1.5,0-2h1.7l0.1,0.8l0,0c0.2-0.4,0.8-0.9,1.9-0.9c1.3,0,2.2,0.8,2.2,2.6v3.7h-1.9v-3.5
			c0-0.8-0.3-1.4-0.9-1.4c-0.5,0-0.8,0.3-0.9,0.7c0,0.1-0.1,0.3-0.1,0.5v3.6h-1.9v-4.2L373.7,153.7L373.7,153.7z"/>
		<path class="st3" d="M386.8,151.9c0,0.4,0,0.9,0,1.8v3.5c0,1.2-0.2,2.2-0.9,2.7c-0.6,0.6-1.6,0.7-2.5,0.7c-0.8,0-1.7-0.2-2.2-0.5
			l0.4-1.5c0.4,0.2,1,0.4,1.8,0.4c0.9,0,1.6-0.5,1.6-1.6V157l0,0c-0.3,0.5-0.9,0.8-1.7,0.8c-1.6,0-2.6-1.3-2.6-3
			c0-2,1.3-3.2,2.8-3.2c0.8,0,1.4,0.3,1.7,0.8l0,0l0.1-0.7h1.6L386.8,151.9L386.8,151.9z M384.8,154.4c0-0.1,0-0.2,0-0.3
			c-0.1-0.5-0.5-0.8-1-0.8c-0.7,0-1.3,0.6-1.3,1.8c0,0.9,0.4,1.7,1.3,1.7c0.5,0,0.8-0.3,1-0.7c0-0.1,0.1-0.3,0.1-0.5v-1h-0.1V154.4z
			"/>
		<path class="st3" d="M394.4,157.9l-0.1-0.6l0,0c-0.4,0.5-1,0.7-1.8,0.7c-1.3,0-2-0.9-2-1.9c0-1.6,1.5-2.4,3.6-2.3v-0.1
			c0-0.3-0.2-0.8-1.2-0.8c-0.6,0-1.3,0.2-1.7,0.4l-0.3-1.3c0.4-0.2,1.3-0.5,2.4-0.5c2.1,0,2.7,1.3,2.7,2.6v2.1c0,0.6,0,1.2,0.1,1.5
			h-1.8L394.4,157.9L394.4,157.9z M394.2,155.1c-1,0-1.8,0.2-1.8,0.9c0,0.5,0.3,0.7,0.7,0.7c0.5,0,0.8-0.3,0.9-0.7
			c0-0.1,0-0.2,0-0.3v-0.6L394.2,155.1L394.2,155.1z"/>
		<path class="st3" d="M397.5,153.7c0-0.7,0-1.5,0-2h1.7l0.1,0.8l0,0c0.2-0.4,0.8-0.9,1.9-0.9c1.3,0,2.2,0.8,2.2,2.6v3.7h-1.9v-3.5
			c0-0.8-0.3-1.4-0.9-1.4c-0.5,0-0.8,0.3-0.9,0.7c0,0.1-0.1,0.3-0.1,0.5v3.6h-1.9v-4.2L397.5,153.7L397.5,153.7z"/>
		<path class="st3" d="M410.8,149v7.1c0,0.7,0,1.5,0,1.9h-1.7l-0.1-0.9l0,0c-0.4,0.7-1.2,1-1.9,1c-1.5,0-2.6-1.3-2.6-3.1
			c0-2.1,1.3-3.2,2.7-3.2c0.7,0,1.4,0.3,1.6,0.7l0,0V149H410.8z M408.9,154.4c0-0.1,0-0.2,0-0.3c-0.1-0.5-0.5-0.9-1.2-0.9
			c-0.8,0-1.4,0.7-1.4,1.8s0.5,1.7,1.3,1.7c0.5,0,0.9-0.4,1.2-0.9c0-0.1,0-0.3,0-0.4v-0.8h0.1V154.4z"/>
		<path class="st3" d="M414.9,149.7c0.7-0.1,1.6-0.2,2.6-0.2c1.6,0,2.6,0.3,3.5,0.9c0.8,0.6,1.5,1.7,1.5,3.1c0,1.6-0.6,2.7-1.4,3.5
			c-0.9,0.7-2.2,1-3.9,1c-0.9,0-1.7-0.1-2.2-0.1v-8.3h-0.1V149.7z M416.8,156.5c0.2,0,0.4,0,0.6,0c1.8,0,2.8-0.9,2.8-2.9
			c0-1.8-1-2.7-2.6-2.7c-0.4,0-0.7,0-0.8,0.1V156.5L416.8,156.5z"/>
		<path class="st3" d="M425,155.5c0.1,0.8,0.8,1.2,1.8,1.2c0.6,0,1.2-0.1,1.7-0.2l0.2,1.3c-0.6,0.2-1.4,0.4-2.2,0.4
			c-2.1,0-3.2-1.3-3.2-3.1c0-1.6,0.9-3.2,3.1-3.2c2,0,2.7,1.6,2.7,3c0,0.3,0,0.6-0.1,0.7L425,155.5L425,155.5z M427.3,154.2
			c0-0.4-0.2-1.3-1-1.3s-1.2,0.7-1.2,1.3H427.3z"/>
		<path class="st3" d="M431.6,151.9l0.8,2.8c0.1,0.5,0.3,1,0.3,1.5l0,0c0.1-0.5,0.2-0.9,0.3-1.5l0.8-2.8h2l-2.3,6.2h-1.9l-2.2-6.2
			C429.5,151.9,431.6,151.9,431.6,151.9z"/>
		<path class="st3" d="M438.1,155.5c0.1,0.8,0.8,1.2,1.8,1.2c0.6,0,1.2-0.1,1.7-0.2l0.2,1.3c-0.6,0.2-1.4,0.4-2.2,0.4
			c-2.1,0-3.2-1.3-3.2-3.1c0-1.6,0.9-3.2,3.1-3.2c2,0,2.7,1.6,2.7,3c0,0.3,0,0.6-0.1,0.7L438.1,155.5L438.1,155.5z M440.3,154.2
			c0-0.4-0.2-1.3-1-1.3s-1.2,0.7-1.2,1.3H440.3z"/>
		<path class="st3" d="M443.2,149h1.9v8.9h-1.9V149z"/>
		<path class="st3" d="M452.7,154.8c0,2.2-1.6,3.2-3.2,3.2c-1.8,0-3.1-1.2-3.1-3.1c0-2,1.3-3.2,3.2-3.2
			C451.5,151.6,452.7,153,452.7,154.8z M448.3,154.9c0,1,0.4,1.9,1.3,1.9c0.7,0,1.3-0.7,1.3-1.9c0-0.9-0.3-1.9-1.3-1.9
			C448.6,153,448.3,153.9,448.3,154.9z"/>
		<path class="st3" d="M453.9,153.8c0-0.8,0-1.5,0-2.1h1.7l0.1,0.8l0,0c0.4-0.6,1.2-0.9,2.1-0.9c1.4,0,2.5,1.2,2.5,3.1
			c0,2.2-1.5,3.2-2.8,3.2c-0.7,0-1.4-0.3-1.6-0.7l0,0v3H454v-6.5L453.9,153.8L453.9,153.8z M455.9,155.3c0,0.1,0,0.3,0,0.4
			c0.1,0.5,0.5,0.9,1.2,0.9c0.8,0,1.4-0.7,1.4-1.8c0-0.9-0.4-1.7-1.3-1.7c-0.5,0-1,0.4-1.2,0.9c0,0.1,0,0.2,0,0.3v0.8h-0.1V155.3z"
			/>
		<path class="st3" d="M461.4,153.7c0-0.7,0-1.5,0-2h1.6l0.1,0.8l0,0c0.3-0.4,0.8-0.9,1.9-0.9c0.8,0,1.5,0.4,1.7,1l0,0
			c0.2-0.3,0.5-0.5,0.8-0.7s0.7-0.3,1.2-0.3c1.2,0,2.1,0.8,2.1,2.6v3.7h-1.9v-3.3c0-0.9-0.3-1.4-0.9-1.4c-0.4,0-0.7,0.3-0.8,0.6
			c0,0.1-0.1,0.3-0.1,0.5v3.6h-1.9v-3.5c0-0.7-0.3-1.3-0.8-1.3s-0.7,0.4-0.9,0.7c-0.1,0.1-0.1,0.3-0.1,0.5v3.6h-1.9v-4.3
			L461.4,153.7L461.4,153.7z"/>
		<path class="st3" d="M473.6,155.5c0.1,0.8,0.8,1.2,1.8,1.2c0.6,0,1.2-0.1,1.7-0.2l0.2,1.3c-0.6,0.2-1.4,0.4-2.2,0.4
			c-2.1,0-3.2-1.3-3.2-3.1c0-1.6,0.9-3.2,3.1-3.2c2,0,2.7,1.6,2.7,3c0,0.3,0,0.6-0.1,0.7L473.6,155.5L473.6,155.5z M475.9,154.2
			c0-0.4-0.2-1.3-1-1.3s-1.2,0.7-1.2,1.3H475.9z"/>
		<path class="st3" d="M478.9,153.7c0-0.7,0-1.5,0-2h1.7l0.1,0.8l0,0c0.2-0.4,0.8-0.9,1.9-0.9c1.3,0,2.2,0.8,2.2,2.6v3.7h-2v-3.5
			c0-0.8-0.3-1.4-0.9-1.4c-0.5,0-0.8,0.3-0.9,0.7c0,0.1-0.1,0.3-0.1,0.5v3.6H479L478.9,153.7L478.9,153.7z"/>
		<path class="st3" d="M488.3,150.1v1.8h1.4v1.4h-1.4v2.2c0,0.7,0.2,1,0.7,1c0.2,0,0.4,0,0.5,0v1.5c-0.2,0.1-0.7,0.2-1.3,0.2
			c-0.6,0-1.2-0.2-1.5-0.5s-0.5-0.9-0.5-1.8v-2.6h-0.8v-1.4h0.8v-1.4L488.3,150.1z"/>
	</g>
</g>
<g id="performance">
	<g>
		<circle class="st1" cx="148.2" cy="383.6" r="48.6"/>
		<g id="p2">
			<g>
				<path class="st2" d="M122.2,405.9L122.2,405.9c-2.5,0-4.6-2.1-4.6-4.6v-28c0-2.5,2.1-4.6,4.6-4.6l0,0c2.5,0,4.6,2.1,4.6,4.6v28
					C126.8,403.8,124.7,405.9,122.2,405.9z"/>
				<path class="st2" d="M119.6,401.3L119.6,401.3c0-2.5,2.1-4.6,4.6-4.6h50c2.5,0,4.6,2.1,4.6,4.6l0,0c0,2.5-2.1,4.6-4.6,4.6h-50
					C121.5,405.9,119.6,403.8,119.6,401.3z"/>
			</g>
			<rect x="132.1" y="374.5" class="st2" width="7.6" height="18.7"/>
			<rect x="143.9" y="366.7" class="st2" width="7.6" height="26.6"/>
			<rect x="155.8" y="361.3" class="st2" width="7.6" height="32"/>
			<rect x="167.7" y="361.3" class="st2" width="7.6" height="32"/>
		</g>
	</g>
	<g>
		<path class="st3" d="M79,438.5c0.6-0.1,1.5-0.2,2.6-0.2c1.2,0,2,0.2,2.6,0.6c0.5,0.4,0.9,1.2,0.9,2s-0.3,1.6-0.7,2
			c-0.6,0.6-1.6,0.9-2.7,0.9c-0.2,0-0.5,0-0.6,0v3h-1.9v-8.4H79V438.5z M80.9,442.2c0.2,0,0.3,0,0.6,0c1,0,1.7-0.5,1.7-1.4
			c0-0.7-0.5-1.3-1.5-1.3c-0.4,0-0.6,0-0.8,0.1C80.9,439.7,80.9,442.2,80.9,442.2z"/>
		<path class="st3" d="M87.3,444.3c0.1,0.8,0.8,1.2,1.8,1.2c0.6,0,1.2-0.1,1.7-0.2l0.2,1.3c-0.6,0.2-1.4,0.4-2.2,0.4
			c-2.1,0-3.2-1.3-3.2-3.1c0-1.6,0.9-3.2,3.1-3.2c2,0,2.7,1.6,2.7,3c0,0.3,0,0.6-0.1,0.7L87.3,444.3L87.3,444.3z M89.6,443
			c0-0.4-0.2-1.3-1-1.3s-1.2,0.7-1.2,1.3H89.6z"/>
		<path class="st3" d="M92.6,442.6c0-0.9,0-1.5,0-2h1.7l0.1,1.2l0,0c0.3-0.9,1-1.3,1.7-1.3c0.2,0,0.3,0,0.4,0v1.8
			c-0.1,0-0.3,0-0.5,0c-0.7,0-1.2,0.4-1.3,0.9c0,0.1,0,0.3,0,0.4v3.1h-1.9v-4.2h-0.2C92.6,442.5,92.6,442.6,92.6,442.6z"/>
		<path class="st3" d="M97.9,446.7V442h-0.8v-1.4h0.8v-0.2c0-0.7,0.2-1.6,0.7-2.1c0.5-0.4,1.2-0.6,1.7-0.6c0.4,0,0.7,0,1,0.1
			l-0.1,1.5c-0.2,0-0.3-0.1-0.6-0.1c-0.6,0-0.9,0.5-0.9,1v0.3h1.4v1.4h-1.3v4.7h-1.9C97.9,446.6,97.9,446.7,97.9,446.7z"/>
		<path class="st3" d="M107.8,443.6c0,2.2-1.6,3.2-3.2,3.2c-1.8,0-3.1-1.2-3.1-3.1s1.3-3.2,3.2-3.2
			C106.6,440.4,107.8,441.8,107.8,443.6z M103.4,443.7c0,1,0.4,1.9,1.3,1.9c0.7,0,1.3-0.7,1.3-1.9c0-0.9-0.3-1.9-1.3-1.9
			C103.8,441.8,103.4,442.7,103.4,443.7z"/>
		<path class="st3" d="M109,442.6c0-0.9,0-1.5,0-2h1.7l0.1,1.2l0,0c0.3-0.9,1-1.3,1.7-1.3c0.2,0,0.3,0,0.4,0v1.8c-0.1,0-0.3,0-0.5,0
			c-0.7,0-1.2,0.4-1.3,0.9c0,0.1,0,0.3,0,0.4v3.1h-1.9v-4.2H109V442.6z"/>
		<path class="st3" d="M113.8,442.5c0-0.7,0-1.5,0-2h1.6l0.1,0.8l0,0c0.3-0.4,0.8-0.9,1.9-0.9c0.8,0,1.5,0.4,1.7,1l0,0
			c0.2-0.3,0.5-0.5,0.8-0.7s0.7-0.3,1.2-0.3c1.2,0,2.1,0.8,2.1,2.6v3.7h-1.9v-3.3c0-0.9-0.3-1.4-0.9-1.4c-0.4,0-0.7,0.3-0.8,0.6
			c0,0.1-0.1,0.3-0.1,0.5v3.6h-1.9v-3.5c0-0.7-0.3-1.3-0.8-1.3s-0.7,0.4-0.9,0.7c-0.1,0.1-0.1,0.3-0.1,0.5v3.6h-1.9L113.8,442.5
			L113.8,442.5L113.8,442.5z"/>
		<path class="st3" d="M128.1,446.7l-0.1-0.6l0,0c-0.4,0.5-1,0.7-1.8,0.7c-1.3,0-2-0.9-2-1.9c0-1.6,1.5-2.4,3.6-2.3v-0.1
			c0-0.3-0.2-0.8-1.2-0.8c-0.6,0-1.3,0.2-1.7,0.4l-0.3-1.3c0.4-0.2,1.3-0.5,2.4-0.5c2.1,0,2.7,1.3,2.7,2.6v2.1c0,0.6,0,1.2,0.1,1.5
			H128v0.2L128.1,446.7L128.1,446.7z M127.8,443.9c-1,0-1.8,0.2-1.8,0.9c0,0.5,0.3,0.7,0.7,0.7c0.5,0,0.8-0.3,0.9-0.7
			c0-0.1,0-0.2,0-0.3v-0.6H127.8z"/>
		<path class="st3" d="M131.3,442.5c0-0.7,0-1.5,0-2h1.7l0.1,0.8l0,0c0.2-0.4,0.8-0.9,1.9-0.9c1.3,0,2.2,0.8,2.2,2.6v3.7h-1.9v-3.5
			c0-0.8-0.3-1.4-0.9-1.4c-0.5,0-0.8,0.3-0.9,0.7c0,0.1-0.1,0.3-0.1,0.5v3.6h-1.9v-4.2L131.3,442.5L131.3,442.5z"/>
		<path class="st3" d="M143.2,446.6c-0.3,0.1-0.9,0.3-1.7,0.3c-2,0-3.2-1.3-3.2-3.1c0-1.8,1.3-3.2,3.6-3.2c0.5,0,1,0.1,1.5,0.2
			l-0.3,1.5c-0.2-0.1-0.5-0.2-1-0.2c-1,0-1.7,0.7-1.7,1.7c0,1.2,0.7,1.7,1.7,1.7c0.4,0,0.8-0.1,1-0.2L143.2,446.6z"/>
		<path class="st3" d="M145.6,444.3c0.1,0.8,0.8,1.2,1.8,1.2c0.6,0,1.2-0.1,1.7-0.2l0.2,1.3c-0.6,0.2-1.4,0.4-2.2,0.4
			c-2.1,0-3.2-1.3-3.2-3.1c0-1.6,0.9-3.2,3.1-3.2c2,0,2.7,1.6,2.7,3c0,0.3,0,0.6-0.1,0.7L145.6,444.3L145.6,444.3z M147.8,443
			c0-0.4-0.2-1.3-1-1.3s-1.2,0.7-1.2,1.3H147.8z"/>
		<path class="st3" d="M153.2,442.5c0-0.7,0-1.5,0-2h1.6l0.1,0.8l0,0c0.3-0.4,0.8-0.9,1.9-0.9c0.8,0,1.5,0.4,1.7,1l0,0
			c0.2-0.3,0.5-0.5,0.8-0.7s0.7-0.3,1.2-0.3c1.2,0,2.1,0.8,2.1,2.6v3.7h-1.9v-3.3c0-0.9-0.3-1.4-0.9-1.4c-0.4,0-0.7,0.3-0.8,0.6
			c0,0.1-0.1,0.3-0.1,0.5v3.6H157v-3.5c0-0.7-0.3-1.3-0.8-1.3s-0.7,0.4-0.9,0.7c-0.1,0.1-0.1,0.3-0.1,0.5v3.6h-1.9v-4.3L153.2,442.5
			L153.2,442.5z"/>
		<path class="st3" d="M167.5,446.7l-0.1-0.6l0,0c-0.4,0.5-1,0.7-1.8,0.7c-1.3,0-2-0.9-2-1.9c0-1.6,1.5-2.4,3.6-2.3v-0.1
			c0-0.3-0.2-0.8-1.2-0.8c-0.6,0-1.3,0.2-1.7,0.4l-0.3-1.3c0.4-0.2,1.3-0.5,2.4-0.5c2.1,0,2.7,1.3,2.7,2.6v2.1c0,0.6,0,1.2,0.1,1.5
			h-1.8v0.2L167.5,446.7L167.5,446.7z M167.3,443.9c-1,0-1.8,0.2-1.8,0.9c0,0.5,0.3,0.7,0.7,0.7c0.5,0,0.8-0.3,0.9-0.7
			c0-0.1,0-0.2,0-0.3v-0.6H167.3z"/>
		<path class="st3" d="M170.7,442.5c0-0.7,0-1.5,0-2h1.7l0.1,0.8l0,0c0.2-0.4,0.8-0.9,1.9-0.9c1.3,0,2.2,0.8,2.2,2.6v3.7h-1.9v-3.5
			c0-0.8-0.3-1.4-0.9-1.4c-0.5,0-0.8,0.3-0.9,0.7c0,0.1-0.1,0.3-0.1,0.5v3.6h-1.9v-4.2L170.7,442.5L170.7,442.5z"/>
		<path class="st3" d="M181.6,446.7l-0.1-0.6l0,0c-0.4,0.5-1,0.7-1.8,0.7c-1.3,0-2-0.9-2-1.9c0-1.6,1.5-2.4,3.6-2.3v-0.1
			c0-0.3-0.2-0.8-1.2-0.8c-0.6,0-1.3,0.2-1.7,0.4l-0.3-1.3c0.4-0.2,1.3-0.5,2.4-0.5c2.1,0,2.7,1.3,2.7,2.6v2.1c0,0.6,0,1.2,0.1,1.5
			h-1.8v0.2L181.6,446.7L181.6,446.7z M181.2,443.9c-1,0-1.8,0.2-1.8,0.9c0,0.5,0.3,0.7,0.7,0.7c0.5,0,0.8-0.3,0.9-0.7
			c0-0.1,0-0.2,0-0.3v-0.6H181.2z"/>
		<path class="st3" d="M190.6,440.7c0,0.4,0,0.9,0,1.8v3.5c0,1.2-0.2,2.2-0.9,2.7c-0.6,0.6-1.6,0.7-2.5,0.7c-0.8,0-1.7-0.2-2.2-0.5
			l0.4-1.5c0.4,0.2,1,0.4,1.8,0.4c0.9,0,1.6-0.5,1.6-1.6v-0.4l0,0c-0.3,0.5-0.9,0.8-1.7,0.8c-1.6,0-2.6-1.3-2.6-3
			c0-2,1.3-3.2,2.8-3.2c0.8,0,1.4,0.3,1.7,0.8l0,0l0.1-0.7h1.6v0.2L190.6,440.7L190.6,440.7z M188.6,443.2c0-0.1,0-0.2,0-0.3
			c-0.1-0.5-0.5-0.8-1-0.8c-0.7,0-1.3,0.6-1.3,1.8c0,0.9,0.4,1.7,1.3,1.7c0.5,0,0.8-0.3,1-0.7c0-0.1,0.1-0.3,0.1-0.5v-1h-0.1V443.2z
			"/>
		<path class="st3" d="M193.5,444.3c0.1,0.8,0.8,1.2,1.8,1.2c0.6,0,1.2-0.1,1.7-0.2l0.2,1.3c-0.6,0.2-1.4,0.4-2.2,0.4
			c-2.1,0-3.2-1.3-3.2-3.1c0-1.6,0.9-3.2,3.1-3.2c2,0,2.7,1.6,2.7,3c0,0.3,0,0.6-0.1,0.7L193.5,444.3L193.5,444.3z M195.7,443
			c0-0.4-0.2-1.3-1-1.3s-1.2,0.7-1.2,1.3H195.7z"/>
		<path class="st3" d="M198.6,442.5c0-0.7,0-1.5,0-2h1.6l0.1,0.8l0,0c0.3-0.4,0.8-0.9,1.9-0.9c0.8,0,1.5,0.4,1.7,1l0,0
			c0.2-0.3,0.5-0.5,0.8-0.7s0.7-0.3,1.2-0.3c1.2,0,2.1,0.8,2.1,2.6v3.7h-2v-3.3c0-0.9-0.3-1.4-0.9-1.4c-0.4,0-0.7,0.3-0.8,0.6
			c0,0.1-0.1,0.3-0.1,0.5v3.6h-1.9v-3.5c0-0.7-0.3-1.3-0.8-1.3s-0.7,0.4-0.9,0.7c-0.1,0.1-0.1,0.3-0.1,0.5v3.6h-1.9L198.6,442.5
			L198.6,442.5L198.6,442.5z"/>
		<path class="st3" d="M210.8,444.3c0.1,0.8,0.8,1.2,1.8,1.2c0.6,0,1.2-0.1,1.7-0.2l0.2,1.3c-0.6,0.2-1.4,0.4-2.2,0.4
			c-2.1,0-3.2-1.3-3.2-3.1c0-1.6,0.9-3.2,3.1-3.2c2,0,2.7,1.6,2.7,3c0,0.3,0,0.6-0.1,0.7L210.8,444.3L210.8,444.3z M213.1,443
			c0-0.4-0.2-1.3-1-1.3s-1.2,0.7-1.2,1.3H213.1z"/>
		<path class="st3" d="M216.1,442.5c0-0.7,0-1.5,0-2h1.7l0.1,0.8l0,0c0.2-0.4,0.8-0.9,1.9-0.9c1.3,0,2.2,0.8,2.2,2.6v3.7h-2v-3.5
			c0-0.8-0.3-1.4-0.9-1.4c-0.5,0-0.8,0.3-0.9,0.7c0,0.1-0.1,0.3-0.1,0.5v3.6h-2V442.5z"/>
		<path class="st3" d="M225.5,438.9v1.8h1.4v1.4h-1.4v2.2c0,0.7,0.2,1,0.7,1c0.2,0,0.4,0,0.5,0v1.5c-0.2,0.1-0.7,0.2-1.3,0.2
			s-1.2-0.2-1.5-0.5s-0.5-0.9-0.5-1.8V442h-0.8v-1.4h0.8v-1.4L225.5,438.9z"/>
	</g>
</g>
<g id="reward">
	<g>
		<circle class="st1" cx="347.2" cy="383.9" r="48.6"/>
		<g id="r2">
			<path class="st2" d="M377.5,380.7l-1.5-0.3c-1.5-0.3-1.5-2.4,0-2.7l1.5-0.3c1.6-0.3,1.4-2.7-0.3-2.7h-1.5c-1.5,0-1.9-2-0.5-2.6
				l1.4-0.6c1.5-0.6,0.8-2.9-0.8-2.6l-1.5,0.3c-1.5,0.3-2.2-1.6-1-2.5l1.2-0.8c1.4-0.9,0.2-3-1.3-2.4l-1.4,0.6
				c-1.4,0.6-2.5-1.2-1.5-2.2l1.1-1.1c1.2-1.2-0.3-3-1.7-2.1l-1.2,0.8c-1.2,0.8-2.7-0.6-1.9-1.9l0.8-1.2c0.9-1.4-0.9-2.9-2.1-1.7
				l-1.1,1.1c-1,1-2.8-0.1-2.2-1.5l0.6-1.4c0.6-1.5-1.5-2.6-2.4-1.3l-0.8,1.2c-0.8,1.2-2.7,0.4-2.5-1l0.3-1.5c0.3-1.6-2-2.3-2.6-0.8
				l-0.6,1.4c-0.6,1.4-2.6,1-2.6-0.5v-1.5c0-1.6-2.4-1.9-2.7-0.3l-0.3,1.5c-0.3,1.5-2.4,1.5-2.7,0l-0.3-1.5
				c-0.3-1.6-2.7-1.4-2.7,0.3v1.5c0,1.5-2,1.9-2.6,0.5l-0.6-1.4c-0.6-1.5-2.9-0.8-2.6,0.8l0.3,1.5c0.3,1.5-1.6,2.2-2.5,1l-0.8-1.2
				c-0.9-1.4-3-0.2-2.4,1.3l0.6,1.4c0.6,1.4-1.2,2.5-2.2,1.5l-1.1-1.1c-1.2-1.2-3,0.3-2.1,1.7l0.8,1.2c0.8,1.2-0.6,2.7-1.9,1.9
				l-1.2-0.8c-1.4-0.9-2.9,0.9-1.7,2.1l1.1,1.1c1,1-0.1,2.8-1.5,2.2l-1.4-0.6c-1.5-0.6-2.6,1.5-1.3,2.4l1.2,0.8
				c1.2,0.8,0.4,2.7-1,2.5l-1.5-0.3c-1.6-0.3-2.3,2-0.8,2.6l1.4,0.6c1.4,0.6,1,2.6-0.5,2.6h-1.5c-1.6,0-1.9,2.4-0.3,2.7l1.5,0.3
				c1.5,0.3,1.5,2.4,0,2.7l-1.5,0.3c-1.6,0.3-1.4,2.7,0.3,2.7h1.5c1.5,0,1.9,2,0.5,2.6l-1.4,0.6c-1.5,0.6-0.8,2.9,0.8,2.6l1.5-0.3
				c1.5-0.3,2.2,1.6,1,2.5l-1.2,0.8c-1.4,0.9-0.2,3,1.3,2.4l1.4-0.6c0.2-0.1,0.4-0.1,0.5-0.1l-11.5,19.9l11.6-3.6l2.4,11.7l9.9-17.2
				c0.9-0.5,2.2,0.3,2,1.5l-0.3,1.5c-0.3,1.6,2,2.3,2.6,0.8l0.6-1.4c0.6-1.4,2.6-1,2.6,0.5v1.5c0,1.6,2.4,1.9,2.7,0.3l0.3-1.5
				c0.3-1.5,2.4-1.5,2.7,0l0.3,1.5c0.3,1.6,2.7,1.4,2.7-0.3v-1.5c0-1.1,1.1-1.6,1.9-1.2l9.4,16.4l2.7-11.8l11.3,3.8l-9.4-16.3
				c0.3-0.1,0.7,0,1,0.2l1.2,0.8c1.4,0.9,2.9-0.9,1.7-2.1l-1.1-1.1c-1-1,0.1-2.8,1.5-2.2l1.4,0.6c1.5,0.6,2.6-1.5,1.3-2.4l-1.2-0.8
				c-1.2-0.8-0.4-2.7,1-2.5l1.5,0.3c1.6,0.3,2.3-2,0.8-2.6l-1.4-0.6c-1.4-0.6-1-2.6,0.5-2.6h1.5
				C378.9,383.4,379.2,381.1,377.5,380.7z M347.8,402.7c-13.2,0-23.8-10.7-23.8-23.8s10.7-23.8,23.8-23.8s23.8,10.7,23.8,23.8
				S361,402.7,347.8,402.7z"/>
			<circle class="st2" cx="347.8" cy="378.9" r="21.5"/>
		</g>
		<g class="st4">
			<path class="st5" d="M364.1,367.4l-2.9-1.6c-1-0.6-1-2.1,0-2.7l2.9-1.6c1.5-0.8,0.8-2.9-0.8-2.9l-3.3,0.1c-1.3,0-2-1.4-1.4-2.4
				l1.7-2.8c0.8-1.4-0.7-3-2.2-2.2l-2.8,1.7c-1,0.6-2.4-0.1-2.4-1.4l0.1-3.3c0-1.7-2.1-2.2-2.9-0.8l-1.6,2.9c-0.6,1-2.1,1-2.7,0
				l-1.6-2.9c-0.8-1.5-2.9-0.8-2.9,0.8l0.1,3.3c0,1.3-1.4,2-2.4,1.4l-2.8-1.7c-1.4-0.8-3,0.7-2.2,2.2l1.7,2.8c0.6,1-0.1,2.4-1.4,2.4
				l-3.3-0.1c-1.7,0-2.2,2.1-0.8,2.9l2.9,1.6c1,0.6,1,2.1,0,2.7l-2.9,1.6c-1.5,0.8-0.8,2.9,0.8,2.9l3.3-0.1c1.3,0,2,1.4,1.4,2.4
				l-1.7,2.8c-0.8,1.4,0.7,3,2.2,2.2l2.8-1.7c1-0.6,2.4,0.1,2.4,1.4l-0.1,3.3c0,1.7,2.1,2.2,2.9,0.8l1.6-2.9c0.6-1,2.1-1,2.7,0
				l1.6,2.9c0.8,1.5,2.9,0.8,2.9-0.8l-0.1-3.3c0-1.3,1.4-2,2.4-1.4l2.8,1.7c1.4,0.8,3-0.7,2.2-2.2l-1.7-2.8c-0.6-1,0.1-2.4,1.4-2.4
				l3.3,0.1C365,370.3,365.5,368.1,364.1,367.4z M347.2,374.5c-5.5,0-10-4.5-10-10s4.5-10,10-10s10,4.5,10,10
				S352.7,374.5,347.2,374.5z"/>
			<polygon class="st5" points="354.3,374.4 354.3,421.1 347.3,405.2 340.1,420.7 340.1,376.2 			"/>
		</g>
	</g>
	<g>
		<path class="st3" d="M280.9,438.9c0.6-0.1,1.6-0.2,2.5-0.2c1.3,0,2.1,0.2,2.7,0.6c0.5,0.4,0.7,0.9,0.7,1.8c0,1-0.7,1.8-1.5,2.1
			l0,0c0.6,0.2,0.9,0.8,1.2,1.6c0.3,0.9,0.5,2.1,0.7,2.4h-2c-0.1-0.2-0.3-0.9-0.6-2c-0.2-1-0.6-1.4-1.4-1.4h-0.6v3.3h-1.8
			L280.9,438.9L280.9,438.9z M282.8,442.5h0.7c0.9,0,1.6-0.5,1.6-1.3s-0.5-1.2-1.4-1.2c-0.4,0-0.7,0-0.8,0.1v2.3h-0.1L282.8,442.5
			L282.8,442.5z"/>
		<path class="st3" d="M289.8,444.8c0.1,0.8,0.8,1.2,1.8,1.2c0.6,0,1.2-0.1,1.7-0.2l0.2,1.3c-0.6,0.2-1.4,0.4-2.2,0.4
			c-2.1,0-3.2-1.3-3.2-3.1c0-1.6,0.9-3.2,3.1-3.2c2,0,2.7,1.6,2.7,3c0,0.3,0,0.6-0.1,0.7L289.8,444.8L289.8,444.8z M292,443.4
			c0-0.4-0.2-1.3-1-1.3s-1.2,0.7-1.2,1.3H292z"/>
		<path class="st3" d="M296.2,441.1l0.5,2.5c0.1,0.6,0.2,1.4,0.3,2l0,0c0.1-0.7,0.3-1.4,0.4-2l0.6-2.5h1.5l0.6,2.4
			c0.2,0.7,0.3,1.4,0.4,2.1l0,0c0.1-0.7,0.2-1.4,0.3-2.1l0.5-2.4h1.9l-1.9,6.2h-1.8l-0.6-2.2c-0.1-0.6-0.3-1.2-0.4-1.9l0,0
			c-0.1,0.7-0.2,1.4-0.4,1.9l-0.6,2.2h-1.8l-1.8-6.2H296.2z"/>
		<path class="st3" d="M307.8,447.2l-0.1-0.6l0,0c-0.4,0.5-1,0.7-1.8,0.7c-1.3,0-2-0.9-2-1.9c0-1.6,1.5-2.4,3.6-2.3V443
			c0-0.3-0.2-0.8-1.2-0.8c-0.6,0-1.3,0.2-1.7,0.4l-0.3-1.3c0.4-0.2,1.3-0.5,2.4-0.5c2.1,0,2.7,1.3,2.7,2.6v2.1c0,0.6,0,1.2,0.1,1.5
			h-1.8L307.8,447.2L307.8,447.2z M307.6,444.3c-1,0-1.8,0.2-1.8,0.9c0,0.5,0.3,0.7,0.7,0.7c0.5,0,0.8-0.3,0.9-0.7
			c0-0.1,0-0.2,0-0.3v-0.6H307.6z"/>
		<path class="st3" d="M310.9,443.1c0-0.9,0-1.5,0-2h1.7l0.1,1.2l0,0c0.3-0.9,1-1.3,1.7-1.3c0.2,0,0.3,0,0.4,0v1.8
			c-0.1,0-0.3,0-0.5,0c-0.7,0-1.2,0.4-1.3,0.9c0,0.1,0,0.3,0,0.4v3.1h-1.9V443h-0.2L310.9,443.1L310.9,443.1z"/>
		<path class="st3" d="M321.6,438.3v7.1c0,0.7,0,1.5,0,1.9h-1.7l-0.1-0.9l0,0c-0.4,0.7-1.2,1-1.9,1c-1.5,0-2.6-1.3-2.6-3.1
			c0-2.1,1.3-3.2,2.7-3.2c0.7,0,1.4,0.3,1.6,0.7l0,0v-3.5H321.6z M319.6,443.6c0-0.1,0-0.2,0-0.3c-0.1-0.5-0.5-0.9-1.2-0.9
			c-0.8,0-1.4,0.7-1.4,1.8s0.5,1.7,1.3,1.7c0.5,0,0.9-0.4,1.2-0.9c0-0.1,0-0.3,0-0.4v-0.8h0.1V443.6z"/>
		<path class="st3" d="M323,445.5c0.3,0.2,1,0.4,1.7,0.4s0.8-0.2,0.8-0.5s-0.2-0.4-0.9-0.7c-1.3-0.4-1.8-1.2-1.8-1.9
			c0-1.2,0.9-2,2.5-2c0.7,0,1.4,0.2,1.8,0.3l-0.3,1.4c-0.3-0.1-0.8-0.3-1.4-0.3c-0.4,0-0.7,0.2-0.7,0.5s0.2,0.4,0.9,0.7
			c1.2,0.4,1.7,0.9,1.7,1.9c0,1.2-0.9,2-2.6,2c-0.8,0-1.6-0.2-2-0.4L323,445.5z"/>
		<path class="st3" d="M334.5,447.2l-0.1-0.6l0,0c-0.4,0.5-1,0.7-1.8,0.7c-1.3,0-2-0.9-2-1.9c0-1.6,1.5-2.4,3.6-2.3V443
			c0-0.3-0.2-0.8-1.2-0.8c-0.6,0-1.3,0.2-1.7,0.4l-0.3-1.2c0.4-0.2,1.3-0.5,2.4-0.5c2.1,0,2.7,1.3,2.7,2.6v2.1c0,0.6,0,1.2,0.1,1.5
			h-1.8L334.5,447.2L334.5,447.2z M334.3,444.3c-1,0-1.8,0.2-1.8,0.9c0,0.5,0.3,0.7,0.7,0.7c0.5,0,0.8-0.3,0.9-0.7
			c0-0.1,0-0.2,0-0.3v-0.6H334.3z"/>
		<path class="st3" d="M337.7,443c0-0.7,0-1.5,0-2h1.7l0.1,0.8l0,0c0.2-0.4,0.8-0.9,1.9-0.9c1.3,0,2.2,0.8,2.2,2.6v3.7h-2v-3.5
			c0-0.8-0.3-1.4-0.9-1.4c-0.5,0-0.8,0.3-0.9,0.7c0,0.1-0.1,0.3-0.1,0.5v3.6h-1.9L337.7,443L337.7,443z"/>
		<path class="st3" d="M351,438.3v7.1c0,0.7,0,1.5,0,1.9h-1.7l-0.1-0.9l0,0c-0.4,0.7-1.2,1-1.9,1c-1.5,0-2.6-1.3-2.6-3.1
			c0-2.1,1.3-3.2,2.7-3.2c0.7,0,1.4,0.3,1.6,0.7l0,0v-3.5H351z M349.1,443.6c0-0.1,0-0.2,0-0.3c-0.1-0.5-0.5-0.9-1.2-0.9
			c-0.8,0-1.4,0.7-1.4,1.8s0.5,1.7,1.3,1.7c0.5,0,0.9-0.4,1.2-0.9c0-0.1,0-0.3,0-0.4v-0.8h0.1V443.6z"/>
		<path class="st3" d="M355.2,438.9c0.6-0.1,1.6-0.2,2.5-0.2c1.3,0,2.1,0.2,2.7,0.6c0.5,0.4,0.7,0.9,0.7,1.8c0,1-0.7,1.8-1.5,2.1
			l0,0c0.6,0.2,0.9,0.8,1.2,1.6c0.3,0.9,0.5,2.1,0.7,2.4h-2c-0.1-0.2-0.3-0.9-0.6-2c-0.2-1-0.6-1.4-1.4-1.4h-0.6v3.3h-1.8
			L355.2,438.9L355.2,438.9z M357,442.5h0.7c0.9,0,1.6-0.5,1.6-1.3s-0.5-1.2-1.4-1.2c-0.4,0-0.7,0-0.8,0.1v2.3H357V442.5z"/>
		<path class="st3" d="M363.9,444.8c0.1,0.8,0.8,1.2,1.8,1.2c0.6,0,1.2-0.1,1.7-0.2l0.2,1.3c-0.6,0.2-1.4,0.4-2.2,0.4
			c-2.1,0-3.2-1.3-3.2-3.1c0-1.6,0.9-3.2,3.1-3.2c2,0,2.7,1.6,2.7,3c0,0.3,0,0.6-0.1,0.7L363.9,444.8L363.9,444.8z M366.2,443.4
			c0-0.4-0.2-1.3-1-1.3s-1.2,0.7-1.2,1.3H366.2z"/>
		<path class="st3" d="M373.8,447.1c-0.3,0.1-0.9,0.3-1.7,0.3c-2,0-3.2-1.3-3.2-3.1c0-1.8,1.3-3.2,3.6-3.2c0.5,0,1,0.1,1.5,0.2
			l-0.3,1.5c-0.2-0.1-0.5-0.2-1-0.2c-1,0-1.7,0.7-1.7,1.7c0,1.2,0.7,1.7,1.7,1.7c0.4,0,0.8-0.1,1-0.2L373.8,447.1z"/>
		<path class="st3" d="M380.7,444c0,2.2-1.6,3.2-3.2,3.2c-1.8,0-3.1-1.2-3.1-3.1c0-2,1.3-3.2,3.2-3.2
			C379.4,440.9,380.7,442.3,380.7,444z M376.3,444.1c0,1,0.4,1.9,1.3,1.9c0.7,0,1.3-0.7,1.3-1.9c0-0.9-0.3-1.9-1.3-1.9
			C376.6,442.3,376.3,443.2,376.3,444.1z"/>
		<path class="st3" d="M387.8,441.1c0,0.4,0,0.9,0,1.8v3.5c0,1.2-0.2,2.2-0.9,2.7c-0.6,0.6-1.6,0.7-2.5,0.7c-0.8,0-1.7-0.2-2.2-0.5
			l0.4-1.5c0.4,0.2,1,0.4,1.8,0.4c0.9,0,1.6-0.5,1.6-1.6v-0.4l0,0c-0.3,0.5-0.9,0.8-1.7,0.8c-1.6,0-2.6-1.3-2.6-3
			c0-2,1.3-3.2,2.8-3.2c0.8,0,1.4,0.3,1.7,0.8l0,0l0.1-0.7h1.6L387.8,441.1L387.8,441.1z M385.8,443.6c0-0.1,0-0.2,0-0.3
			c-0.1-0.5-0.5-0.8-1-0.8c-0.7,0-1.3,0.6-1.3,1.8c0,0.9,0.4,1.7,1.3,1.7c0.5,0,0.8-0.3,1-0.7c0-0.1,0.1-0.3,0.1-0.5v-1h-0.1V443.6z
			"/>
		<path class="st3" d="M389.2,443c0-0.7,0-1.5,0-2h1.7l0.1,0.8l0,0c0.2-0.4,0.8-0.9,1.9-0.9c1.3,0,2.2,0.8,2.2,2.6v3.7h-1.9v-3.5
			c0-0.8-0.3-1.4-0.9-1.4c-0.5,0-0.8,0.3-0.9,0.7c0,0.1-0.1,0.3-0.1,0.5v3.6h-1.9V443H389.2z"/>
		<path class="st3" d="M398.5,439.3c0,0.5-0.4,0.9-1,0.9s-1-0.4-0.9-0.9c0-0.5,0.4-0.9,1-0.9C398.1,438.4,398.5,438.8,398.5,439.3z
			 M396.6,447.2V441h1.9v6.2H396.6z"/>
		<path class="st3" d="M402.2,439.3v1.8h1.4v1.4h-1.4v2.2c0,0.7,0.2,1,0.7,1c0.2,0,0.4,0,0.5,0v1.5c-0.2,0.1-0.7,0.2-1.3,0.2
			c-0.6,0-1.2-0.2-1.5-0.5s-0.5-0.9-0.5-1.8v-2.6h-0.8v-1.4h0.8v-1.4L402.2,439.3z"/>
		<path class="st3" d="M406.6,439.3c0,0.5-0.4,0.9-1,0.9s-1-0.4-0.9-0.9c0-0.5,0.4-0.9,1-0.9C406.2,438.4,406.6,438.8,406.6,439.3z
			 M404.6,447.2V441h1.9v6.2H404.6z"/>
		<path class="st3" d="M414.1,444c0,2.2-1.6,3.2-3.2,3.2c-1.8,0-3.1-1.2-3.1-3.1c0-2,1.3-3.2,3.2-3.2
			C412.9,440.9,414.1,442.3,414.1,444z M409.7,444.1c0,1,0.4,1.9,1.3,1.9c0.7,0,1.3-0.7,1.3-1.9c0-0.9-0.3-1.9-1.3-1.9
			C410.1,442.3,409.7,443.2,409.7,444.1z"/>
		<path class="st3" d="M415.3,443c0-0.7,0-1.5,0-2h1.7l0.1,0.8l0,0c0.2-0.4,0.8-0.9,1.9-0.9c1.3,0,2.2,0.8,2.2,2.6v3.7h-1.9v-3.5
			c0-0.8-0.3-1.4-0.9-1.4c-0.5,0-0.8,0.3-0.9,0.7c0,0.1-0.1,0.3-0.1,0.5v3.6h-1.9V443H415.3z"/>
	</g>
</g>
<g id="hr">
	<g id="hrh">
		<circle id="hr3" class="st1" cx="255" cy="131.4" r="48.6"/>
		<g id="hr2">
			<path class="st2" d="M286.2,132.5v-2.6l0.1-2.7l-0.4-0.2l-3.5,1.2v0.7l1.9,0.2c0,0.8,0.1,1.4,0.1,2.5v0.9c0,0.9,0,2.2,0,3.2
				l-1.8,0.3v0.7h1.8h2h1.6V136l-1.7-0.3C286.2,134.7,286.2,133.4,286.2,132.5z"/>
			<path class="st2" d="M285.3,124.7c0.9,0,1.6-0.5,1.6-1.3s-0.7-1.3-1.6-1.3s-1.6,0.5-1.6,1.3C283.7,124.2,284.4,124.7,285.3,124.7
				z"/>
			<path class="st2" d="M255,86.9c-24.9,0-45,19.8-45,44.3s20.2,44.3,45,44.3c24.9,0,45-19.8,45-44.3S279.8,86.9,255,86.9z
				 M265.6,146.7c0,0,1,7.3-1.7,10.4c0,0-4.7,9.6-9.2,11.5h-3.1c0,0-9.6-6.7-11.3-15.7c0,0-0.1-5.6,0.1-6.4c0,0-15.8,4.3-19.9,7.3
				c-4.4-6.5-7-14.3-7-22.6c0-22.5,18.6-40.8,41.5-40.8s41.5,18.3,41.5,40.8c0,9.2-3.1,17.7-8.3,24.5
				C284.9,154.1,269.3,146.8,265.6,146.7z"/>
			<path class="st2" d="M272.2,117.6c0,0,3.2-16.6-4.9-20.9s-14.4-6.7-28-1c0,0-8.7,5.3-5.4,21.4c0,0-2.8-0.1-2.9,1.7
				c-0.1,1.8-0.2,6.9,3.5,9.5c0,0,6.6,15.6,17,15.9c0,0,8.2,1.8,16.3-8.7l3.6-7.2C271.4,128.3,279,118.6,272.2,117.6z M269.2,127.1
				c-1.7,6.9-7.3,12.8-11.4,14.2c-4.1,1.4-6.5,0.6-11.7-0.9s-9.7-14-9.7-14c-2.3-1.3-2.6-5.5-2.8-6.2c-0.2-0.6,1.1-1.8,1.8-1.8
				c0.8,0,2.6,4.2,2.6,4.2l-1.4-11.6c3.4-7,8-6.4,8-6.4c6.9,8.3,24.9,8.8,24.9,8.8l-1.5,10c2.5-8.1,4.2-3.1,4.2-3.1
				C272.8,123.5,269.2,127.1,269.2,127.1z"/>
			<polygon class="st2" points="255.7,147.4 250.2,147.3 248.1,149.9 251.3,153.1 248.2,161.1 252.7,166 257.9,161.2 255,153 
				258.3,150 			"/>
		</g>
	</g>
	<g>
		<path class="st3" d="M118.6,64.3v3.2h3.1v-3.2h1.9v8.5h-1.9v-3.6h-3.1v3.6h-1.9v-8.5H118.6z"/>
		<path class="st3" d="M131.1,70.8c0,0.8,0,1.5,0,2h-1.7l-0.1-0.8l0,0c-0.2,0.4-0.8,1-1.9,1c-1.3,0-2.2-0.7-2.2-2.7v-3.6h1.9V70
			c0,0.9,0.3,1.5,0.9,1.5c0.5,0,0.8-0.3,0.9-0.6c0-0.1,0.1-0.3,0.1-0.4v-3.7h1.9v4H131.1z"/>
		<path class="st3" d="M132.6,68.6c0-0.7,0-1.5,0-2h1.6l0.1,0.8l0,0c0.3-0.4,0.8-0.9,1.9-0.9c0.8,0,1.5,0.4,1.7,1l0,0
			c0.2-0.3,0.5-0.5,0.8-0.7s0.7-0.3,1.2-0.3c1.2,0,2.1,0.8,2.1,2.6v3.7h-2v-3.3c0-0.9-0.3-1.4-0.9-1.4c-0.4,0-0.7,0.3-0.8,0.6
			c0,0.1-0.1,0.3-0.1,0.5v3.6h-1.9v-3.5c0-0.7-0.3-1.3-0.8-1.3s-0.7,0.4-0.9,0.7c-0.1,0.1-0.1,0.3-0.1,0.5v3.6h-1.9v-4.3l0,0
			L132.6,68.6L132.6,68.6z"/>
		<path class="st3" d="M146.8,72.8l-0.1-0.6l0,0c-0.4,0.5-1,0.7-1.8,0.7c-1.3,0-2-0.9-2-1.9c0-1.6,1.5-2.4,3.6-2.3v-0.1
			c0-0.3-0.2-0.8-1.2-0.8c-0.6,0-1.3,0.2-1.7,0.4l-0.3-1.3c0.4-0.2,1.3-0.5,2.4-0.5c2.1,0,2.7,1.3,2.7,2.6v2.1c0,0.6,0,1.2,0.1,1.5
			h-1.8v0.2L146.8,72.8L146.8,72.8z M146.6,69.9c-1,0-1.8,0.2-1.8,0.9c0,0.5,0.3,0.7,0.7,0.7c0.5,0,0.8-0.3,0.9-0.7
			c0-0.1,0-0.2,0-0.3v-0.6H146.6z"/>
		<path class="st3" d="M150,68.6c0-0.7,0-1.5,0-2h1.7l0.1,0.8l0,0c0.2-0.4,0.8-0.9,1.9-0.9c1.3,0,2.2,0.8,2.2,2.6v3.7H154v-3.5
			c0-0.8-0.3-1.4-0.9-1.4c-0.5,0-0.8,0.3-0.9,0.7c0,0.1-0.1,0.3-0.1,0.5v3.6h-1.9v-4.2H150V68.6z"/>
		<path class="st3" d="M159.9,68.7c0-0.9,0-1.5,0-2h1.7l0.1,1.2l0,0c0.3-0.9,1-1.3,1.7-1.3c0.2,0,0.3,0,0.4,0v1.8
			c-0.1,0-0.3,0-0.5,0c-0.7,0-1.2,0.4-1.3,0.9c0,0.1,0,0.3,0,0.4v3.1h-1.9v-4.2L159.9,68.7L159.9,68.7z"/>
		<path class="st3" d="M166.1,70.4c0.1,0.8,0.8,1.2,1.8,1.2c0.6,0,1.2-0.1,1.7-0.2l0.2,1.3c-0.6,0.2-1.4,0.4-2.2,0.4
			c-2.1,0-3.2-1.3-3.2-3.1c0-1.6,0.9-3.2,3.1-3.2c2,0,2.7,1.6,2.7,3c0,0.3,0,0.6-0.1,0.7h-4V70.4z M168.3,69c0-0.4-0.2-1.3-1-1.3
			s-1.2,0.7-1.2,1.3H168.3z"/>
		<path class="st3" d="M171.2,71.1c0.3,0.2,1,0.4,1.7,0.4c0.6,0,0.8-0.2,0.8-0.5s-0.2-0.4-0.9-0.7c-1.3-0.4-1.8-1.2-1.8-1.9
			c0-1.2,0.9-2,2.5-2c0.7,0,1.4,0.2,1.8,0.3l-0.3,1.4c-0.3-0.1-0.8-0.3-1.4-0.3c-0.4,0-0.7,0.2-0.7,0.5s0.2,0.4,0.9,0.7
			c1.2,0.4,1.7,0.9,1.7,1.9c0,1.2-0.9,2-2.6,2c-0.8,0-1.6-0.2-2-0.4L171.2,71.1z"/>
		<path class="st3" d="M182.7,69.7c0,2.2-1.6,3.2-3.2,3.2c-1.8,0-3.1-1.2-3.1-3.1c0-2,1.3-3.2,3.2-3.2
			C181.5,66.5,182.7,67.9,182.7,69.7z M178.2,69.8c0,1,0.4,1.9,1.3,1.9c0.7,0,1.3-0.7,1.3-1.9c0-0.9-0.3-1.9-1.3-1.9
			C178.6,67.9,178.2,68.8,178.2,69.8z"/>
		<path class="st3" d="M189.6,70.8c0,0.8,0,1.5,0,2h-1.7l-0.1-0.8l0,0c-0.2,0.4-0.8,1-1.9,1c-1.3,0-2.2-0.7-2.2-2.7v-3.6h1.9V70
			c0,0.9,0.3,1.5,0.9,1.5c0.5,0,0.8-0.3,0.9-0.6c0-0.1,0.1-0.3,0.1-0.4v-3.7h1.9v4H189.6z"/>
		<path class="st3" d="M191.2,68.7c0-0.9,0-1.5,0-2h1.7l0.1,1.2l0,0c0.3-0.9,1-1.3,1.7-1.3c0.2,0,0.3,0,0.4,0v1.8
			c-0.1,0-0.3,0-0.5,0c-0.7,0-1.2,0.4-1.3,0.9c0,0.1,0,0.3,0,0.4v3.1h-1.9v-4.2L191.2,68.7L191.2,68.7z"/>
		<path class="st3" d="M200.5,72.7c-0.3,0.1-0.9,0.3-1.7,0.3c-2,0-3.2-1.3-3.2-3.1c0-1.8,1.3-3.2,3.6-3.2c0.5,0,1,0.1,1.5,0.2
			l-0.3,1.5c-0.2-0.1-0.5-0.2-1-0.2c-1,0-1.7,0.7-1.7,1.7c0,1.2,0.7,1.7,1.7,1.7c0.4,0,0.8-0.1,1-0.2L200.5,72.7z"/>
		<path class="st3" d="M202.9,70.4c0.1,0.8,0.8,1.2,1.8,1.2c0.6,0,1.2-0.1,1.7-0.2l0.2,1.3c-0.6,0.2-1.4,0.4-2.2,0.4
			c-2.1,0-3.2-1.3-3.2-3.1c0-1.6,0.9-3.2,3.1-3.2c2,0,2.7,1.6,2.7,3c0,0.3,0,0.6-0.1,0.7h-4V70.4z M205.1,69c0-0.4-0.2-1.3-1-1.3
			s-1.2,0.7-1.2,1.3H205.1z"/>
		<path class="st3" d="M212.5,65c0,0.5-0.4,0.9-1,0.9s-1-0.4-0.9-0.9c0-0.5,0.4-0.9,1-0.9C212.1,64,212.5,64.4,212.5,65z
			 M210.5,72.8v-6.2h1.9v6.2H210.5z"/>
		<path class="st3" d="M214,68.6c0-0.7,0-1.5,0-2h1.7l0.1,0.8l0,0c0.2-0.4,0.8-0.9,1.9-0.9c1.3,0,2.2,0.8,2.2,2.6v3.7H218v-3.5
			c0-0.8-0.3-1.4-0.9-1.4c-0.5,0-0.8,0.3-0.9,0.7c0,0.1-0.1,0.3-0.1,0.5v3.6h-2v-4.1C214.1,68.6,214,68.6,214,68.6z"/>
		<path class="st3" d="M221.5,72.8v-4.7h-0.8v-1.4h0.8v-0.2c0-0.7,0.2-1.6,0.7-2.1c0.5-0.4,1.2-0.6,1.7-0.6c0.4,0,0.7,0,1,0.1
			l-0.1,1.5c-0.2,0-0.3-0.1-0.6-0.1c-0.6,0-0.9,0.5-0.9,1v0.3h1.3V68h-1.3v4.7h-1.8L221.5,72.8L221.5,72.8z"/>
		<path class="st3" d="M231.5,69.7c0,2.2-1.6,3.2-3.2,3.2c-1.8,0-3.1-1.2-3.1-3.1c0-2,1.3-3.2,3.2-3.2
			C230.3,66.5,231.5,67.9,231.5,69.7z M227.2,69.8c0,1,0.4,1.9,1.3,1.9c0.7,0,1.3-0.7,1.3-1.9c0-0.9-0.3-1.9-1.3-1.9
			S227.2,68.8,227.2,69.8z"/>
		<path class="st3" d="M232.7,68.7c0-0.9,0-1.5,0-2h1.7l0.1,1.2l0,0c0.3-0.9,1-1.3,1.7-1.3c0.2,0,0.3,0,0.4,0v1.8
			c-0.1,0-0.3,0-0.5,0c-0.7,0-1.2,0.4-1.3,0.9c0,0.1,0,0.3,0,0.4v3.1h-1.9v-4.2L232.7,68.7L232.7,68.7z"/>
		<path class="st3" d="M237.5,68.6c0-0.7,0-1.5,0-2h1.6l0.1,0.8l0,0c0.3-0.4,0.8-0.9,1.9-0.9c0.8,0,1.5,0.4,1.7,1l0,0
			c0.2-0.3,0.5-0.5,0.8-0.7s0.7-0.3,1.2-0.3c1.2,0,2.1,0.8,2.1,2.6v3.7H245v-3.3c0-0.9-0.3-1.4-0.9-1.4c-0.4,0-0.7,0.3-0.8,0.6
			c0,0.1-0.1,0.3-0.1,0.5v3.6h-1.9v-3.5c0-0.7-0.3-1.3-0.8-1.3s-0.7,0.4-0.9,0.7c-0.1,0.1-0.1,0.3-0.1,0.5v3.6h-1.9v-4.3h-0.1V68.6z
			"/>
		<path class="st3" d="M251.7,72.8l-0.1-0.6l0,0c-0.4,0.5-1,0.7-1.8,0.7c-1.3,0-2-0.9-2-1.9c0-1.6,1.5-2.4,3.6-2.3v-0.1
			c0-0.3-0.2-0.8-1.2-0.8c-0.6,0-1.3,0.2-1.7,0.4l-0.3-1.3c0.4-0.2,1.3-0.5,2.4-0.5c2.1,0,2.7,1.3,2.7,2.6v2.1c0,0.6,0,1.2,0.1,1.5
			h-1.8v0.2L251.7,72.8L251.7,72.8z M251.5,69.9c-1,0-1.8,0.2-1.8,0.9c0,0.5,0.3,0.7,0.7,0.7c0.5,0,0.8-0.3,0.9-0.7
			c0-0.1,0-0.2,0-0.3v-0.6H251.5z"/>
		<path class="st3" d="M257,65v1.8h1.4v1.4H257v2.2c0,0.7,0.2,1,0.7,1c0.2,0,0.4,0,0.5,0v1.5c-0.2,0.1-0.7,0.2-1.3,0.2
			c-0.6,0-1.2-0.2-1.5-0.5s-0.5-0.9-0.5-1.8v-2.5h-0.8v-1.4h0.8v-1.4L257,65z"/>
		<path class="st3" d="M261.3,65c0,0.5-0.4,0.9-1,0.9s-1-0.4-0.9-0.9c0-0.5,0.4-0.9,1-0.9C261,64,261.3,64.4,261.3,65z M259.5,72.8
			v-6.2h1.9v6.2H259.5z"/>
		<path class="st3" d="M268.9,69.7c0,2.2-1.6,3.2-3.2,3.2c-1.8,0-3.1-1.2-3.1-3.1c0-2,1.3-3.2,3.2-3.2
			C267.6,66.5,268.9,67.9,268.9,69.7z M264.5,69.8c0,1,0.4,1.9,1.3,1.9c0.7,0,1.3-0.7,1.3-1.9c0-0.9-0.3-1.9-1.3-1.9
			S264.5,68.8,264.5,69.8z"/>
		<path class="st3" d="M270.1,68.6c0-0.7,0-1.5,0-2h1.7l0.1,0.8l0,0c0.2-0.4,0.8-0.9,1.9-0.9c1.3,0,2.2,0.8,2.2,2.6v3.7h-1.9v-3.5
			c0-0.8-0.3-1.4-0.9-1.4c-0.5,0-0.8,0.3-0.9,0.7c0,0.1-0.1,0.3-0.1,0.5v3.6h-1.9v-4.2h-0.2L270.1,68.6L270.1,68.6z"/>
		<path class="st3" d="M283.5,72.8l-0.1-0.6l0,0c-0.4,0.5-1,0.7-1.8,0.7c-1.3,0-2-0.9-2-1.9c0-1.6,1.5-2.4,3.6-2.3v-0.1
			c0-0.3-0.2-0.8-1.2-0.8c-0.6,0-1.3,0.2-1.7,0.4l-0.3-1.3c0.4-0.2,1.3-0.5,2.4-0.5c2.1,0,2.7,1.3,2.7,2.6v2.1c0,0.6,0,1.2,0.1,1.5
			h-1.8L283.5,72.8L283.5,72.8z M283.2,69.9c-1,0-1.8,0.2-1.8,0.9c0,0.5,0.3,0.7,0.7,0.7c0.5,0,0.8-0.3,0.9-0.7c0-0.1,0-0.2,0-0.3
			v-0.6H283.2z"/>
		<path class="st3" d="M286.7,68.6c0-0.7,0-1.5,0-2h1.7l0.1,0.8l0,0c0.2-0.4,0.8-0.9,1.9-0.9c1.3,0,2.2,0.8,2.2,2.6v3.7h-1.9v-3.5
			c0-0.8-0.3-1.4-0.9-1.4c-0.5,0-0.8,0.3-0.9,0.7c0,0.1-0.1,0.3-0.1,0.5v3.6h-1.9v-4.2h-0.2L286.7,68.6L286.7,68.6z"/>
		<path class="st3" d="M299.9,63.9V71c0,0.7,0,1.5,0,1.9h-1.7l-0.1-0.9l0,0c-0.4,0.7-1.2,1-1.9,1c-1.5,0-2.6-1.3-2.6-3.1
			c0-2.1,1.3-3.2,2.7-3.2c0.7,0,1.4,0.3,1.6,0.7l0,0V64L299.9,63.9L299.9,63.9z M298.1,69.2c0-0.1,0-0.2,0-0.3
			c-0.1-0.5-0.5-0.9-1.2-0.9c-0.8,0-1.4,0.7-1.4,1.8c0,1,0.5,1.7,1.3,1.7c0.5,0,0.9-0.4,1.2-0.9c0-0.1,0-0.3,0-0.4v-0.8h0.1V69.2z"
			/>
		<path class="st3" d="M304,68.7c0-0.9,0-1.5,0-2h1.7l0.1,1.2l0,0c0.3-0.9,1-1.3,1.7-1.3c0.2,0,0.3,0,0.4,0v1.8c-0.1,0-0.3,0-0.5,0
			c-0.7,0-1.2,0.4-1.3,0.9c0,0.1,0,0.3,0,0.4v3.1h-1.9v-4.2L304,68.7L304,68.7z"/>
		<path class="st3" d="M310.1,70.4c0.1,0.8,0.8,1.2,1.8,1.2c0.6,0,1.2-0.1,1.7-0.2l0.2,1.3c-0.6,0.2-1.4,0.4-2.2,0.4
			c-2.1,0-3.2-1.3-3.2-3.1c0-1.6,0.9-3.2,3.1-3.2c2,0,2.7,1.6,2.7,3c0,0.3,0,0.6-0.1,0.7h-4V70.4z M312.4,69c0-0.4-0.2-1.3-1-1.3
			s-1.2,0.7-1.2,1.3H312.4z"/>
		<path class="st3" d="M319.9,72.7c-0.3,0.1-0.9,0.3-1.7,0.3c-2,0-3.2-1.3-3.2-3.1c0-1.8,1.3-3.2,3.6-3.2c0.5,0,1,0.1,1.5,0.2
			l-0.4,1.4c-0.2-0.1-0.5-0.2-1-0.2c-1,0-1.7,0.7-1.7,1.7c0,1.2,0.7,1.7,1.7,1.7c0.4,0,0.8-0.1,1-0.2L319.9,72.7z"/>
		<path class="st3" d="M326.8,69.7c0,2.2-1.6,3.2-3.2,3.2c-1.8,0-3.1-1.2-3.1-3.1c0-2,1.3-3.2,3.2-3.2
			C325.6,66.5,326.8,67.9,326.8,69.7z M322.4,69.8c0,1,0.4,1.9,1.3,1.9c0.7,0,1.3-0.7,1.3-1.9c0-0.9-0.3-1.9-1.3-1.9
			C322.7,67.9,322.4,68.8,322.4,69.8z"/>
		<path class="st3" d="M328.1,68.7c0-0.9,0-1.5,0-2h1.7l0.1,1.2l0,0c0.3-0.9,1-1.3,1.7-1.3c0.2,0,0.3,0,0.4,0v1.8
			c-0.1,0-0.3,0-0.5,0c-0.7,0-1.2,0.4-1.3,0.9c0,0.1,0,0.3,0,0.4v3.1h-1.9v-4.2L328.1,68.7L328.1,68.7z"/>
		<path class="st3" d="M338.6,63.9V71c0,0.7,0,1.5,0,1.9H337l-0.1-0.9l0,0c-0.4,0.7-1.2,1-1.9,1c-1.5,0-2.6-1.3-2.6-3.1
			c0-2.1,1.3-3.2,2.7-3.2c0.7,0,1.4,0.3,1.6,0.7l0,0V64h2v-0.1H338.6z M336.7,69.2c0-0.1,0-0.2,0-0.3c-0.1-0.5-0.5-0.9-1.2-0.9
			c-0.8,0-1.4,0.7-1.4,1.8c0,1,0.5,1.7,1.3,1.7c0.5,0,0.9-0.4,1.2-0.9c0-0.1,0-0.3,0-0.4v-0.8h0.1V69.2z"/>
		<path class="st3" d="M342.7,68.6c0-0.7,0-1.5,0-2h1.6l0.1,0.8l0,0c0.3-0.4,0.8-0.9,1.9-0.9c0.8,0,1.5,0.4,1.7,1l0,0
			c0.2-0.3,0.5-0.5,0.8-0.7s0.7-0.3,1.2-0.3c1.2,0,2.1,0.8,2.1,2.6v3.7h-1.9v-3.3c0-0.9-0.3-1.4-0.9-1.4c-0.4,0-0.7,0.3-0.8,0.6
			c0,0.1-0.1,0.3-0.1,0.5v3.6h-1.9v-3.5c0-0.7-0.3-1.3-0.8-1.3s-0.7,0.4-0.9,0.7c-0.1,0.1-0.1,0.3-0.1,0.5v3.6h-1.9v-4.3h-0.1
			L342.7,68.6L342.7,68.6z"/>
		<path class="st3" d="M357,72.8l-0.1-0.6l0,0c-0.4,0.5-1,0.7-1.8,0.7c-1.3,0-2-0.9-2-1.9c0-1.6,1.5-2.4,3.6-2.3v-0.1
			c0-0.3-0.2-0.8-1.2-0.8c-0.6,0-1.3,0.2-1.7,0.4l-0.3-1.3c0.4-0.2,1.3-0.5,2.4-0.5c2.1,0,2.7,1.3,2.7,2.6v2.1c0,0.6,0,1.2,0.1,1.5
			H357V72.8z M356.7,69.9c-1,0-1.8,0.2-1.8,0.9c0,0.5,0.3,0.7,0.7,0.7c0.5,0,0.8-0.3,0.9-0.7c0-0.1,0-0.2,0-0.3v-0.6H356.7z"/>
		<path class="st3" d="M360.2,68.6c0-0.7,0-1.5,0-2h1.7l0.1,0.8l0,0c0.2-0.4,0.8-0.9,1.9-0.9c1.3,0,2.2,0.8,2.2,2.6v3.7h-1.9v-3.5
			c0-0.8-0.3-1.4-0.9-1.4c-0.5,0-0.8,0.3-0.9,0.7c0,0.1-0.1,0.3-0.1,0.5v3.6h-1.9v-4.2h-0.2L360.2,68.6L360.2,68.6z"/>
		<path class="st3" d="M370.9,72.8l-0.1-0.6l0,0c-0.4,0.5-1,0.7-1.8,0.7c-1.3,0-2-0.9-2-1.9c0-1.6,1.5-2.4,3.6-2.3v-0.1
			c0-0.3-0.2-0.8-1.2-0.8c-0.6,0-1.3,0.2-1.7,0.4l-0.3-1.3c0.4-0.2,1.3-0.5,2.4-0.5c2.1,0,2.7,1.3,2.7,2.6v2.1c0,0.6,0,1.2,0.1,1.5
			h-1.8L370.9,72.8L370.9,72.8z M370.7,69.9c-1,0-1.8,0.2-1.8,0.9c0,0.5,0.3,0.7,0.7,0.7c0.5,0,0.8-0.3,0.9-0.7c0-0.1,0-0.2,0-0.3
			v-0.6H370.7z"/>
		<path class="st3" d="M379.9,66.6c0,0.4,0,0.9,0,1.8v3.5c0,1.2-0.2,2.2-0.9,2.7c-0.6,0.6-1.6,0.7-2.5,0.7c-0.8,0-1.7-0.2-2.2-0.5
			l0.4-1.5c0.4,0.2,1,0.4,1.8,0.4c0.9,0,1.6-0.5,1.6-1.6v-0.4l0,0c-0.3,0.5-0.9,0.8-1.7,0.8c-1.6,0-2.6-1.3-2.6-3
			c0-2,1.3-3.2,2.8-3.2c0.8,0,1.4,0.3,1.7,0.8l0,0l0.1-0.7h1.6L379.9,66.6L379.9,66.6z M378.1,69.1c0-0.1,0-0.2,0-0.3
			c-0.1-0.5-0.5-0.8-1-0.8c-0.7,0-1.3,0.6-1.3,1.8c0,0.9,0.4,1.7,1.3,1.7c0.5,0,0.8-0.3,1-0.7c0-0.1,0.1-0.3,0.1-0.5v-1h-0.1V69.1z"
			/>
		<path class="st3" d="M383,70.4c0.1,0.8,0.8,1.2,1.8,1.2c0.6,0,1.2-0.1,1.7-0.2l0.2,1.3c-0.6,0.2-1.4,0.4-2.2,0.4
			c-2.1,0-3.2-1.3-3.2-3.1c0-1.6,0.9-3.2,3.1-3.2c2,0,2.7,1.6,2.7,3c0,0.3,0,0.6-0.1,0.7h-4V70.4z M385.2,69c0-0.4-0.2-1.3-1-1.3
			S383,68.4,383,69H385.2z"/>
		<path class="st3" d="M388.1,68.6c0-0.7,0-1.5,0-2h1.6l0.1,0.8l0,0c0.3-0.4,0.8-0.9,1.9-0.9c0.8,0,1.5,0.4,1.7,1l0,0
			c0.2-0.3,0.5-0.5,0.8-0.7s0.7-0.3,1.2-0.3c1.2,0,2.1,0.8,2.1,2.6v3.7h-1.9v-3.3c0-0.9-0.3-1.4-0.9-1.4c-0.4,0-0.7,0.3-0.8,0.6
			c0,0.1-0.1,0.3-0.1,0.5v3.6h-1.9v-3.5c0-0.7-0.3-1.3-0.8-1.3s-0.7,0.4-0.9,0.7c-0.1,0.1-0.1,0.3-0.1,0.5v3.6H388v-4.3h0.1V68.6z"
			/>
		<path class="st3" d="M400.3,70.4c0.1,0.8,0.8,1.2,1.8,1.2c0.6,0,1.2-0.1,1.7-0.2l0.2,1.3c-0.6,0.2-1.4,0.4-2.2,0.4
			c-2.1,0-3.2-1.3-3.2-3.1c0-1.6,0.9-3.2,3.1-3.2c2,0,2.7,1.6,2.7,3c0,0.3,0,0.6-0.1,0.7h-4V70.4z M402.6,69c0-0.4-0.2-1.3-1-1.3
			s-1.2,0.7-1.2,1.3H402.6z"/>
		<path class="st3" d="M405.4,68.6c0-0.7,0-1.5,0-2h1.7l0.1,0.8l0,0c0.2-0.4,0.8-0.9,1.9-0.9c1.3,0,2.2,0.8,2.2,2.6v3.7h-1.9v-3.5
			c0-0.8-0.3-1.4-0.9-1.4c-0.5,0-0.8,0.3-0.9,0.7c0,0.1-0.1,0.3-0.1,0.5v3.6h-1.9v-4.2h-0.2L405.4,68.6L405.4,68.6z"/>
		<path class="st3" d="M414.9,65v1.8h1.4v1.4h-1.4v2.2c0,0.7,0.2,1,0.7,1c0.2,0,0.4,0,0.5,0v1.5c-0.2,0.1-0.7,0.2-1.3,0.2
			c-0.6,0-1.2-0.2-1.5-0.5s-0.5-0.9-0.5-1.8v-2.5H412v-1.4h0.8v-1.4L414.9,65z"/>
	</g>
</g>
<g id="word">
	<path class="st2" d="M182.7,244.7v21.6h22.9v-21.6h13.9v56.4h-13.9v-23.6h-22.9v23.6h-13.9v-56.4L182.7,244.7L182.7,244.7z"/>
	<path class="st2" d="M231.5,245.4c4.5-0.6,11.1-1.2,18.5-1.2c9.1,0,15.5,1.3,19.9,4.4c3.7,2.7,5.6,6.6,5.6,11.8
		c0,7.2-5.5,12.1-10.9,13.9v0.2c4.3,1.6,6.7,5.3,8.2,10.6c1.9,6.4,3.9,13.7,5,15.9h-14.2c-1-1.6-2.5-6.2-4.3-13.2
		c-1.7-7-4.3-9-9.9-9h-4.2V301h-13.8L231.5,245.4L231.5,245.4z M245.4,269.7h5.4c6.9,0,11.1-3.1,11.1-8.2c0-5.2-3.9-7.7-10.2-7.8
		c-3.3,0-5.3,0.2-6.3,0.4V269.7z"/>
	<path class="st2" d="M299.6,244.7v56.4h-13.9v-56.4L299.6,244.7L299.6,244.7z"/>
	<path class="st2" d="M312.2,288c3.8,1.8,9.5,3.6,15.4,3.6c6.4,0,9.7-2.4,9.7-6.1c0-3.6-2.9-5.5-10.4-7.9
		c-10.2-3.2-16.8-8.5-16.8-16.6c0-9.6,8.8-16.9,23.2-16.9c6.9,0,12,1.4,15.7,2.8l-3.1,10.2c-2.5-1-6.8-2.7-12.9-2.7
		s-8.9,2.5-8.9,5.4c0,3.6,3.5,5.2,11.4,7.9c10.9,3.7,16,8.9,16,16.8c0,9.4-7.9,17.5-24.8,17.5c-7,0-13.9-1.7-17.5-3.5L312.2,288z"/>
</g>
</svg>
