<?xml version="1.0" encoding="utf-8"?>
<!-- Generator: Adobe Illustrator 24.2.1, SVG Export Plug-In . SVG Version: 6.00 Build 0)  -->
<svg version="1.1" id="Layer_1" xmlns="http://www.w3.org/2000/svg" xmlns:xlink="http://www.w3.org/1999/xlink" x="0px" y="0px"
	 viewBox="0 0 250 100" style="enable-background:new 0 0 250 100;" xml:space="preserve">
<style type="text/css">
	.st0{fill:none;stroke:#269DC1;stroke-width:13;stroke-miterlimit:10;}
	.st1{fill:#FFFFFF;}
	.st2{fill:#269DC1;}
	.st3{fill:#269DC1;stroke:#FFFFFF;stroke-width:2;stroke-miterlimit:10;}
	.st4{fill:#FFFFFF;stroke:#FFFFFF;stroke-width:2;stroke-miterlimit:10;}
</style>
<circle class="st0" cx="127" cy="50.2" r="41.2"/>
<rect x="79.4" y="40.9" class="st1" width="13.8" height="7.2"/>
<rect x="160.8" y="38.5" class="st1" width="13.8" height="7.1"/>
<g>
	<path class="st2" d="M84.4,42.9l-5.7-13.9c-0.2-0.6,0-1.2,0.6-1.5l0.9-0.4c0.6-0.2,1.2,0,1.5,0.6l5.7,13.9c0.2,0.6,0,1.2-0.6,1.5
		l-0.9,0.4C85.3,43.7,84.6,43.4,84.4,42.9z"/>
	<path class="st2" d="M84.5,40.5l13.9-5.7c0.6-0.2,1.2,0,1.5,0.6l0.4,0.9c0.2,0.6,0,1.2-0.6,1.5l-13.9,5.7c-0.6,0.2-1.2,0-1.5-0.6
		l-0.4-0.9C83.7,41.4,84,40.7,84.5,40.5z"/>
</g>
<g>
	<path class="st2" d="M169.5,43.2l9.8,11.5c0.4,0.5,0.3,1.2-0.1,1.6l-0.7,0.6c-0.5,0.4-1.2,0.3-1.6-0.1L167,45.3
		c-0.4-0.5-0.3-1.2,0.1-1.6l0.7-0.6C168.4,42.7,169.1,42.8,169.5,43.2z"/>
	<path class="st2" d="M170,45.5l-11.5,9.8c-0.5,0.4-1.2,0.3-1.6-0.1l-0.6-0.7c-0.4-0.5-0.3-1.2,0.1-1.6l11.5-9.8
		c0.5-0.4,1.2-0.3,1.6,0.1l0.6,0.7C170.6,44.4,170.5,45.2,170,45.5z"/>
</g>
<g>
	<path class="st3" d="M167.4,65l0.8-2c0.5-1.3,2.4-0.9,2.4,0.5v2.1c0,1.1,1.4,1.7,2.1,0.9l1.5-1.5c1-1,2.6,0.1,2.1,1.4l-0.8,2
		c-0.4,1,0.6,2.1,1.6,1.6l2-0.8c1.3-0.5,2.3,1.1,1.4,2.1l-1.5,1.5c-0.8,0.8-0.2,2.1,0.9,2.1h2.1c1.4,0,1.8,1.9,0.5,2.4l-2,0.8
		c-1,0.4-1,1.9,0,2.3l2,0.8c1.3,0.5,0.9,2.4-0.5,2.4h-2.1c-1.1,0-1.7,1.4-0.9,2.1l1.5,1.5c1,1-0.1,2.6-1.4,2.1l-2-0.8
		c-1-0.4-2.1,0.6-1.6,1.6l0.8,2c0.5,1.3-1.1,2.3-2.1,1.4l-1.5-1.5c-0.8-0.8-2.1-0.2-2.1,0.9v2.1c0,1.4-1.9,1.8-2.4,0.5l-0.8-2
		c-0.4-1-1.9-1-2.3,0l-0.8,2c-0.5,1.3-2.4,0.9-2.4-0.5v-2.1c0-1.1-1.4-1.7-2.1-0.9l-1.5,1.5c-1,1-2.6-0.1-2.1-1.4l0.8-2
		c0.4-1-0.6-2.1-1.6-1.6l-2,0.8c-1.3,0.5-2.3-1.1-1.4-2.1l1.5-1.5c0.8-0.8,0.2-2.1-0.9-2.1h-2.1c-1.4,0-1.8-1.9-0.5-2.4l2-0.8
		c1-0.4,1-1.9,0-2.3l-2-0.8c-1.3-0.5-0.9-2.4,0.5-2.4h2.1c1.1,0,1.7-1.4,0.9-2.1l-1.5-1.5c-1-1,0.1-2.6,1.4-2.1l2,0.8
		c1,0.4,2.1-0.6,1.6-1.6l-0.8-2c-0.5-1.3,1.1-2.3,2.1-1.4l1.5,1.5c0.8,0.8,2.1,0.2,2.1-0.9v-2.1c0-1.4,1.9-1.8,2.4-0.5l0.8,2
		C165.5,66,166.9,66,167.4,65z"/>
	<ellipse class="st4" cx="166.2" cy="79.1" rx="6.9" ry="6.7"/>
</g>
<g>
	<g>
		<path class="st2" d="M111,46.9H98c-0.6,0-1-0.4-1-1V45c0-0.6,0.4-1,1-1h13c0.6,0,1,0.4,1,1v0.9C112,46.5,111.5,46.9,111,46.9z"/>
		<path class="st2" d="M97.8,47.8c-0.1,0.2-0.1,0.3-0.1,0.5v6c0,1.6,2,2.9,4.4,2.9h4.9c2.4,0,4.4-1.3,4.4-2.9v-6
			c0-0.2,0-0.4-0.1-0.5H97.8z"/>
	</g>
	<g>
		<path class="st2" d="M98,67.6h13c0.6,0,1,0.4,1,1v0.9c0,0.6-0.4,1-1,1H98c-0.6,0-1-0.4-1-1v-0.9C97,68,97.4,67.6,98,67.6z"/>
		<path class="st2" d="M111.1,66.7c0.1-0.2,0.1-0.3,0.1-0.5v-6c0-1.6-2-2.9-4.4-2.9h-4.9c-2.4,0-4.4,1.3-4.4,2.9v6
			c0,0.2,0,0.4,0.1,0.5H111.1z"/>
	</g>
</g>
</svg>
