<?xml version="1.0" encoding="utf-8"?>
<!-- Generator: Adobe Illustrator 24.2.1, SVG Export Plug-In . SVG Version: 6.00 Build 0)  -->
<svg version="1.1" id="Layer_1" xmlns="http://www.w3.org/2000/svg" xmlns:xlink="http://www.w3.org/1999/xlink" x="0px" y="0px"
	 viewBox="0 0 250 100" style="enable-background:new 0 0 250 100;" xml:space="preserve">
<style type="text/css">
	.st0{fill:#FFFFFF;stroke:#269DC1;stroke-width:4;stroke-miterlimit:10;}
	.st1{fill:#D1D3D4;}
	.st2{fill:#269DC1;}
</style>
<path class="st0" d="M92.7,94.8H48.8c-2.7,0-4.8-2.2-4.8-4.8V10.9c0-1.8,1.5-3.2,3.2-3.2h45.5c2.7,0,4.8,2.2,4.8,4.8v77.5
	C97.6,92.6,95.4,94.8,92.7,94.8z"/>
<g>
	<rect x="49.1" y="20.3" class="st1" width="41.8" height="4.2"/>
	<rect x="49.1" y="28.5" class="st1" width="41.8" height="4.2"/>
	<rect x="49.1" y="36.7" class="st1" width="23.1" height="4.2"/>
	<rect x="49.1" y="44.8" class="st1" width="23.1" height="4.2"/>
	<rect x="49.1" y="53" class="st1" width="41.8" height="4.2"/>
	<rect x="49.1" y="61.1" class="st1" width="41.8" height="4.2"/>
	<rect x="49.1" y="69.3" class="st1" width="41.8" height="4.2"/>
	<rect x="49.1" y="77.5" class="st1" width="31" height="4.2"/>
</g>
<path class="st0" d="M200.8,94.8h-43.9c-2.7,0-4.8-2.2-4.8-4.8V10.9c0-1.8,1.5-3.2,3.2-3.2h45.5c2.7,0,4.8,2.2,4.8,4.8v77.5
	C205.7,92.6,203.5,94.8,200.8,94.8z"/>
<g>
	<rect x="157.2" y="20.3" class="st1" width="41.8" height="4.2"/>
	<rect x="157.2" y="28.5" class="st1" width="41.8" height="4.2"/>
	<rect x="157.2" y="36.7" class="st1" width="23.1" height="4.2"/>
	<rect x="157.2" y="44.8" class="st1" width="23.1" height="4.2"/>
	<rect x="157.2" y="53" class="st1" width="41.8" height="4.2"/>
	<rect x="157.2" y="61.1" class="st1" width="41.8" height="4.2"/>
	<rect x="157.2" y="69.3" class="st1" width="41.8" height="4.2"/>
	<rect x="157.2" y="77.5" class="st1" width="31" height="4.2"/>
</g>
<g id="arrow1_1_">
	<polygon class="st2" points="142.8,37.5 135.3,47.2 135.3,27.7 	"/>
	<polygon class="st2" points="136.7,41.4 108.3,41.3 108.3,33.3 136.7,33.4 	"/>
</g>
<g id="arrow1_2_">
	<polygon class="st2" points="108.3,63.6 115.8,53.8 115.8,73.3 	"/>
	<polygon class="st2" points="114.4,59.6 142.8,59.8 142.7,67.7 114.4,67.6 	"/>
</g>
</svg>
