<?xml version="1.0" encoding="utf-8"?>
<!-- Generator: Adobe Illustrator 24.2.1, SVG Export Plug-In . SVG Version: 6.00 Build 0)  -->
<svg version="1.1" id="Layer_1" xmlns="http://www.w3.org/2000/svg" xmlns:xlink="http://www.w3.org/1999/xlink" x="0px" y="0px"
	 viewBox="0 0 200 100" style="enable-background:new 0 0 200 100;" xml:space="preserve">
<style type="text/css">
	.st0{fill:#FFFFFF;stroke:#279DC1;stroke-width:6;stroke-miterlimit:10;}
	.st1{fill:#FFFFFF;stroke:#279DC1;stroke-width:16;stroke-miterlimit:10;}
	.st2{fill:#FFFFFF;}
	.st3{fill:#249DC1;}
	.st4{fill:#279DC1;}
</style>
<path class="st0" d="M153.6,77.6H33c-2.2,0-4-1.8-4-4V12c0-2.2,1.8-4,4-4h120.6c2.2,0,4,1.8,4,4v61.5
	C157.6,75.8,155.8,77.6,153.6,77.6z"/>
<circle class="st1" cx="138.7" cy="57.9" r="31.1"/>
<rect x="94.1" y="52.4" class="st2" width="27.2" height="9.3"/>
<g>
	<path class="st3" d="M85.4,16.6H37.6c-1,0-1.8,0.8-1.8,1.8s0.8,1.8,1.8,1.8h47.8c1,0,1.8-0.8,1.8-1.8S86.4,16.6,85.4,16.6z"/>
	<path class="st3" d="M97.9,20.3h47.8c1,0,1.8-0.8,1.8-1.8s-0.8-1.8-1.8-1.8H97.9c-1,0-1.8,0.8-1.8,1.8S96.8,20.3,97.9,20.3z"/>
	<path class="st3" d="M85.4,24.5H37.6c-1,0-1.8,0.8-1.8,1.8c0,1,0.8,1.8,1.8,1.8h47.8c1,0,1.8-0.8,1.8-1.8
		C87.2,25.3,86.4,24.5,85.4,24.5z"/>
	<path class="st3" d="M145.7,24.5H97.9c-1,0-1.8,0.8-1.8,1.8c0,1,0.8,1.8,1.8,1.8h47.8c1,0,1.8-0.8,1.8-1.8
		C147.5,25.3,146.7,24.5,145.7,24.5z"/>
	<path class="st3" d="M85.4,33.5H37.6c-1,0-1.8,0.8-1.8,1.8c0,1,0.8,1.8,1.8,1.8h47.8c1,0,1.8-0.8,1.8-1.8
		C87.2,34.3,86.4,33.5,85.4,33.5z"/>
	<path class="st3" d="M145.7,33.5H97.9c-1,0-1.8,0.8-1.8,1.8c0,1,0.8,1.8,1.8,1.8h47.8c1,0,1.8-0.8,1.8-1.8
		C147.5,34.3,146.7,33.5,145.7,33.5z"/>
	<path class="st3" d="M85.4,42.5H37.6c-1,0-1.8,0.8-1.8,1.8s0.8,1.8,1.8,1.8h47.8c1,0,1.8-0.8,1.8-1.8S86.4,42.5,85.4,42.5z"/>
	<path class="st3" d="M85.4,51.6H37.6c-1,0-1.8,0.8-1.8,1.8s0.8,1.8,1.8,1.8h47.8c1,0,1.8-0.8,1.8-1.8S86.4,51.6,85.4,51.6z"/>
	<path class="st3" d="M85.4,60.6H37.6c-1,0-1.8,0.8-1.8,1.8c0,1,0.8,1.8,1.8,1.8h47.8c1,0,1.8-0.8,1.8-1.8
		C87.2,61.4,86.4,60.6,85.4,60.6z"/>
</g>
<circle class="st2" cx="138.7" cy="58.5" r="29.1"/>
<g>
	<path class="st4" d="M99.1,40.9l5.1,12.3c0.4,0.9,0,1.9-0.8,2.4l0,0c-0.8,0.5-1.7,0.2-2.1-0.7l-5.1-12.3c-0.4-0.9,0-1.9,0.8-2.4
		l0,0C97.8,39.7,98.7,40,99.1,40.9z"/>
	<path class="st4" d="M115.1,49l-11.3,6.8c-0.8,0.5-1.7,0.2-2.1-0.7l0,0c-0.4-0.9,0-1.9,0.8-2.4l11.2-6.8c0.8-0.5,1.7-0.2,2.1,0.7
		l0,0C116.2,47.4,115.9,48.5,115.1,49z"/>
</g>
</svg>
