<?xml version="1.0" encoding="utf-8"?>
<!-- Generator: Adobe Illustrator 24.2.1, SVG Export Plug-In . SVG Version: 6.00 Build 0)  -->
<svg version="1.1" id="Layer_1" xmlns="http://www.w3.org/2000/svg" xmlns:xlink="http://www.w3.org/1999/xlink" x="0px" y="0px"
	 viewBox="0 0 500 300" style="enable-background:new 0 0 500 300;" xml:space="preserve">
<style type="text/css">
	.st0{fill:#1EA2D6;}
	.st1{fill:#A3C7D3;}
</style>
<g>
	<polygon class="st0" points="47.4,30.2 30.3,14.9 31.3,31.7 	"/>
	<path class="st0" d="M56.7,10.8c-9.2,0-17.3,4.1-22.8,10.5l3.7,8.9C41.3,23.5,48.5,19,56.7,19c12.1,0,21.8,9.8,21.8,21.8
		c0,12-9.8,21.8-21.8,21.8s-21.8-9.8-21.8-21.8c0,0,0-0.1,0-0.1h-8.2c0,0,0,0.1,0,0.1c0,16.5,13.4,30,30,30c16.6,0,30-13.4,30-30
		S73.3,10.8,56.7,10.8z"/>
</g>
<rect x="19.8" y="76.7" class="st1" width="468" height="24.9"/>
<g>
	<rect x="336.5" y="118.2" class="st1" width="151.9" height="11.5"/>
	<rect x="176.5" y="118.2" class="st1" width="152.9" height="11.5"/>
	<rect x="20" y="118.2" class="st1" width="149.4" height="11.5"/>
</g>
<g>
	<rect x="336.5" y="148.2" class="st1" width="151.9" height="11.5"/>
	<rect x="176.5" y="148.2" class="st1" width="152.9" height="11.5"/>
	<rect x="20" y="148.2" class="st1" width="149.4" height="11.5"/>
</g>
<g>
	<rect x="336.5" y="178.2" class="st1" width="151.9" height="11.5"/>
	<rect x="176.5" y="178.2" class="st1" width="152.9" height="11.5"/>
	<rect x="20" y="178.2" class="st1" width="149.4" height="11.5"/>
</g>
<g>
	<rect x="336.5" y="208.2" class="st1" width="151.9" height="11.5"/>
	<rect x="176.5" y="208.2" class="st1" width="152.9" height="11.5"/>
	<rect x="20" y="208.2" class="st1" width="149.4" height="11.5"/>
</g>
</svg>
