<?xml version="1.0" encoding="utf-8"?>
<!-- Generator: Adobe Illustrator 24.2.1, SVG Export Plug-In . SVG Version: 6.00 Build 0)  -->
<svg version="1.1" id="Layer_1" xmlns="http://www.w3.org/2000/svg" xmlns:xlink="http://www.w3.org/1999/xlink" x="0px" y="0px"
	 viewBox="0 0 250 100" style="enable-background:new 0 0 250 100;" xml:space="preserve">
<style type="text/css">
	.st0{fill:#FFFFFF;stroke:#279DC1;stroke-width:7;stroke-miterlimit:10;}
	.st1{fill:#249DC1;}
	.st2{fill:#249DC1;stroke:#F9F9FA;stroke-width:8;stroke-miterlimit:10;}
</style>
<path class="st0" d="M178,80H76.2c-2.1,0-3.9-1.7-3.9-3.9V11.4c0-2.1,1.7-3.9,3.9-3.9H178c2.1,0,3.9,1.7,3.9,3.9v64.7
	C181.8,78.3,180.1,80,178,80z"/>
<g>
	<path class="st1" d="M137,22.1H82.1c-1.1,0-2-0.9-2-2l0,0c0-1.1,0.9-2,2-2H137c1.1,0,2,0.9,2,2l0,0C139,21.2,138.1,22.1,137,22.1z"
		/>
	<path class="st1" d="M137,33.1H82.1c-1.1,0-2-0.9-2-2l0,0c0-1.1,0.9-2,2-2H137c1.1,0,2,0.9,2,2l0,0C139,32.2,138.1,33.1,137,33.1z"
		/>
	<path class="st1" d="M118.2,44.2h-36c-1.1,0-2-0.9-2-2l0,0c0-1.1,0.9-2,2-2h36c1.1,0,2,0.9,2,2l0,0
		C120.2,43.3,119.3,44.2,118.2,44.2z"/>
	<path class="st1" d="M137,55.3H82.1c-1.1,0-2-0.9-2-2l0,0c0-1.1,0.9-2,2-2H137c1.1,0,2,0.9,2,2l0,0C139,54.4,138.1,55.3,137,55.3z"
		/>
	<path class="st1" d="M149.4,66.3H82.1c-1.1,0-2-0.9-2-2l0,0c0-1.1,0.9-2,2-2h67.2c1.1,0,2,0.9,2,2l0,0
		C151.5,65.4,150.5,66.3,149.4,66.3z"/>
</g>
<g>
	<path class="st2" d="M171.4,60.2l-4.6-4.6c-0.9-0.9-0.9-2.4,0-3.3l30.4-30c0.9-0.9,2.4-0.9,3.3,0l4.6,4.6c0.9,0.9,0.9,2.4,0,3.3
		l-30.4,30C173.8,61.2,172.3,61.1,171.4,60.2z"/>
	<path class="st2" d="M206,26l-4.4-4.5c-1-1-0.9-2.5,0-3.5l2.7-2.7c1-1,2.5-0.9,3.5,0l4.4,4.5c1,1,0.9,2.5,0,3.5l-2.7,2.7
		C208.5,27,206.9,27,206,26z"/>
</g>
<path class="st1" d="M138.7,79.6c0,0,11.4,13.3,10.9,16.9c-0.5,3.6,18.3-9.1,10.2-16.7L138.7,79.6z"/>
</svg>
