<?xml version="1.0" encoding="utf-8"?>
<!-- Generator: Adobe Illustrator 26.5.0, SVG Export Plug-In . SVG Version: 6.00 Build 0)  -->
<svg version="1.1" xmlns="http://www.w3.org/2000/svg" xmlns:xlink="http://www.w3.org/1999/xlink" x="0px" y="0px"
	 viewBox="0 0 500 500" style="enable-background:new 0 0 500 500;" xml:space="preserve">
<style type="text/css">
	.st0{fill:#FAFAFA;}
	.st1{fill:#E0E0E0;}
	.st2{fill:#F0F0F0;}
	.st3{fill:#E6E6E6;}
	.st4{fill:#EBEBEB;}
	.st5{fill:#F5F5F5;}
	.st6{opacity:0.5;fill:#E0E0E0;}
	.st7{fill:#263238;}
	.st8{fill:#37474F;}
	.st9{fill:#455A64;}
	.st10{fill:#27DEBF;}
	.st11{opacity:0.2;}
	.st12{opacity:0.4;}
	.st13{fill:#FFFFFF;}
	.st14{opacity:0.1;}
	.st15{opacity:0.5;fill:#455A64;}
	.st16{opacity:0.5;fill:#263238;}
	.st17{opacity:0.3;}
	.st18{opacity:0.1;fill:#FFFFFF;}
	.st19{opacity:0.15;}
	.st20{opacity:0.4;fill:#FFFFFF;}
	.st21{fill:#56EDD0;}

	#dot1 {
		animation: blinker .6s ease-in-out .2s infinite alternate;
	}
	#dot2 {
		animation: blinker .6s ease-in-out .4s infinite alternate;
	}
	#dot3 {
		animation: blinker .6s ease-in-out .6s infinite alternate;
	}
	#dot4 {
		animation: blinker .6s ease-in-out .8s infinite alternate;
	}

	#arrowUp {
		animation: up 1s ease-in-out infinite;
	}

	#arrowDown {
		animation: down 1s ease-in-out .2s infinite;
	}

	@keyframes blinker {
		from {
			opacity:0;
		}
		to {
			opacity:1;
		}
	}

	@keyframes up {
		from {
			transform:translate(0px,0px);
			opacity:1;
		}
		to {
			transform:translate(0,-10px);
			opacity:0;
		}
	}
		@keyframes down {
		from {
			transform:translate(0px,0px);
			opacity:1;
		}
		to {
			transform:translate(0,10px);
			opacity:0;
		}
	}
</style>
<g id="Floor">
	<ellipse id="Floor_7_" class="st0" cx="249.05" cy="347.57" rx="189.51" ry="99.06"/>
</g>
<g id="Shadow_3_">
	<path id="Shadow_6_" class="st1" d="M251.35,370.44c-4.45,0-8.95-0.19-13.4-0.56c-35.09-2.94-66.43-17.11-81.79-36.97l-0.61-0.79
		l14.2-10.98l0.61,0.79c14.14,18.28,46.72,30.56,81.07,30.56c0,0,0,0,0.01,0c3.21,0,6.44-0.11,9.6-0.33
		c21.37-1.5,39.85-7.92,50.92-17.67l-10.02-10.86l35.45-2.02l-3.12,37.06l-10.14-10.99c-14.16,12.64-36.07,20.58-61.84,22.39
		C258.69,370.31,255.01,370.44,251.35,370.44z"/>
</g>
<g id="Boxes_2_">
	<g id="Boxes">
		<g id="XMLID_8132_">
			<polygon id="XMLID_8192_" class="st2" points="209.54,277.33 209.54,262.99 228.17,252.23 228.17,266.57 			"/>
			<polygon id="XMLID_8191_" class="st3" points="209.54,262.99 186.26,249.54 186.26,263.88 209.54,277.33 			"/>
			<polygon id="XMLID_8190_" class="st0" points="209.54,262.99 228.72,251.91 204.88,238.14 185.7,249.22 			"/>
			<polygon id="XMLID_8189_" class="st2" points="209.54,262.99 209.54,266.57 228.72,255.5 228.72,251.91 			"/>
			<polygon id="XMLID_8188_" class="st3" points="209.54,266.57 228.17,255.82 228.17,256.61 209.54,267.36 			"/>
			<polygon id="XMLID_8187_" class="st3" points="185.7,249.22 209.54,262.99 209.54,266.57 185.7,252.81 			"/>
			<polygon id="XMLID_8186_" class="st1" points="209.54,266.57 186.26,253.13 186.26,253.92 209.54,267.36 			"/>
			<path id="XMLID_8185_" class="st4" d="M215.67,265.17l6.36-3.67c0.27-0.16,0.5-0.03,0.5,0.29v3.76c0,0.32-0.22,0.7-0.5,0.86
				l-6.36,3.67c-0.27,0.16-0.5,0.03-0.5-0.29v-3.76C215.18,265.71,215.4,265.33,215.67,265.17z"/>
			<path id="XMLID_8150_" class="st0" d="M216.08,265.59l5.55-3.2c0.18-0.11,0.33-0.02,0.33,0.19v2.82c0,0.21-0.15,0.47-0.33,0.57
				l-5.55,3.2c-0.18,0.11-0.33,0.02-0.33-0.19l0-2.82C215.75,265.96,215.9,265.7,216.08,265.59z"/>
		</g>
		<g id="XMLID_14642_">
			<polygon id="XMLID_14429_" class="st2" points="209.54,261.19 209.54,246.85 228.17,236.09 228.17,250.43 			"/>
			<polygon id="XMLID_14432_" class="st3" points="209.54,246.85 186.26,233.4 186.26,247.74 209.54,261.19 			"/>
			<polygon id="XMLID_14436_" class="st5" points="209.54,246.85 228.72,235.77 204.88,222 185.7,233.08 			"/>
			<polygon id="XMLID_14439_" class="st2" points="209.54,246.85 209.54,250.43 228.72,239.36 228.72,235.77 			"/>
			<polygon id="XMLID_14443_" class="st3" points="209.54,250.43 228.17,239.68 228.17,240.46 209.54,251.22 			"/>
			<polygon id="XMLID_14446_" class="st3" points="185.7,233.08 209.54,246.85 209.54,250.43 185.7,236.67 			"/>
			<polygon id="XMLID_14448_" class="st1" points="209.54,250.43 186.26,236.99 186.26,237.78 209.54,251.22 			"/>
			<path id="XMLID_14641_" class="st4" d="M215.67,249.03l6.36-3.67c0.27-0.16,0.5-0.03,0.5,0.29v3.76c0,0.32-0.22,0.7-0.5,0.86
				l-6.36,3.67c-0.27,0.16-0.5,0.03-0.5-0.29v-3.76C215.18,249.57,215.4,249.18,215.67,249.03z"/>
			<path id="XMLID_14638_" class="st0" d="M216.08,249.45l5.55-3.2c0.18-0.11,0.33-0.02,0.33,0.19v2.82c0,0.21-0.15,0.47-0.33,0.57
				l-5.55,3.2c-0.18,0.11-0.33,0.02-0.33-0.19l0-2.82C215.75,249.81,215.9,249.56,216.08,249.45z"/>
		</g>
		<polygon id="XMLID_15310_" class="st1" points="227.17,251.01 209.54,261.19 187.26,248.32 186.72,248.64 209.54,261.77 
			227.71,251.33 		"/>
		<polygon id="XMLID_15311_" class="st6" points="227.17,251.01 209.54,261.19 187.26,248.32 186.72,248.64 209.54,261.77 
			227.71,251.33 		"/>
	</g>
	<g id="Boxes_1_">
		<g id="XMLID_8243_">
			<polygon id="XMLID_8278_" class="st2" points="290.46,277.33 290.46,262.99 271.83,252.23 271.83,266.57 			"/>
			<polygon id="XMLID_8277_" class="st3" points="290.46,262.99 313.74,249.54 313.74,263.88 290.46,277.33 			"/>
			<polygon id="XMLID_8276_" class="st0" points="290.46,262.99 271.28,251.91 295.12,238.14 314.3,249.22 			"/>
			<polygon id="XMLID_8275_" class="st2" points="290.46,262.99 290.46,266.57 271.28,255.5 271.28,251.91 			"/>
			<polygon id="XMLID_8274_" class="st3" points="290.46,266.57 271.83,255.82 271.83,256.61 290.46,267.36 			"/>
			<polygon id="XMLID_8273_" class="st3" points="314.3,249.22 290.46,262.99 290.46,266.57 314.3,252.81 			"/>
			<polygon id="XMLID_8272_" class="st1" points="290.46,266.57 313.74,253.13 313.74,253.92 290.46,267.36 			"/>
			<path id="XMLID_8271_" class="st4" d="M284.33,265.17l-6.36-3.67c-0.27-0.16-0.5-0.03-0.5,0.29v3.76c0,0.32,0.22,0.7,0.5,0.86
				l6.36,3.67c0.27,0.16,0.5,0.03,0.5-0.29v-3.76C284.82,265.71,284.6,265.33,284.33,265.17z"/>
			<path id="XMLID_8244_" class="st0" d="M283.92,265.59l-5.55-3.2c-0.18-0.11-0.33-0.02-0.33,0.19v2.82c0,0.21,0.15,0.47,0.33,0.57
				l5.55,3.2c0.18,0.11,0.33,0.02,0.33-0.19l0-2.82C284.25,265.96,284.1,265.7,283.92,265.59z"/>
		</g>
		<g id="XMLID_8231_">
			<polygon id="XMLID_8242_" class="st2" points="290.46,261.19 290.46,246.85 271.83,236.09 271.83,250.43 			"/>
			<polygon id="XMLID_8241_" class="st3" points="290.46,246.85 313.74,233.4 313.74,247.74 290.46,261.19 			"/>
			<polygon id="XMLID_8238_" class="st5" points="290.46,246.85 271.28,235.77 295.12,222 314.3,233.08 			"/>
			<polygon id="XMLID_8237_" class="st2" points="290.46,246.85 290.46,250.43 271.28,239.36 271.28,235.77 			"/>
			<polygon id="XMLID_8236_" class="st3" points="290.46,250.43 271.83,239.68 271.83,240.46 290.46,251.22 			"/>
			<polygon id="XMLID_8235_" class="st3" points="314.3,233.08 290.46,246.85 290.46,250.43 314.3,236.67 			"/>
			<polygon id="XMLID_8234_" class="st1" points="290.46,250.43 313.74,236.99 313.74,237.78 290.46,251.22 			"/>
			<path id="XMLID_8233_" class="st4" d="M284.33,249.03l-6.36-3.67c-0.27-0.16-0.5-0.03-0.5,0.29v3.76c0,0.32,0.22,0.7,0.5,0.86
				l6.36,3.67c0.27,0.16,0.5,0.03,0.5-0.29v-3.76C284.82,249.57,284.6,249.18,284.33,249.03z"/>
			<path id="XMLID_8232_" class="st0" d="M283.92,249.45l-5.55-3.2c-0.18-0.11-0.33-0.02-0.33,0.19v2.82c0,0.21,0.15,0.47,0.33,0.57
				l5.55,3.2c0.18,0.11,0.33,0.02,0.33-0.19l0-2.82C284.25,249.81,284.1,249.56,283.92,249.45z"/>
		</g>
		<polygon id="XMLID_8230_" class="st1" points="272.83,251.01 290.46,261.19 312.74,248.32 313.28,248.64 290.46,261.77 
			272.29,251.33 		"/>
		<polygon id="XMLID_8229_" class="st6" points="272.83,251.01 290.46,261.19 312.74,248.32 313.28,248.64 290.46,261.77 
			272.29,251.33 		"/>
	</g>
</g>
<g id="Cabinets">
	<g id="Cabinet">
		<g id="XMLID_8162_">
			<g id="XMLID_8177_">
				<g>
					<polygon id="XMLID_14_" class="st7" points="64.18,335.41 86.45,322.56 86.45,274.81 64.18,287.66 					"/>
				</g>
			</g>
			<g id="XMLID_8175_">
				<g>
					<polygon id="XMLID_12_" class="st8" points="64.18,287.66 32.37,269.3 32.37,317.05 64.18,335.41 					"/>
				</g>
			</g>
			<g id="XMLID_14367_">
				<polygon id="XMLID_8174_" class="st9" points="32.37,269.3 64.18,287.66 86.45,274.81 54.64,256.45 				"/>
			</g>
			<g id="XMLID_8163_">
				<g id="XMLID_8168_">
					<polygon id="XMLID_8169_" class="st7" points="61.58,311.88 36.14,297.19 36.14,314.87 35.55,315.21 61,329.9 61.59,329.56 
											"/>
				</g>
				<g id="XMLID_8166_">
					<polygon id="XMLID_8167_" class="st9" points="61,312.22 35.55,297.53 35.55,315.21 61,329.9 					"/>
				</g>
				<g id="XMLID_8164_">
					<path id="XMLID_8165_" class="st7" d="M51.03,309.45l-4.33-2.5c-0.56-0.32-1.02-0.18-1.02,0.33c0,0.51,0.46,1.18,1.02,1.51
						l4.33,2.5c0.56,0.32,1.02,0.18,1.02-0.33C52.04,310.45,51.59,309.78,51.03,309.45z"/>
				</g>
			</g>
			<g id="XMLID_8133_">
				<g id="XMLID_8146_">
					<polygon id="XMLID_8147_" class="st7" points="61.58,290.53 36.14,275.84 36.14,293.52 35.55,293.86 61,308.55 61.59,308.22 
											"/>
				</g>
				<g id="XMLID_8141_">
					<polygon id="XMLID_8145_" class="st9" points="61,290.87 35.55,276.18 35.55,293.86 61,308.55 					"/>
				</g>
				<g id="XMLID_8138_">
					<path id="XMLID_8140_" class="st7" d="M51.03,288.11l-4.33-2.5c-0.56-0.32-1.02-0.18-1.02,0.33c0,0.51,0.46,1.18,1.02,1.51
						l4.33,2.5c0.56,0.32,1.02,0.18,1.02-0.33C52.04,289.11,51.59,288.43,51.03,288.11z"/>
				</g>
			</g>
		</g>
	</g>
	<g id="Cabinet_1_">
		<g id="XMLID_8154_">
			<g id="XMLID_8224_">
				<g>
					<polygon id="XMLID_29_" class="st10" points="435.82,335.41 413.55,322.56 413.55,274.81 435.82,287.66 					"/>
				</g>
			</g>
			<g id="XMLID_7_" class="st11">
				<polygon id="XMLID_10_" points="435.82,335.41 413.55,322.56 413.55,274.81 435.82,287.66 				"/>
			</g>
			<g id="XMLID_8184_">
				<g>
					<polygon id="XMLID_30_" class="st10" points="435.82,287.66 467.63,269.3 467.63,317.05 435.82,335.41 					"/>
				</g>
			</g>
			<g id="XMLID_8182_">
				<polygon id="XMLID_8183_" class="st10" points="467.63,269.3 435.82,287.66 413.55,274.81 445.36,256.45 				"/>
			</g>
			<g id="XMLID_1_" class="st12">
				<polygon id="XMLID_2_" class="st13" points="467.63,269.3 435.82,287.66 413.55,274.81 445.36,256.45 				"/>
			</g>
			<g id="XMLID_8170_">
				<g id="XMLID_8180_">
					<polygon id="XMLID_8181_" class="st10" points="438.42,311.88 463.86,297.19 463.86,314.87 464.45,315.21 439,329.9 
						438.41,329.56 					"/>
				</g>
				<g id="XMLID_22_" class="st14">
					<polygon id="XMLID_24_" points="438.42,311.88 463.86,297.19 463.86,314.87 464.45,315.21 439,329.9 438.41,329.56 					"/>
				</g>
				<g id="XMLID_8173_">
					<polygon id="XMLID_8179_" class="st10" points="439,312.22 464.45,297.53 464.45,315.21 439,329.9 					"/>
				</g>
				<g id="XMLID_5_" class="st12">
					<polygon id="XMLID_6_" class="st13" points="439,312.22 464.45,297.53 464.45,315.21 439,329.9 					"/>
				</g>
				<g id="XMLID_8171_">
					<path id="XMLID_8172_" class="st10" d="M448.97,309.45l4.33-2.5c0.56-0.32,1.02-0.18,1.02,0.33c0,0.51-0.46,1.18-1.02,1.51
						l-4.33,2.5c-0.56,0.32-1.02,0.18-1.02-0.33C447.96,310.45,448.41,309.78,448.97,309.45z"/>
				</g>
				<g id="XMLID_11_" class="st14">
					<path id="XMLID_13_" d="M448.97,309.45l4.33-2.5c0.56-0.32,1.02-0.18,1.02,0.33c0,0.51-0.46,1.18-1.02,1.51l-4.33,2.5
						c-0.56,0.32-1.02,0.18-1.02-0.33C447.96,310.45,448.41,309.78,448.97,309.45z"/>
				</g>
			</g>
			<g id="XMLID_8155_">
				<g id="XMLID_8160_">
					<polygon id="XMLID_8161_" class="st10" points="438.42,290.53 463.86,275.84 463.86,293.52 464.45,293.86 439,308.55 
						438.41,308.22 					"/>
				</g>
				<g id="XMLID_18_" class="st14">
					<polygon id="XMLID_20_" points="438.42,290.53 463.86,275.84 463.86,293.52 464.45,293.86 439,308.55 438.41,308.22 					"/>
				</g>
				<g id="XMLID_8158_">
					<polygon id="XMLID_8159_" class="st10" points="439,290.87 464.45,276.18 464.45,293.86 439,308.55 					"/>
				</g>
				<g id="XMLID_3_" class="st12">
					<polygon id="XMLID_4_" class="st13" points="439,290.87 464.45,276.18 464.45,293.86 439,308.55 					"/>
				</g>
				<g id="XMLID_8156_">
					<path id="XMLID_8157_" class="st10" d="M448.97,288.11l4.33-2.5c0.56-0.32,1.02-0.18,1.02,0.33c0,0.51-0.46,1.18-1.02,1.51
						l-4.33,2.5c-0.56,0.32-1.02,0.18-1.02-0.33C447.96,289.11,448.41,288.43,448.97,288.11z"/>
				</g>
				<g id="XMLID_8_" class="st14">
					<path id="XMLID_9_" d="M448.97,288.11l4.33-2.5c0.56-0.32,1.02-0.18,1.02,0.33c0,0.51-0.46,1.18-1.02,1.51l-4.33,2.5
						c-0.56,0.32-1.02,0.18-1.02-0.33C447.96,289.11,448.41,288.43,448.97,288.11z"/>
				</g>
			</g>
		</g>
	</g>
</g>
<g id="Folders">
	<g id="Folder_Black">
		<g id="XMLID_8116_">
			<path id="XMLID_8122_" class="st10" d="M304.58,273.76l104.1,60.1l6.32,3.65c0.1,0.05,0.2,0.11,0.29,0.16
				c0.17,0.08,0.35,0.16,0.53,0.21c0.21,0.08,0.44,0.15,0.66,0.18c0.15,0.04,0.29,0.05,0.44,0.07c0.03,0.01,0.06,0.02,0.09,0.01
				c0.18,0.03,0.38,0.04,0.56,0.04c0.64,0.01,1.23-0.12,1.66-0.37c1.02-0.59,2.09-2.28,2.37-3.77l17.54-91.13
				c0.04-0.19,0.05-0.4,0.05-0.6c0-0.16-0.01-0.33-0.04-0.49c0-0.01,0-0.01,0-0.02c-0.04-0.25-0.09-0.5-0.17-0.74
				c-0.08-0.25-0.19-0.48-0.31-0.71c-0.07-0.15-0.16-0.29-0.26-0.43c-0.11-0.16-0.23-0.3-0.36-0.44c-0.11-0.13-0.24-0.25-0.37-0.35
				c-0.13-0.11-0.27-0.2-0.41-0.28l-110.42-63.75c-0.09-0.05-0.19-0.11-0.29-0.16c-0.1-0.05-0.2-0.1-0.31-0.14
				c-0.05-0.02-0.09-0.04-0.15-0.05c-0.14-0.04-0.27-0.05-0.4-0.05c-0.69,0.05-1.27,0.52-1.96,0.92c-1.31,0.77-2.45,1.44-2.45,1.44
				v0.01c-0.18,0.07-0.35,0.19-0.49,0.35c-0.19,0.2-0.35,0.46-0.45,0.76c-0.05,0.13-0.07,0.26-0.1,0.38l-17.54,91.13
				C302.44,271.19,303.27,273.01,304.58,273.76z"/>
			<path id="XMLID_8121_" class="st10" d="M304.58,273.76l104.1,60.1l6.32,3.65c0.1,0.05,0.2,0.11,0.29,0.16
				c0.17,0.08,0.35,0.16,0.53,0.21c0.21,0.08,0.44,0.15,0.66,0.18c0.15,0.04,0.29,0.05,0.44,0.07c0.03,0.01,0.06,0.02,0.09,0.01
				c0.18,0.03,0.38,0.04,0.56,0.04c0.64,0.01,1.23-0.12,1.66-0.37c1.02-0.59,2.09-2.28,2.37-3.77l17.54-91.13
				c0.04-0.19,0.05-0.4,0.05-0.6c0-0.16-0.01-0.33-0.04-0.49c0-0.01,0-0.01,0-0.02c-0.04-0.25-0.09-0.5-0.17-0.74
				c-0.08-0.25-0.19-0.48-0.31-0.71c-0.07-0.15-0.16-0.29-0.26-0.43c-0.11-0.16-0.23-0.3-0.36-0.44c-0.11-0.13-0.24-0.25-0.37-0.35
				c-0.13-0.11-0.27-0.2-0.41-0.28l-110.42-63.75c-0.09-0.05-0.19-0.11-0.29-0.16c-0.1-0.05-0.2-0.1-0.31-0.14
				c-0.05-0.02-0.09-0.04-0.15-0.05c-0.14-0.04-0.27-0.05-0.4-0.05c-0.69,0.05-1.27,0.52-1.96,0.92c-1.31,0.77-2.45,1.44-2.45,1.44
				v0.01c-0.18,0.07-0.35,0.19-0.49,0.35c-0.19,0.2-0.35,0.46-0.45,0.76c-0.05,0.13-0.07,0.26-0.1,0.38l-17.54,91.13
				C302.44,271.19,303.27,273.01,304.58,273.76z"/>
			<path id="XMLID_8120_" class="st7" d="M415.3,337.67c1.29,0.62,2.98,0.7,3.94,0.15c1.02-0.59,2.09-2.28,2.37-3.77l17.54-91.13
				c0.16-0.83-0.04-1.77-0.47-2.57l-3.71,2.14c0.43,0.8,0.62,1.74,0.47,2.57L417.9,336.2C417.63,337.57,416.51,338.18,415.3,337.67z
				"/>
			<path id="XMLID_8119_" class="st8" d="M323.76,175.63c-1.31,0.77-2.45,1.44-2.45,1.44v0.01c0.53-0.26,1.19-0.22,1.85,0.16
				l110.42,63.75c0.58,0.33,1.05,0.87,1.39,1.49l3.71-2.14c-0.07-0.15-0.16-0.29-0.26-0.43c-0.11-0.16-0.23-0.3-0.36-0.44
				c-0.23-0.25-0.49-0.47-0.78-0.63l-110.42-63.75c-0.19-0.11-0.39-0.21-0.6-0.29c-0.05-0.02-0.09-0.04-0.15-0.05
				c-0.14-0.04-0.27-0.05-0.4-0.05C325.03,174.76,324.45,175.23,323.76,175.63z"/>
			<path id="XMLID_1160_" class="st15" d="M323.76,175.63c-1.31,0.77-2.45,1.44-2.45,1.44v0.01c0.53-0.26,1.19-0.22,1.85,0.16
				l110.42,63.75c0.58,0.33,1.05,0.87,1.39,1.49l3.71-2.14c-0.07-0.15-0.16-0.29-0.26-0.43c-0.11-0.16-0.23-0.3-0.36-0.44
				c-0.23-0.25-0.49-0.47-0.78-0.63l-110.42-63.75c-0.19-0.11-0.39-0.21-0.6-0.29c-0.05-0.02-0.09-0.04-0.15-0.05
				c-0.14-0.04-0.27-0.05-0.4-0.05C325.03,174.76,324.45,175.23,323.76,175.63z"/>
			<path id="XMLID_8118_" class="st10" d="M417.9,336.19l17.54-91.14c0.29-1.49-0.55-3.31-1.86-4.07l-110.42-63.75
				c-1.31-0.76-2.61-0.17-2.89,1.32l-17.54,91.14c-0.29,1.49,0.55,3.31,1.86,4.07L415,337.52
				C416.31,338.28,417.61,337.68,417.9,336.19z"/>
			<path id="XMLID_8117_" class="st8" d="M417.9,336.19l17.54-91.14c0.29-1.49-0.55-3.31-1.86-4.07l-110.42-63.75
				c-1.31-0.76-2.61-0.17-2.89,1.32l-17.54,91.14c-0.29,1.49,0.55,3.31,1.86,4.07L415,337.52
				C416.31,338.28,417.61,337.68,417.9,336.19z"/>
			<path id="XMLID_8123_" class="st16" d="M417.9,336.19l17.54-91.14c0.29-1.49-0.55-3.31-1.86-4.07l-110.42-63.75
				c-1.31-0.76-2.61-0.17-2.89,1.32l-17.54,91.14c-0.29,1.49,0.55,3.31,1.86,4.07L415,337.52
				C416.31,338.28,417.61,337.68,417.9,336.19z"/>
		</g>
		<g id="XMLID_8105_">
			<path id="XMLID_8115_" class="st10" d="M334.19,270.08l74.89,43.24l4.55,2.63c0.07,0.04,0.14,0.08,0.21,0.11
				c0.12,0.06,0.25,0.11,0.38,0.15c0.15,0.06,0.32,0.11,0.47,0.13c0.11,0.03,0.21,0.04,0.32,0.05c0.02,0.01,0.05,0.01,0.07,0.01
				c0.13,0.02,0.27,0.03,0.4,0.03c0.46,0.01,0.88-0.09,1.2-0.26c0.74-0.43,1.5-1.64,1.7-2.71L431,247.89
				c0.03-0.14,0.04-0.29,0.04-0.43c0-0.12-0.01-0.24-0.03-0.36c0-0.01,0-0.01,0-0.01c-0.03-0.18-0.07-0.36-0.12-0.53
				c-0.06-0.18-0.14-0.35-0.22-0.51c-0.05-0.11-0.12-0.21-0.18-0.31c-0.08-0.11-0.16-0.22-0.26-0.32c-0.08-0.09-0.17-0.18-0.26-0.25
				c-0.09-0.08-0.2-0.14-0.3-0.2l-79.44-45.86c-0.07-0.04-0.14-0.08-0.21-0.11c-0.07-0.03-0.14-0.07-0.22-0.1
				c-0.03-0.01-0.07-0.03-0.11-0.03c-0.1-0.03-0.2-0.04-0.29-0.03c-0.49,0.04-0.91,0.38-1.41,0.66c-0.94,0.55-1.76,1.03-1.76,1.03
				v0.01c-0.13,0.05-0.25,0.14-0.36,0.25c-0.14,0.14-0.25,0.33-0.32,0.55c-0.03,0.09-0.05,0.18-0.07,0.27l-12.62,65.56
				C332.65,268.23,333.25,269.54,334.19,270.08z"/>
			<path id="XMLID_8114_" class="st10" d="M334.19,270.08l74.89,43.24l4.55,2.63c0.07,0.04,0.14,0.08,0.21,0.11
				c0.12,0.06,0.25,0.11,0.38,0.15c0.15,0.06,0.32,0.11,0.47,0.13c0.11,0.03,0.21,0.04,0.32,0.05c0.02,0.01,0.05,0.01,0.07,0.01
				c0.13,0.02,0.27,0.03,0.4,0.03c0.46,0.01,0.88-0.09,1.2-0.26c0.74-0.43,1.5-1.64,1.7-2.71L431,247.89
				c0.03-0.14,0.04-0.29,0.04-0.43c0-0.12-0.01-0.24-0.03-0.36c0-0.01,0-0.01,0-0.01c-0.03-0.18-0.07-0.36-0.12-0.53
				c-0.06-0.18-0.14-0.35-0.22-0.51c-0.05-0.11-0.12-0.21-0.18-0.31c-0.08-0.11-0.16-0.22-0.26-0.32c-0.08-0.09-0.17-0.18-0.26-0.25
				c-0.09-0.08-0.2-0.14-0.3-0.2l-79.44-45.86c-0.07-0.04-0.14-0.08-0.21-0.11c-0.07-0.03-0.14-0.07-0.22-0.1
				c-0.03-0.01-0.07-0.03-0.11-0.03c-0.1-0.03-0.2-0.04-0.29-0.03c-0.49,0.04-0.91,0.38-1.41,0.66c-0.94,0.55-1.76,1.03-1.76,1.03
				v0.01c-0.13,0.05-0.25,0.14-0.36,0.25c-0.14,0.14-0.25,0.33-0.32,0.55c-0.03,0.09-0.05,0.18-0.07,0.27l-12.62,65.56
				C332.65,268.23,333.25,269.54,334.19,270.08z"/>
			<path id="XMLID_8108_" class="st1" d="M413.84,316.06c0.93,0.45,2.15,0.5,2.84,0.11c0.74-0.43,1.5-1.64,1.7-2.71L431,247.89
				c0.11-0.6-0.03-1.28-0.34-1.85l-2.67,1.54c0.31,0.57,0.45,1.25,0.34,1.85L415.71,315C415.52,315.98,414.71,316.43,413.84,316.06z
				"/>
			<path id="XMLID_8107_" class="st0" d="M347.99,199.49c-0.94,0.55-1.76,1.03-1.76,1.03v0.01c0.38-0.18,0.86-0.16,1.33,0.12
				l79.44,45.86c0.41,0.24,0.76,0.62,1,1.07l2.67-1.54c-0.05-0.11-0.12-0.21-0.18-0.31c-0.08-0.11-0.16-0.22-0.26-0.32
				c-0.16-0.18-0.36-0.34-0.56-0.45l-79.44-45.86c-0.14-0.08-0.28-0.15-0.43-0.21c-0.03-0.01-0.07-0.03-0.11-0.03
				c-0.1-0.03-0.2-0.04-0.29-0.03C348.9,198.86,348.48,199.2,347.99,199.49z"/>
			<path id="XMLID_8106_" class="st5" d="M415.71,315l12.62-65.56c0.21-1.07-0.39-2.38-1.34-2.93l-79.44-45.86
				c-0.94-0.55-1.88-0.12-2.08,0.95l-12.62,65.56c-0.21,1.07,0.39,2.38,1.34,2.93l79.44,45.86
				C414.57,316.49,415.5,316.07,415.71,315z"/>
		</g>
		<g id="Document_1_">
			<path id="XMLID_8104_" class="st4" d="M356.96,250.8c0.56-0.32,1.01-1.14,1.01-1.83V129.74c0-0.69-0.48-1.53-1.08-1.87
				l-74.88-43.23c-0.6-0.34-1.53-0.36-2.09-0.04c-0.56,0.32-1.01,1.14-1.01,1.83l0,119.23c0,0.69,0.48,1.53,1.08,1.87l74.88,43.23
				C355.46,251.11,356.4,251.13,356.96,250.8z"/>
			<path id="XMLID_8103_" class="st0" d="M278.91,86.24c0.09-0.55,0.53-0.74,1.07-0.43l74.88,43.23c0.3,0.17,0.58,0.48,0.76,0.81
				l2.03-1.17c-0.19-0.34-0.47-0.64-0.77-0.81l-74.87-43.23c-0.59-0.35-1.54-0.37-2.09-0.05C279.42,84.9,278.99,85.59,278.91,86.24z
				"/>
			<path id="XMLID_8102_" class="st1" d="M355.01,250.84c0.59,0.27,1.43,0.27,1.95-0.04c0.56-0.32,1.01-1.14,1.01-1.83V129.74
				c0-0.35-0.12-0.72-0.31-1.06l-2.03,1.17c0.2,0.34,0.32,0.71,0.32,1.06v119.23C355.95,250.77,355.53,251.07,355.01,250.84z"/>
			<g id="XMLID_8100_">
				<path id="XMLID_8101_" class="st5" d="M354.86,250.77l-74.88-43.23c-0.6-0.34-1.08-1.18-1.08-1.87l0-119.23
					c0-0.69,0.48-0.97,1.08-0.62l74.88,43.23c0.6,0.34,1.08,1.18,1.08,1.87l0,119.23C355.94,250.83,355.46,251.11,354.86,250.77z"/>
			</g>
			<g id="XMLID_2322_">
				<g id="XMLID_2323_" class="st17">
					<g id="XMLID_8097_">
						<path id="XMLID_8098_" class="st9" d="M350.48,183.35c0,0.92-0.82,1.18-1.84,0.6l-62.43-36.04c-1.02-0.59-1.84-1.8-1.84-2.72
							c0-0.92,0.82-1.18,1.84-0.6l62.43,36.04C349.65,181.22,350.48,182.44,350.48,183.35z"/>
					</g>
					<g id="XMLID_8031_">
						<path id="XMLID_8068_" class="st9" d="M350.48,193.31c0,0.92-0.82,1.18-1.84,0.6l-62.43-36.04c-1.02-0.59-1.84-1.8-1.84-2.72
							s0.82-1.18,1.84-0.6l62.43,36.04C349.65,191.17,350.48,192.39,350.48,193.31z"/>
					</g>
					<g id="XMLID_8029_">
						<path id="XMLID_8030_" class="st9" d="M350.48,203.26c0,0.92-0.82,1.18-1.84,0.6l-62.43-36.04c-1.02-0.59-1.84-1.8-1.84-2.72
							c0-0.92,0.82-1.18,1.84-0.6l62.43,36.04C349.65,201.13,350.48,202.35,350.48,203.26z"/>
					</g>
					<g id="XMLID_8027_">
						<path id="XMLID_8028_" class="st9" d="M350.48,213.22c0,0.92-0.82,1.18-1.84,0.6l-62.43-36.04c-1.02-0.59-1.84-1.8-1.84-2.72
							s0.82-1.18,1.84-0.6l62.43,36.04C349.65,211.08,350.48,212.3,350.48,213.22z"/>
					</g>
					<g id="XMLID_8025_">
						<path id="XMLID_8026_" class="st9" d="M350.48,153.48c0,0.92-0.82,1.18-1.84,0.6l-62.43-36.04c-1.02-0.59-1.84-1.8-1.84-2.72
							c0-0.92,0.82-1.18,1.84-0.6l62.43,36.04C349.65,151.35,350.48,152.57,350.48,153.48z"/>
					</g>
					<g id="XMLID_8023_">
						<path id="XMLID_8024_" class="st9" d="M350.48,163.44c0,0.92-0.82,1.18-1.84,0.6l-62.43-36.04c-1.02-0.59-1.84-1.8-1.84-2.72
							c0-0.92,0.82-1.18,1.84-0.6l62.43,36.04C349.65,161.31,350.48,162.52,350.48,163.44z"/>
					</g>
					<g id="XMLID_8020_">
						<path id="XMLID_8022_" class="st9" d="M350.48,143.54c0,0.92-0.82,1.18-1.84,0.6l-62.43-36.04c-1.02-0.59-1.84-1.8-1.84-2.72
							c0-0.92,0.82-1.18,1.84-0.6l62.43,36.04C349.65,141.41,350.48,142.63,350.48,143.54z"/>
					</g>
					<g id="XMLID_8015_">
						<path id="XMLID_8019_" class="st9" d="M350.48,173.4c0,0.92-0.82,1.18-1.84,0.6l-62.43-36.04c-1.02-0.59-1.84-1.8-1.84-2.72
							c0-0.92,0.82-1.18,1.84-0.6l62.43,36.04C349.65,171.26,350.48,172.48,350.48,173.4z"/>
					</g>
					<g id="XMLID_2326_">
						<path id="XMLID_2327_" class="st9" d="M350.48,223.18c0,0.92-0.82,1.18-1.84,0.6l-62.43-36.04c-1.02-0.59-1.84-1.8-1.84-2.72
							s0.82-1.18,1.84-0.6l62.43,36.04C349.65,221.04,350.48,222.26,350.48,223.18z"/>
					</g>
					<g id="XMLID_2324_">
						<path id="XMLID_2325_" class="st9" d="M350.48,233.13c0,0.92-0.82,1.18-1.84,0.6l-62.43-36.04c-1.02-0.59-1.84-1.8-1.84-2.72
							c0-0.92,0.82-1.18,1.84-0.6l62.43,36.04C349.65,231,350.48,232.21,350.48,233.13z"/>
					</g>
				</g>
			</g>
		</g>
		<g id="XMLID_2058_">
			<path id="XMLID_2321_" class="st10" d="M300.12,187.05c0-0.76,0.26-1.29,0.68-1.57c0,0,0.06-0.05,0.18-0.1l3.58-2.09c0,0,0,0,0,0
				l0.01,0v0c0.45-0.25,1.06-0.21,1.74,0.18l71.57,41.27l2.08-8.4c0.19-0.63,0.57-1.09,1.03-1.37l-0.01-0.01l3.72-2.16l0,0.02
				c0.65-0.38,1.47-0.4,2.27,0.06l30.45,17.57c1.37,0.79,2.48,2.71,2.48,4.29l0,101.53c0,0.76-0.25,1.3-0.67,1.57l0,0l-3.83,2.22
				l0,0c-0.44,0.22-1.03,0.17-1.69-0.21l-111.15-64.17c-1.37-0.79-2.48-2.71-2.48-4.29L300.12,187.05z"/>
			<path id="XMLID_2320_" class="st9" d="M381.04,214.93c0.64-0.35,1.44-0.34,2.22,0.1l30.45,17.57c0.67,0.4,1.29,1.07,1.75,1.85
				l3.71-2.16c-0.45-0.78-1.06-1.46-1.75-1.85l-30.45-17.57c-0.8-0.46-1.62-0.43-2.26-0.06v-0.01L381.04,214.93z"/>
			<path id="XMLID_2319_" class="st9" d="M300.97,185.38c0.43-0.18,1.01-0.11,1.62,0.24l71.64,41.33c1.37,0.79,2.85,0.21,3.3-1.31
				l0.33-0.9l-71.57-41.27c-0.39-0.23-0.77-0.33-1.1-0.33c-0.24,0-0.46,0.06-0.64,0.16h-0.01L300.97,185.38z"/>
			<path id="XMLID_2318_" class="st8" d="M300.12,187.06l-0.04,84.34c0,1.58,1.11,3.5,2.48,4.29l111.44,64.34
				c0.97,0.56,2.19-0.14,2.19-1.26V236.89c0-0.79-0.27-1.66-0.72-2.43c-0.46-0.78-1.08-1.45-1.75-1.85l-30.45-17.58
				c-0.78-0.44-1.58-0.46-2.22-0.1l-0.06,0.04h0.02c-0.47,0.27-0.84,0.73-1.03,1.37l-2.09,8.4l-0.33,0.91
				c-0.46,1.52-1.93,2.1-3.3,1.32l-71.64-41.33c-0.61-0.36-1.19-0.42-1.62-0.24l-0.1,0.05c-0.02,0.01-0.04,0.02-0.05,0.03
				l-0.03,0.02C300.38,185.76,300.12,186.3,300.12,187.06z"/>
			<g id="arrowDown">
				<path id="XMLID_8144_" class="st10" d="M352.06,268.11c0.16-0.08,0.33-0.11,0.5-0.11c0.44,0,0.86,0.25,1.06,0.67l3.33,7.05
					v-12.5c0-0.65,0.53-1.17,1.17-1.17c0.65,0,1.17,0.53,1.17,1.17v14.97l3.58-3.44c0.47-0.45,1.21-0.43,1.66,0.03
					c0.45,0.47,0.43,1.21-0.03,1.66l-5.56,5.35c-0.27,0.26-0.65,0.38-1.03,0.31c-0.37-0.07-0.69-0.31-0.85-0.65l-5.56-11.78
					C351.23,269.08,351.48,268.38,352.06,268.11z"/>
				<path id="XMLID_8143_" class="st10" d="M366.12,270.78c-0.65,0-1.17-0.53-1.17-1.17v-7.08l-13.63-7.87v5.72
					c0,0.65-0.53,1.17-1.17,1.17c-0.65,0-1.17-0.53-1.17-1.17v-7.75c0-0.42,0.22-0.81,0.59-1.02c0.18-0.1,0.38-0.16,0.59-0.16
					c0.2,0,0.4,0.05,0.59,0.16l15.98,9.22c0.36,0.21,0.59,0.6,0.59,1.02v7.75C367.29,270.26,366.76,270.78,366.12,270.78z"/>
			</g>
			<path id="XMLID_2317_" class="st7" d="M415.28,340.09c0.04-0.01,0.07-0.02,0.11-0.04l3.83-2.22c0.41-0.27,0.67-0.81,0.67-1.57
				V234.73c0-0.8-0.28-1.66-0.73-2.43l-3.7,2.16v0.01c0.45,0.77,0.72,1.65,0.72,2.43v101.85
				C416.18,339.38,415.79,339.88,415.28,340.09z"/>
		</g>
	</g>
	<g id="Folder_Green">
		<g id="XMLID_8067_">
			<path id="XMLID_8081_" class="st10" d="M195.42,273.76l-104.1,60.1l-6.32,3.65c-0.1,0.05-0.2,0.11-0.29,0.16
				c-0.17,0.08-0.35,0.16-0.53,0.21c-0.21,0.08-0.44,0.15-0.66,0.18c-0.15,0.04-0.29,0.05-0.44,0.07c-0.03,0.01-0.06,0.02-0.09,0.01
				c-0.18,0.03-0.38,0.04-0.56,0.04c-0.64,0.01-1.23-0.12-1.66-0.37c-1.02-0.59-2.09-2.28-2.37-3.77l-17.54-91.13
				c-0.04-0.19-0.05-0.4-0.05-0.6c0-0.16,0.01-0.33,0.04-0.49c0-0.01,0-0.01,0-0.02c0.04-0.25,0.09-0.5,0.17-0.74
				c0.08-0.25,0.19-0.48,0.31-0.71c0.07-0.15,0.16-0.29,0.26-0.43c0.11-0.16,0.23-0.3,0.36-0.44c0.11-0.13,0.24-0.25,0.37-0.35
				c0.13-0.11,0.27-0.2,0.41-0.28l110.42-63.75c0.09-0.05,0.19-0.11,0.29-0.16s0.2-0.1,0.31-0.14c0.05-0.02,0.09-0.04,0.15-0.05
				c0.14-0.04,0.27-0.05,0.4-0.05c0.69,0.05,1.27,0.52,1.96,0.92c1.31,0.77,2.45,1.44,2.45,1.44v0.01c0.18,0.07,0.35,0.19,0.49,0.35
				c0.19,0.2,0.35,0.46,0.45,0.76c0.05,0.13,0.07,0.26,0.1,0.38l17.54,91.13C197.56,271.19,196.73,273.01,195.42,273.76z"/>
			<path id="XMLID_8082_" class="st10" d="M195.42,273.76l-104.1,60.1l-6.32,3.65c-0.1,0.05-0.2,0.11-0.29,0.16
				c-0.17,0.08-0.35,0.16-0.53,0.21c-0.21,0.08-0.44,0.15-0.66,0.18c-0.15,0.04-0.29,0.05-0.44,0.07c-0.03,0.01-0.06,0.02-0.09,0.01
				c-0.18,0.03-0.38,0.04-0.56,0.04c-0.64,0.01-1.23-0.12-1.66-0.37c-1.02-0.59-2.09-2.28-2.37-3.77l-17.54-91.13
				c-0.04-0.19-0.05-0.4-0.05-0.6c0-0.16,0.01-0.33,0.04-0.49c0-0.01,0-0.01,0-0.02c0.04-0.25,0.09-0.5,0.17-0.74
				c0.08-0.25,0.19-0.48,0.31-0.71c0.07-0.15,0.16-0.29,0.26-0.43c0.11-0.16,0.23-0.3,0.36-0.44c0.11-0.13,0.24-0.25,0.37-0.35
				c0.13-0.11,0.27-0.2,0.41-0.28l110.42-63.75c0.09-0.05,0.19-0.11,0.29-0.16s0.2-0.1,0.31-0.14c0.05-0.02,0.09-0.04,0.15-0.05
				c0.14-0.04,0.27-0.05,0.4-0.05c0.69,0.05,1.27,0.52,1.96,0.92c1.31,0.77,2.45,1.44,2.45,1.44v0.01c0.18,0.07,0.35,0.19,0.49,0.35
				c0.19,0.2,0.35,0.46,0.45,0.76c0.05,0.13,0.07,0.26,0.1,0.38l17.54,91.13C197.56,271.19,196.73,273.01,195.42,273.76z"/>
			<path id="XMLID_8077_" class="st11" d="M84.7,337.67c-1.29,0.62-2.98,0.7-3.94,0.15c-1.02-0.59-2.09-2.28-2.37-3.77l-17.54-91.13
				c-0.16-0.83,0.04-1.77,0.47-2.57l3.71,2.14c-0.43,0.8-0.62,1.74-0.47,2.57L82.1,336.2C82.37,337.57,83.49,338.18,84.7,337.67z"/>
			<path id="XMLID_8096_" class="st18" d="M176.24,175.63c1.31,0.77,2.45,1.44,2.45,1.44v0.01c-0.53-0.26-1.19-0.22-1.85,0.16
				L66.42,240.99c-0.58,0.33-1.05,0.87-1.39,1.49l-3.71-2.14c0.07-0.15,0.16-0.29,0.26-0.43c0.11-0.16,0.23-0.3,0.36-0.44
				c0.23-0.25,0.49-0.47,0.78-0.63l110.42-63.75c0.19-0.11,0.39-0.21,0.6-0.29c0.05-0.02,0.09-0.04,0.15-0.05
				c0.14-0.04,0.27-0.05,0.4-0.05C174.97,174.76,175.55,175.23,176.24,175.63z"/>
			<path id="XMLID_8065_" class="st10" d="M82.1,336.19l-17.54-91.14c-0.29-1.49,0.55-3.31,1.86-4.07l110.42-63.75
				c1.31-0.76,2.61-0.17,2.89,1.32l17.54,91.14c0.29,1.49-0.55,3.31-1.86,4.07L85,337.52C83.69,338.28,82.39,337.68,82.1,336.19z"/>
			<path id="XMLID_8066_" class="st19" d="M82.1,336.19l-17.54-91.14c-0.29-1.49,0.55-3.31,1.86-4.07l110.42-63.75
				c1.31-0.76,2.61-0.17,2.89,1.32l17.54,91.14c0.29,1.49-0.55,3.31-1.86,4.07L85,337.52C83.69,338.28,82.39,337.68,82.1,336.19z"/>
		</g>
		<g id="XMLID_1158_">
			<path id="XMLID_8078_" class="st10" d="M165.81,270.08l-74.89,43.24l-4.55,2.63c-0.07,0.04-0.14,0.08-0.21,0.11
				c-0.12,0.06-0.25,0.11-0.38,0.15c-0.15,0.06-0.32,0.11-0.47,0.13c-0.11,0.03-0.21,0.04-0.32,0.05c-0.02,0.01-0.05,0.01-0.07,0.01
				c-0.13,0.02-0.27,0.03-0.4,0.03c-0.46,0.01-0.88-0.09-1.2-0.26c-0.74-0.43-1.5-1.64-1.7-2.71L69,247.89
				c-0.03-0.14-0.04-0.29-0.04-0.43c0-0.12,0.01-0.24,0.03-0.36c0-0.01,0-0.01,0-0.01c0.03-0.18,0.07-0.36,0.12-0.53
				c0.06-0.18,0.14-0.35,0.22-0.51c0.05-0.11,0.12-0.21,0.18-0.31c0.08-0.11,0.16-0.22,0.26-0.32c0.08-0.09,0.17-0.18,0.26-0.25
				c0.09-0.08,0.2-0.14,0.3-0.2l79.44-45.86c0.07-0.04,0.14-0.08,0.21-0.11c0.07-0.03,0.14-0.07,0.22-0.1
				c0.03-0.01,0.07-0.03,0.11-0.03c0.1-0.03,0.2-0.04,0.29-0.03c0.49,0.04,0.91,0.38,1.41,0.66c0.94,0.55,1.76,1.03,1.76,1.03v0.01
				c0.13,0.05,0.25,0.14,0.36,0.25c0.14,0.14,0.25,0.33,0.32,0.55c0.03,0.09,0.05,0.18,0.07,0.27l12.62,65.56
				C167.35,268.23,166.75,269.54,165.81,270.08z"/>
			<path id="XMLID_8076_" class="st10" d="M165.81,270.08l-74.89,43.24l-4.55,2.63c-0.07,0.04-0.14,0.08-0.21,0.11
				c-0.12,0.06-0.25,0.11-0.38,0.15c-0.15,0.06-0.32,0.11-0.47,0.13c-0.11,0.03-0.21,0.04-0.32,0.05c-0.02,0.01-0.05,0.01-0.07,0.01
				c-0.13,0.02-0.27,0.03-0.4,0.03c-0.46,0.01-0.88-0.09-1.2-0.26c-0.74-0.43-1.5-1.64-1.7-2.71L69,247.89
				c-0.03-0.14-0.04-0.29-0.04-0.43c0-0.12,0.01-0.24,0.03-0.36c0-0.01,0-0.01,0-0.01c0.03-0.18,0.07-0.36,0.12-0.53
				c0.06-0.18,0.14-0.35,0.22-0.51c0.05-0.11,0.12-0.21,0.18-0.31c0.08-0.11,0.16-0.22,0.26-0.32c0.08-0.09,0.17-0.18,0.26-0.25
				c0.09-0.08,0.2-0.14,0.3-0.2l79.44-45.86c0.07-0.04,0.14-0.08,0.21-0.11c0.07-0.03,0.14-0.07,0.22-0.1
				c0.03-0.01,0.07-0.03,0.11-0.03c0.1-0.03,0.2-0.04,0.29-0.03c0.49,0.04,0.91,0.38,1.41,0.66c0.94,0.55,1.76,1.03,1.76,1.03v0.01
				c0.13,0.05,0.25,0.14,0.36,0.25c0.14,0.14,0.25,0.33,0.32,0.55c0.03,0.09,0.05,0.18,0.07,0.27l12.62,65.56
				C167.35,268.23,166.75,269.54,165.81,270.08z"/>
			<path id="XMLID_8075_" class="st1" d="M86.16,316.06c-0.93,0.45-2.15,0.5-2.84,0.11c-0.74-0.43-1.5-1.64-1.7-2.71L69,247.89
				c-0.11-0.6,0.03-1.28,0.34-1.85l2.67,1.54c-0.31,0.57-0.45,1.25-0.34,1.85L84.29,315C84.48,315.98,85.29,316.43,86.16,316.06z"/>
			<path id="XMLID_8074_" class="st0" d="M152.01,199.49c0.94,0.55,1.76,1.03,1.76,1.03v0.01c-0.38-0.18-0.86-0.16-1.33,0.12
				l-79.44,45.86c-0.41,0.24-0.76,0.62-1,1.07l-2.67-1.54c0.05-0.11,0.12-0.21,0.18-0.31c0.08-0.11,0.16-0.22,0.26-0.32
				c0.16-0.18,0.36-0.34,0.56-0.45l79.44-45.86c0.14-0.08,0.28-0.15,0.43-0.21c0.03-0.01,0.07-0.03,0.11-0.03
				c0.1-0.03,0.2-0.04,0.29-0.03C151.1,198.86,151.52,199.2,152.01,199.49z"/>
			<path id="XMLID_8073_" class="st5" d="M84.29,315l-12.62-65.56c-0.21-1.07,0.39-2.38,1.34-2.93l79.44-45.86
				c0.94-0.55,1.88-0.12,2.08,0.95l12.62,65.56c0.21,1.07-0.39,2.38-1.34,2.93l-79.44,45.86C85.43,316.49,84.5,316.07,84.29,315z"/>
		</g>
		<g id="Document">
			<path id="XMLID_8246_" class="st4" d="M143.04,250.8c-0.56-0.32-1.01-1.14-1.01-1.83V129.74c0-0.69,0.48-1.53,1.08-1.87
				l74.88-43.23c0.6-0.34,1.53-0.36,2.09-0.04c0.56,0.32,1.01,1.14,1.01,1.83l0,119.23c0,0.69-0.48,1.53-1.08,1.87l-74.88,43.23
				C144.54,251.11,143.6,251.13,143.04,250.8z"/>
			<path id="XMLID_8080_" class="st0" d="M221.09,86.24c-0.09-0.55-0.53-0.74-1.07-0.43l-74.88,43.23c-0.3,0.17-0.58,0.48-0.76,0.81
				l-2.03-1.17c0.19-0.34,0.47-0.64,0.77-0.81l74.87-43.23c0.59-0.35,1.54-0.37,2.09-0.05C220.58,84.9,221.01,85.59,221.09,86.24z"
				/>
			<path id="XMLID_1215_" class="st1" d="M144.99,250.84c-0.59,0.27-1.43,0.27-1.95-0.04c-0.56-0.32-1.01-1.14-1.01-1.83V129.74
				c0-0.35,0.12-0.72,0.31-1.06l2.03,1.17c-0.2,0.34-0.32,0.71-0.32,1.06v119.23C144.05,250.77,144.47,251.07,144.99,250.84z"/>
			<g id="XMLID_8239_">
				<path id="XMLID_8240_" class="st5" d="M145.14,250.77l74.88-43.23c0.6-0.34,1.08-1.18,1.08-1.87l0-119.23
					c0-0.69-0.48-0.97-1.08-0.62l-74.88,43.23c-0.6,0.34-1.08,1.18-1.08,1.87l0,119.23C144.06,250.83,144.54,251.11,145.14,250.77z"
					/>
			</g>
			<g id="XMLID_7967_">
				<g id="XMLID_1154_" class="st17">
					<g id="XMLID_1157_">
						<path id="XMLID_7996_" class="st9" d="M149.52,183.35c0,0.92,0.82,1.18,1.84,0.6l62.43-36.04c1.02-0.59,1.84-1.8,1.84-2.72
							c0-0.92-0.82-1.18-1.84-0.6l-62.43,36.04C150.35,181.22,149.52,182.44,149.52,183.35z"/>
					</g>
					<g id="XMLID_1156_">
						<path id="XMLID_7994_" class="st9" d="M149.52,193.31c0,0.92,0.82,1.18,1.84,0.6l62.43-36.04c1.02-0.59,1.84-1.8,1.84-2.72
							s-0.82-1.18-1.84-0.6l-62.43,36.04C150.35,191.17,149.52,192.39,149.52,193.31z"/>
					</g>
					<g id="XMLID_1155_">
						<path id="XMLID_7992_" class="st9" d="M149.52,203.26c0,0.92,0.82,1.18,1.84,0.6l62.43-36.04c1.02-0.59,1.84-1.8,1.84-2.72
							c0-0.92-0.82-1.18-1.84-0.6l-62.43,36.04C150.35,201.13,149.52,202.35,149.52,203.26z"/>
					</g>
					<g id="XMLID_7998_">
						<path id="XMLID_8072_" class="st9" d="M149.52,213.22c0,0.92,0.82,1.18,1.84,0.6l62.43-36.04c1.02-0.59,1.84-1.8,1.84-2.72
							s-0.82-1.18-1.84-0.6l-62.43,36.04C150.35,211.08,149.52,212.3,149.52,213.22z"/>
					</g>
					<g id="XMLID_7962_">
						<path id="XMLID_7963_" class="st9" d="M149.52,153.48c0,0.92,0.82,1.18,1.84,0.6l62.43-36.04c1.02-0.59,1.84-1.8,1.84-2.72
							c0-0.92-0.82-1.18-1.84-0.6l-62.43,36.04C150.35,151.35,149.52,152.57,149.52,153.48z"/>
					</g>
					<g id="XMLID_7957_">
						<path id="XMLID_7961_" class="st9" d="M149.52,163.44c0,0.92,0.82,1.18,1.84,0.6l62.43-36.04c1.02-0.59,1.84-1.8,1.84-2.72
							c0-0.92-0.82-1.18-1.84-0.6l-62.43,36.04C150.35,161.31,149.52,162.52,149.52,163.44z"/>
					</g>
					<g id="XMLID_7964_">
						<path id="XMLID_7990_" class="st9" d="M149.52,143.54c0,0.92,0.82,1.18,1.84,0.6l62.43-36.04c1.02-0.59,1.84-1.8,1.84-2.72
							c0-0.92-0.82-1.18-1.84-0.6l-62.43,36.04C150.35,141.41,149.52,142.63,149.52,143.54z"/>
					</g>
					<g id="XMLID_7952_">
						<path id="XMLID_7953_" class="st9" d="M149.52,173.4c0,0.92,0.82,1.18,1.84,0.6l62.43-36.04c1.02-0.59,1.84-1.8,1.84-2.72
							c0-0.92-0.82-1.18-1.84-0.6l-62.43,36.04C150.35,171.26,149.52,172.48,149.52,173.4z"/>
					</g>
					<g id="XMLID_7995_">
						<path id="XMLID_7997_" class="st9" d="M149.52,223.18c0,0.92,0.82,1.18,1.84,0.6l62.43-36.04c1.02-0.59,1.84-1.8,1.84-2.72
							s-0.82-1.18-1.84-0.6l-62.43,36.04C150.35,221.04,149.52,222.26,149.52,223.18z"/>
					</g>
					<g id="XMLID_7991_">
						<path id="XMLID_7993_" class="st9" d="M149.52,233.13c0,0.92,0.82,1.18,1.84,0.6l62.43-36.04c1.02-0.59,1.84-1.8,1.84-2.72
							c0-0.92-0.82-1.18-1.84-0.6l-62.43,36.04C150.35,231,149.52,232.21,149.52,233.13z"/>
					</g>
				</g>
			</g>
		</g>
		<g id="XMLID_8014_">
			<path id="XMLID_8018_" class="st10" d="M199.88,187.05c0-0.76-0.26-1.29-0.68-1.57c0,0-0.06-0.05-0.18-0.1l-3.58-2.09
				c0,0,0,0,0,0l-0.01,0v0c-0.45-0.25-1.06-0.21-1.74,0.18l-71.57,41.27l-2.08-8.4c-0.19-0.63-0.57-1.09-1.03-1.37l0.01-0.01
				l-3.72-2.16l0,0.02c-0.65-0.38-1.47-0.4-2.27,0.06l-30.45,17.57c-1.37,0.79-2.48,2.71-2.48,4.29l0,101.53
				c0,0.76,0.25,1.3,0.67,1.57l0,0l3.83,2.22l0,0c0.44,0.22,1.03,0.17,1.69-0.21l111.15-64.17c1.37-0.79,2.48-2.71,2.48-4.29
				L199.88,187.05z"/>
			<path id="XMLID_8017_" class="st20" d="M118.96,214.93c-0.64-0.35-1.44-0.34-2.22,0.1L86.3,232.6c-0.67,0.4-1.29,1.07-1.75,1.85
				l-3.71-2.16c0.45-0.78,1.06-1.46,1.75-1.85l30.45-17.57c0.8-0.46,1.62-0.43,2.26-0.06v-0.01L118.96,214.93z"/>
			<path id="XMLID_8016_" class="st20" d="M199.03,185.38c-0.43-0.18-1.01-0.11-1.62,0.24l-71.64,41.33
				c-1.37,0.79-2.85,0.21-3.3-1.31l-0.33-0.9l71.57-41.27c0.39-0.23,0.77-0.33,1.1-0.33c0.24,0,0.46,0.06,0.64,0.16h0.01
				L199.03,185.38z"/>
			<path id="XMLID_8079_" class="st10" d="M199.88,187.06l0.04,84.34c0,1.58-1.11,3.5-2.48,4.29L86.01,340.02
				c-0.97,0.56-2.19-0.14-2.19-1.26V236.89c0-0.79,0.27-1.66,0.72-2.43c0.46-0.78,1.08-1.45,1.75-1.85l30.45-17.58
				c0.78-0.44,1.58-0.46,2.22-0.1l0.06,0.04h-0.02c0.47,0.27,0.84,0.73,1.03,1.37l2.09,8.4l0.33,0.91c0.46,1.52,1.93,2.1,3.3,1.32
				l71.64-41.33c0.61-0.36,1.19-0.42,1.62-0.24l0.1,0.05c0.02,0.01,0.04,0.02,0.05,0.03l0.03,0.02
				C199.62,185.76,199.88,186.3,199.88,187.06z"/>
			<g id="arrowUp">
				<path id="XMLID_8148_" class="st7" d="M135.81,265.47c0.16,0.08,0.33,0.11,0.5,0.11c0.44,0,0.86-0.25,1.06-0.67l3.33-7.05v12.5
					c0,0.65,0.53,1.17,1.17,1.17c0.65,0,1.17-0.53,1.17-1.17v-14.97l3.58,3.44c0.47,0.45,1.21,0.43,1.66-0.03
					c0.45-0.47,0.43-1.21-0.03-1.66l-5.56-5.35c-0.27-0.26-0.65-0.38-1.03-0.31c-0.37,0.07-0.69,0.31-0.85,0.65l-5.56,11.78
					C134.97,264.49,135.22,265.19,135.81,265.47z"/>
				<path id="XMLID_8149_" class="st7" d="M149.86,261.79c-0.65,0-1.17,0.53-1.17,1.17v7.08l-13.63,7.87v-5.72
					c0-0.65-0.53-1.17-1.17-1.17c-0.65,0-1.17,0.53-1.17,1.17v7.75c0,0.42,0.22,0.81,0.59,1.02c0.18,0.1,0.38,0.16,0.59,0.16
					c0.2,0,0.4-0.05,0.59-0.16l15.98-9.22c0.36-0.21,0.59-0.6,0.59-1.02v-7.75C151.03,262.32,150.51,261.79,149.86,261.79z"/>
			</g>
			<path id="XMLID_8055_" class="st11" d="M84.72,340.09c-0.04-0.01-0.07-0.02-0.11-0.04l-3.83-2.22c-0.41-0.27-0.67-0.81-0.67-1.57
				V234.73c0-0.8,0.28-1.66,0.73-2.43l3.7,2.16v0.01c-0.45,0.77-0.72,1.65-0.72,2.43v101.85C83.82,339.38,84.21,339.88,84.72,340.09
				z"/>
		</g>
	</g>
</g>
<g id="Arrow">
	<g id="Arrow_1_">
		<polygon id="XMLID_1101_" class="st10" points="304.12,315.25 304.12,322.87 333.47,354.69 333.47,347.07 		"/>
		<polygon id="XMLID_8134_" class="st19" points="304.12,315.25 304.12,322.87 333.47,354.69 333.47,347.07 		"/>
		<polygon id="XMLID_8137_" class="st10" points="336.31,321.04 336.31,313.42 333.47,347.07 333.47,354.69 		"/>
		<polygon id="XMLID_8136_" class="st11" points="336.31,321.04 336.31,313.42 333.47,347.07 333.47,354.69 		"/>
		<g id="XMLID_8125_">
			<path id="XMLID_8127_" class="st10" d="M237.45,366.63c-34.22-2.87-65.62-16.59-81.08-36.59l0.59-6.99l12.03-2.77
				c15.74,20.35,54.23,33.23,91.54,30.61c22.08-1.54,41.13-8.33,52.27-18.61l11.4,4.73l-0.59,6.99
				c-13.96,12.88-35.97,20.98-61.98,22.8C253.54,367.38,245.41,367.3,237.45,366.63z"/>
		</g>
		<g id="XMLID_8128_" class="st19">
			<path id="XMLID_8129_" d="M237.45,366.63c-34.22-2.87-65.62-16.59-81.08-36.59l0.59-6.99l12.03-2.77
				c15.74,20.35,54.23,33.23,91.54,30.61c22.08-1.54,41.13-8.33,52.27-18.61l11.4,4.73l-0.59,6.99
				c-13.96,12.88-35.97,20.98-61.98,22.8C253.54,367.38,245.41,367.3,237.45,366.63z"/>
		</g>
		<path id="XMLID_8334_" class="st10" d="M336.31,313.42l-32.19,1.84l9.27,10.05c-11.14,10.28-30.2,17.06-52.27,18.61
			c-37.31,2.61-75.8-10.27-91.54-30.61l-12.62,9.76c15.46,20,46.86,33.72,81.08,36.59c7.97,0.67,16.09,0.75,24.19,0.18
			c26-1.82,48.01-9.92,61.98-22.8l9.27,10.05L336.31,313.42z"/>
	</g>
	<circle id="dot1" class="st21" cx="151" cy="385.5" r="15.5"/>
	<circle id="dot2" class="st21" cx="206.42" cy="405.27" r="15.5"/>
	<circle id="dot3" class="st21" cx="269.42" cy="405.27" r="15.5"/>
	<circle id="dot4" class="st21" cx="334.42" cy="389.27" r="15.5"/>
</g>
</svg>
