<?xml version="1.0" encoding="utf-8"?>
<!-- Generator: Adobe Illustrator 26.5.0, SVG Export Plug-In . SVG Version: 6.00 Build 0)  -->
<svg version="1.1" id="Layer_1" xmlns="http://www.w3.org/2000/svg" xmlns:xlink="http://www.w3.org/1999/xlink" x="0px" y="0px"
	 viewBox="0 0 500 500" style="enable-background:new 0 0 500 500;" xml:space="preserve">
<style type="text/css">
	.st0{fill:#FAFAFA;}
	.st1{fill:#F0F0F0;}
	.st2{fill:#E6E6E6;}
	.st3{fill:#E0E0E0;}
	.st4{fill:#EBEBEB;}
	.st5{fill:#F5F5F5;}
	.st6{opacity:0.5;fill:#E0E0E0;enable-background:new    ;}
	.st7{fill:#263238;}
	.st8{fill:#37474F;}
	.st9{fill:#455A64;}
	.st10{fill:#27DEBF;}
	.st11{opacity:0.2;enable-background:new    ;}
	.st12{opacity:0.1;fill:#FFFFFF;enable-background:new    ;}
	.st13{opacity:0.15;enable-background:new    ;}
	.st14{opacity:0.3;}
	.st15{opacity:0.4;fill:#FFFFFF;enable-background:new    ;}
	.st16{opacity:0.7;fill:#E0E0E0;enable-background:new    ;}
	.st17{opacity:0.9;fill:#27DEBF;enable-background:new    ;}
	.st18{fill:#606060;}
</style>
<g id="Floor">
	<ellipse id="Floor_7_" class="st0" cx="249.1" cy="347.6" rx="189.5" ry="99.1"/>
</g>
<g id="Boxes_2_">
	<g id="Boxes">
		<g id="XMLID_8132_">
			<polygon id="XMLID_8192_" class="st1" points="197.5,322.3 197.5,308 216.2,297.2 216.2,311.6 			"/>
			<polygon id="XMLID_8191_" class="st2" points="197.5,308 174.3,294.5 174.3,308.9 197.5,322.3 			"/>
			<polygon id="XMLID_8190_" class="st0" points="197.5,308 216.7,296.9 192.9,283.1 173.7,294.2 			"/>
			<polygon id="XMLID_8189_" class="st1" points="197.5,308 197.5,311.6 216.7,300.5 216.7,296.9 			"/>
			<polygon id="XMLID_8188_" class="st2" points="197.5,311.6 216.2,300.8 216.2,301.6 197.5,312.4 			"/>
			<polygon id="XMLID_8187_" class="st2" points="173.7,294.2 197.5,308 197.5,311.6 173.7,297.8 			"/>
			<polygon id="XMLID_8186_" class="st3" points="197.5,311.6 174.3,298.1 174.3,298.9 197.5,312.4 			"/>
			<path id="XMLID_8185_" class="st4" d="M203.7,310.2l6.4-3.7c0.3-0.2,0.5,0,0.5,0.3v3.8c0,0.3-0.2,0.7-0.5,0.9l-6.4,3.7
				c-0.3,0.2-0.5,0-0.5-0.3V311C203.2,310.7,203.4,310.3,203.7,310.2z"/>
			<path id="XMLID_8150_" class="st0" d="M204.1,310.6l5.6-3.2c0.2-0.1,0.3,0,0.3,0.2v2.8c0,0.2-0.1,0.5-0.3,0.6l-5.6,3.2
				c-0.2,0.1-0.3,0-0.3-0.2v-2.8C203.8,311,203.9,310.7,204.1,310.6z"/>
		</g>
		<g id="XMLID_14642_">
			<polygon id="XMLID_14429_" class="st1" points="197.5,306.2 197.5,291.9 216.2,281.1 216.2,295.4 			"/>
			<polygon id="XMLID_14432_" class="st2" points="197.5,291.9 174.3,278.4 174.3,292.7 197.5,306.2 			"/>
			<polygon id="XMLID_14436_" class="st5" points="197.5,291.9 216.7,280.8 192.9,267 173.7,278.1 			"/>
			<polygon id="XMLID_14439_" class="st1" points="197.5,291.9 197.5,295.4 216.7,284.4 216.7,280.8 			"/>
			<polygon id="XMLID_14443_" class="st2" points="197.5,295.4 216.2,284.7 216.2,285.5 197.5,296.2 			"/>
			<polygon id="XMLID_14446_" class="st2" points="173.7,278.1 197.5,291.9 197.5,295.4 173.7,281.7 			"/>
			<polygon id="XMLID_14448_" class="st3" points="197.5,295.4 174.3,282 174.3,282.8 197.5,296.2 			"/>
			<path id="XMLID_14641_" class="st4" d="M203.7,294l6.4-3.7c0.3-0.2,0.5,0,0.5,0.3v3.8c0,0.3-0.2,0.7-0.5,0.9l-6.4,3.7
				c-0.3,0.2-0.5,0-0.5-0.3v-3.8C203.2,294.6,203.4,294.2,203.7,294z"/>
			<path id="XMLID_14638_" class="st0" d="M204.1,294.5l5.6-3.2c0.2-0.1,0.3,0,0.3,0.2v2.8c0,0.2-0.1,0.5-0.3,0.6l-5.6,3.2
				c-0.2,0.1-0.3,0-0.3-0.2V295C203.8,294.8,203.9,294.6,204.1,294.5z"/>
		</g>
		<polygon id="XMLID_15310_" class="st3" points="215.2,296 197.5,306.2 175.3,293.3 174.7,293.6 197.5,306.8 215.7,296.3 		"/>
		<polygon id="XMLID_15311_" class="st6" points="215.2,296 197.5,306.2 175.3,293.3 174.7,293.6 197.5,306.8 215.7,296.3 		"/>
	</g>
	<g id="Boxes_1_">
		<g id="XMLID_8243_">
			<polygon id="XMLID_8278_" class="st1" points="278.5,322.3 278.5,308 259.8,297.2 259.8,311.6 			"/>
			<polygon id="XMLID_8277_" class="st2" points="278.5,308 301.7,294.5 301.7,308.9 278.5,322.3 			"/>
			<polygon id="XMLID_8276_" class="st0" points="278.5,308 259.3,296.9 283.1,283.1 302.3,294.2 			"/>
			<polygon id="XMLID_8275_" class="st1" points="278.5,308 278.5,311.6 259.3,300.5 259.3,296.9 			"/>
			<polygon id="XMLID_8274_" class="st2" points="278.5,311.6 259.8,300.8 259.8,301.6 278.5,312.4 			"/>
			<polygon id="XMLID_8273_" class="st2" points="302.3,294.2 278.5,308 278.5,311.6 302.3,297.8 			"/>
			<polygon id="XMLID_8272_" class="st3" points="278.5,311.6 301.7,298.1 301.7,298.9 278.5,312.4 			"/>
			<path id="XMLID_8271_" class="st4" d="M272.3,310.2l-6.4-3.7c-0.3-0.2-0.5,0-0.5,0.3v3.8c0,0.3,0.2,0.7,0.5,0.9l6.4,3.7
				c0.3,0.2,0.5,0,0.5-0.3V311C272.8,310.7,272.6,310.3,272.3,310.2z"/>
			<path id="XMLID_8244_" class="st0" d="M271.9,310.6l-5.5-3.2c-0.2-0.1-0.3,0-0.3,0.2v2.8c0,0.2,0.1,0.5,0.3,0.6l5.5,3.2
				c0.2,0.1,0.3,0,0.3-0.2v-2.8C272.2,311,272.1,310.7,271.9,310.6z"/>
		</g>
		<g id="XMLID_8231_">
			<polygon id="XMLID_8242_" class="st1" points="278.5,306.2 278.5,291.9 259.8,281.1 259.8,295.4 			"/>
			<polygon id="XMLID_8241_" class="st2" points="278.5,291.9 301.7,278.4 301.7,292.7 278.5,306.2 			"/>
			<polygon id="XMLID_8238_" class="st5" points="278.5,291.9 259.3,280.8 283.1,267 302.3,278.1 			"/>
			<polygon id="XMLID_8237_" class="st1" points="278.5,291.9 278.5,295.4 259.3,284.4 259.3,280.8 			"/>
			<polygon id="XMLID_8236_" class="st2" points="278.5,295.4 259.8,284.7 259.8,285.5 278.5,296.2 			"/>
			<polygon id="XMLID_8235_" class="st2" points="302.3,278.1 278.5,291.9 278.5,295.4 302.3,281.7 			"/>
			<polygon id="XMLID_8234_" class="st3" points="278.5,295.4 301.7,282 301.7,282.8 278.5,296.2 			"/>
			<path id="XMLID_8233_" class="st4" d="M272.3,294l-6.4-3.7c-0.3-0.2-0.5,0-0.5,0.3v3.8c0,0.3,0.2,0.7,0.5,0.9l6.4,3.7
				c0.3,0.2,0.5,0,0.5-0.3v-3.8C272.8,294.6,272.6,294.2,272.3,294z"/>
			<path id="XMLID_8232_" class="st0" d="M271.9,294.5l-5.5-3.2c-0.2-0.1-0.3,0-0.3,0.2v2.8c0,0.2,0.1,0.5,0.3,0.6l5.5,3.2
				c0.2,0.1,0.3,0,0.3-0.2V295C272.2,294.8,272.1,294.6,271.9,294.5z"/>
		</g>
		<polygon id="XMLID_8230_" class="st3" points="260.8,296 278.5,306.2 300.7,293.3 301.3,293.6 278.5,306.8 260.3,296.3 		"/>
		<polygon id="XMLID_8229_" class="st6" points="260.8,296 278.5,306.2 300.7,293.3 301.3,293.6 278.5,306.8 260.3,296.3 		"/>
	</g>
</g>
<g id="Cabinets">
	<g id="Cabinet">
		<g id="XMLID_8162_">
			<g id="XMLID_8177_">
				<g>
					<polygon id="XMLID_14_" class="st7" points="207.5,360.8 229.7,348 229.7,300.1 207.5,313 					"/>
				</g>
			</g>
			<g id="XMLID_8175_">
				<g>
					<polygon id="XMLID_12_" class="st8" points="207.5,313 175.7,294.6 175.7,342.3 207.5,360.8 					"/>
				</g>
			</g>
			<g id="XMLID_14367_">
				<polygon id="XMLID_8174_" class="st9" points="175.7,294.6 207.5,313 229.7,300.1 197.9,281.8 				"/>
			</g>
			<g id="XMLID_8163_">
				<g id="XMLID_8168_">
					<polygon id="XMLID_8169_" class="st7" points="204.9,337.2 179.4,322.5 179.4,340.2 178.9,340.5 204.3,355.2 204.9,355 					
						"/>
				</g>
				<g id="XMLID_8166_">
					<polygon id="XMLID_8167_" class="st9" points="204.3,337.5 178.9,322.8 178.9,340.5 204.3,355.2 					"/>
				</g>
				<g id="XMLID_8164_">
					<path id="XMLID_8165_" class="st7" d="M194.3,334.8l-4.3-2.5c-0.6-0.3-1-0.2-1,0.3s0.5,1.2,1,1.5l4.3,2.5c0.6,0.3,1,0.2,1-0.3
						S194.9,335.1,194.3,334.8z"/>
				</g>
			</g>
			<g id="XMLID_8133_">
				<g id="XMLID_8146_">
					<polygon id="XMLID_8147_" class="st7" points="204.9,315.8 179.4,301.1 179.4,318.8 178.9,319.2 204.3,333.8 204.9,333.5 					
						"/>
				</g>
				<g id="XMLID_8141_">
					<polygon id="XMLID_8145_" class="st9" points="204.3,316.2 178.9,301.5 178.9,319.2 204.3,333.8 					"/>
				</g>
				<g id="XMLID_8138_">
					<path id="XMLID_8140_" class="st7" d="M194.3,313.5L190,311c-0.6-0.3-1-0.2-1,0.3s0.5,1.2,1,1.5l4.3,2.5c0.6,0.3,1,0.2,1-0.3
						S194.9,313.8,194.3,313.5z"/>
				</g>
			</g>
		</g>
	</g>
</g>
<g id="Folders">
	<g id="Folder_Green">
		<g id="XMLID_8067_">
			<path id="XMLID_8081_" class="st10" d="M325.4,253.8l-104.1,60.1l-6.3,3.6c-0.1,0-0.2,0.1-0.3,0.2c-0.2,0.1-0.3,0.2-0.5,0.2
				c-0.2,0.1-0.4,0.1-0.7,0.2c-0.1,0-0.3,0-0.4,0.1H213c-0.2,0-0.4,0-0.6,0c-0.6,0-1.2-0.1-1.7-0.4c-1-0.6-2.1-2.3-2.4-3.8
				l-17.5-91.1c0-0.2,0-0.4,0-0.6c0-0.2,0-0.3,0-0.5l0,0c0-0.2,0.1-0.5,0.2-0.7c0.1-0.2,0.2-0.5,0.3-0.7c0.1-0.1,0.2-0.3,0.3-0.4
				c0.1-0.2,0.2-0.3,0.4-0.4c0.1-0.1,0.2-0.2,0.4-0.4c0.1-0.1,0.3-0.2,0.4-0.3l110.4-63.8c0.1-0.1,0.2-0.1,0.3-0.2
				c0.1-0.1,0.2-0.1,0.3-0.1c0,0,0.1,0,0.1-0.1c0.1,0,0.3-0.1,0.4-0.1c0.7,0.1,1.3,0.5,2,0.9c1.3,0.8,2.4,1.4,2.4,1.4l0,0
				c0.2,0.1,0.4,0.2,0.5,0.4c0.2,0.2,0.4,0.5,0.4,0.8c0.1,0.1,0.1,0.3,0.1,0.4l17.5,91.1C327.6,251.2,326.7,253,325.4,253.8z"/>
			<path id="XMLID_8082_" class="st10" d="M325.4,253.8l-104.1,60.1l-6.3,3.6c-0.1,0-0.2,0.1-0.3,0.2c-0.2,0.1-0.3,0.2-0.5,0.2
				c-0.2,0.1-0.4,0.1-0.7,0.2c-0.1,0-0.3,0-0.4,0.1H213c-0.2,0-0.4,0-0.6,0c-0.6,0-1.2-0.1-1.7-0.4c-1-0.6-2.1-2.3-2.4-3.8
				l-17.5-91.1c0-0.2,0-0.4,0-0.6c0-0.2,0-0.3,0-0.5l0,0c0-0.2,0.1-0.5,0.2-0.7c0.1-0.2,0.2-0.5,0.3-0.7c0.1-0.1,0.2-0.3,0.3-0.4
				c0.1-0.2,0.2-0.3,0.4-0.4c0.1-0.1,0.2-0.2,0.4-0.4c0.1-0.1,0.3-0.2,0.4-0.3l110.4-63.8c0.1-0.1,0.2-0.1,0.3-0.2
				c0.1-0.1,0.2-0.1,0.3-0.1c0,0,0.1,0,0.1-0.1c0.1,0,0.3-0.1,0.4-0.1c0.7,0.1,1.3,0.5,2,0.9c1.3,0.8,2.4,1.4,2.4,1.4l0,0
				c0.2,0.1,0.4,0.2,0.5,0.4c0.2,0.2,0.4,0.5,0.4,0.8c0.1,0.1,0.1,0.3,0.1,0.4l17.5,91.1C327.6,251.2,326.7,253,325.4,253.8z"/>
			<path id="XMLID_8077_" class="st11" d="M214.7,317.7c-1.3,0.6-3,0.7-3.9,0.1c-1-0.6-2.1-2.3-2.4-3.8l-17.5-91.1
				c-0.2-0.8,0-1.8,0.5-2.6l3.7,2.1c-0.4,0.8-0.6,1.7-0.5,2.6l17.5,91.1C212.4,317.6,213.5,318.2,214.7,317.7z"/>
			<path id="XMLID_8096_" class="st12" d="M306.2,155.6c1.3,0.8,2.5,1.4,2.5,1.4l0,0c-0.5-0.3-1.2-0.2-1.9,0.2L196.4,221
				c-0.6,0.3-1.1,0.9-1.4,1.5l-3.7-2.1c0.1-0.1,0.2-0.3,0.3-0.4c0.1-0.2,0.2-0.3,0.4-0.4c0.2-0.2,0.5-0.5,0.8-0.6l110.4-63.8
				c0.2-0.1,0.4-0.2,0.6-0.3c0.1,0,0.1,0,0.2-0.1c0.1,0,0.3-0.1,0.4-0.1C305,154.8,305.5,155.2,306.2,155.6z"/>
			<path id="XMLID_8065_" class="st10" d="M212.1,316.2l-17.5-91.1c-0.3-1.5,0.6-3.3,1.9-4.1l110.4-63.8c1.3-0.8,2.6-0.2,2.9,1.3
				l17.5,91.1c0.3,1.5-0.6,3.3-1.9,4.1L215,317.5C213.7,318.3,212.4,317.7,212.1,316.2z"/>
			<path id="XMLID_8066_" class="st13" d="M212.1,316.2l-17.5-91.1c-0.3-1.5,0.6-3.3,1.9-4.1l110.4-63.8c1.3-0.8,2.6-0.2,2.9,1.3
				l17.5,91.1c0.3,1.5-0.6,3.3-1.9,4.1L215,317.5C213.7,318.3,212.4,317.7,212.1,316.2z"/>
		</g>
		<g id="XMLID_1158_">
			<path id="XMLID_8078_" class="st10" d="M295.8,250.1l-74.9,43.2l-4.6,2.6c-0.1,0-0.1,0.1-0.2,0.1c-0.1,0.1-0.2,0.1-0.4,0.1
				c-0.1,0.1-0.3,0.1-0.5,0.1c-0.1,0-0.2,0-0.3,0c0,0,0,0-0.1,0s-0.3,0-0.4,0c-0.5,0-0.9-0.1-1.2-0.3c-0.7-0.4-1.5-1.6-1.7-2.7
				L199,227.9c0-0.1,0-0.3,0-0.4c0-0.1,0-0.2,0-0.4l0,0c0-0.2,0.1-0.4,0.1-0.5c0.1-0.2,0.1-0.4,0.2-0.5c0.1-0.1,0.1-0.2,0.2-0.3
				c0.1-0.1,0.2-0.2,0.3-0.3s0.2-0.2,0.3-0.2c0.1-0.1,0.2-0.1,0.3-0.2l79.4-45.9c0.1,0,0.1-0.1,0.2-0.1s0.1-0.1,0.2-0.1h0.1
				c0.1,0,0.2,0,0.3,0c0.5,0,0.9,0.4,1.4,0.7c0.9,0.6,1.8,1,1.8,1l0,0c0.1,0.1,0.2,0.1,0.4,0.2c0.1,0.1,0.2,0.3,0.3,0.6
				c0,0.1,0.1,0.2,0.1,0.3l12.6,65.6C297.4,248.2,296.8,249.5,295.8,250.1z"/>
			<path id="XMLID_8076_" class="st10" d="M295.8,250.1l-74.9,43.2l-4.6,2.6c-0.1,0-0.1,0.1-0.2,0.1c-0.1,0.1-0.2,0.1-0.4,0.1
				c-0.1,0.1-0.3,0.1-0.5,0.1c-0.1,0-0.2,0-0.3,0c0,0,0,0-0.1,0s-0.3,0-0.4,0c-0.5,0-0.9-0.1-1.2-0.3c-0.7-0.4-1.5-1.6-1.7-2.7
				L199,227.9c0-0.1,0-0.3,0-0.4c0-0.1,0-0.2,0-0.4l0,0c0-0.2,0.1-0.4,0.1-0.5c0.1-0.2,0.1-0.4,0.2-0.5c0.1-0.1,0.1-0.2,0.2-0.3
				c0.1-0.1,0.2-0.2,0.3-0.3s0.2-0.2,0.3-0.2c0.1-0.1,0.2-0.1,0.3-0.2l79.4-45.9c0.1,0,0.1-0.1,0.2-0.1s0.1-0.1,0.2-0.1h0.1
				c0.1,0,0.2,0,0.3,0c0.5,0,0.9,0.4,1.4,0.7c0.9,0.6,1.8,1,1.8,1l0,0c0.1,0.1,0.2,0.1,0.4,0.2c0.1,0.1,0.2,0.3,0.3,0.6
				c0,0.1,0.1,0.2,0.1,0.3l12.6,65.6C297.4,248.2,296.8,249.5,295.8,250.1z"/>
			<path id="XMLID_8075_" class="st3" d="M216.2,296.1c-0.9,0.5-2.1,0.5-2.8,0.1s-1.5-1.6-1.7-2.7L199,227.9c-0.1-0.6,0-1.3,0.3-1.9
				l2.7,1.5c-0.3,0.6-0.4,1.2-0.3,1.9l12.6,65.6C214.5,296,215.3,296.4,216.2,296.1z"/>
			<path id="XMLID_8074_" class="st0" d="M282,179.5c0.9,0.6,1.8,1,1.8,1l0,0c-0.4-0.2-0.9-0.2-1.3,0.1L203,226.5
				c-0.4,0.2-0.8,0.6-1,1.1l-2.7-1.5c0.1-0.1,0.1-0.2,0.2-0.3c0.1-0.1,0.2-0.2,0.3-0.3c0.2-0.2,0.4-0.3,0.6-0.4l79.4-45.9
				c0.1-0.1,0.3-0.1,0.4-0.2h0.1c0.1,0,0.2,0,0.3,0C281.1,178.9,281.5,179.2,282,179.5z"/>
			<path id="XMLID_8073_" class="st5" d="M214.3,295l-12.6-65.6c-0.2-1.1,0.4-2.4,1.3-2.9l79.4-45.9c0.9-0.6,1.9-0.1,2.1,0.9
				l12.6,65.6c0.2,1.1-0.4,2.4-1.3,2.9l-79.4,46C215.4,296.5,214.5,296.1,214.3,295z"/>
		</g>
		<g id="Document">
			<path id="XMLID_8246_" class="st4" d="M273,230.8c-0.6-0.3-1-1.1-1-1.8V109.7c0-0.7,0.5-1.5,1.1-1.9L348,64.6
				c0.6-0.3,1.5-0.4,2.1,0s1,1.1,1,1.8v119.2c0,0.7-0.5,1.5-1.1,1.9l-74.9,43.2C274.5,231.1,273.6,231.1,273,230.8z"/>
			<path id="XMLID_8080_" class="st0" d="M351.1,66.2c-0.1-0.6-0.5-0.7-1.1-0.4L275.1,109c-0.3,0.2-0.6,0.5-0.8,0.8l-2-1.2
				c0.2-0.3,0.5-0.6,0.8-0.8L348,64.6c0.6-0.3,1.5-0.4,2.1-0.1C350.6,64.9,351,65.6,351.1,66.2z"/>
			<path id="XMLID_1215_" class="st3" d="M275,230.8c-0.6,0.3-1.4,0.3-1.9,0c-0.6-0.3-1-1.1-1-1.8V109.7c0-0.4,0.1-0.7,0.3-1.1
				l2,1.2c-0.2,0.3-0.3,0.7-0.3,1.1v119.2C274,230.8,274.5,231.1,275,230.8z"/>
			<g id="XMLID_8239_">
				<path id="XMLID_8240_" class="st5" d="M275.1,230.8l74.9-43.2c0.6-0.3,1.1-1.2,1.1-1.9V66.4c0-0.7-0.5-1-1.1-0.6L275.1,109
					c-0.6,0.3-1.1,1.2-1.1,1.9v119.2C274.1,230.8,274.5,231.1,275.1,230.8z"/>
			</g>
			<g id="XMLID_7967_">
				<g id="XMLID_1154_" class="st14">
					<g id="XMLID_1157_">
						<path id="XMLID_7996_" class="st9" d="M279.5,163.4c0,0.9,0.8,1.2,1.8,0.6l62.4-36c1-0.6,1.8-1.8,1.8-2.7s-0.8-1.2-1.8-0.6
							l-62.4,36C280.4,161.2,279.5,162.4,279.5,163.4z"/>
					</g>
					<g id="XMLID_1156_">
						<path id="XMLID_7994_" class="st9" d="M279.5,173.3c0,0.9,0.8,1.2,1.8,0.6l62.4-36c1-0.6,1.8-1.8,1.8-2.7s-0.8-1.2-1.8-0.6
							l-62.4,36C280.4,171.2,279.5,172.4,279.5,173.3z"/>
					</g>
					<g id="XMLID_1155_">
						<path id="XMLID_7992_" class="st9" d="M279.5,183.3c0,0.9,0.8,1.2,1.8,0.6l62.4-36c1-0.6,1.8-1.8,1.8-2.7s-0.8-1.2-1.8-0.6
							l-62.4,36C280.4,181.1,279.5,182.4,279.5,183.3z"/>
					</g>
					<g id="XMLID_7998_">
						<path id="XMLID_8072_" class="st9" d="M279.5,193.2c0,0.9,0.8,1.2,1.8,0.6l62.4-36c1-0.6,1.8-1.8,1.8-2.7s-0.8-1.2-1.8-0.6
							l-62.4,36C280.4,191.1,279.5,192.3,279.5,193.2z"/>
					</g>
					<g id="XMLID_7962_">
						<path id="XMLID_7963_" class="st9" d="M279.5,133.5c0,0.9,0.8,1.2,1.8,0.6l62.4-36c1-0.6,1.8-1.8,1.8-2.7s-0.8-1.2-1.8-0.6
							l-62.4,36C280.4,131.4,279.5,132.6,279.5,133.5z"/>
					</g>
					<g id="XMLID_7957_">
						<path id="XMLID_7961_" class="st9" d="M279.5,143.4c0,0.9,0.8,1.2,1.8,0.6l62.4-36c1-0.6,1.8-1.8,1.8-2.7s-0.8-1.2-1.8-0.6
							l-62.4,36C280.4,141.3,279.5,142.5,279.5,143.4z"/>
					</g>
					<g id="XMLID_7964_">
						<path id="XMLID_7990_" class="st9" d="M279.5,123.5c0,0.9,0.8,1.2,1.8,0.6l62.4-36c1-0.6,1.8-1.8,1.8-2.7s-0.8-1.2-1.8-0.6
							l-62.4,36C280.4,121.4,279.5,122.6,279.5,123.5z"/>
					</g>
					<g id="XMLID_7952_">
						<path id="XMLID_7953_" class="st9" d="M279.5,153.4c0,0.9,0.8,1.2,1.8,0.6l62.4-36c1-0.6,1.8-1.8,1.8-2.7s-0.8-1.2-1.8-0.6
							l-62.4,36C280.4,151.3,279.5,152.5,279.5,153.4z"/>
					</g>
					<g id="XMLID_7995_">
						<path id="XMLID_7997_" class="st9" d="M279.5,203.2c0,0.9,0.8,1.2,1.8,0.6l62.4-36c1-0.6,1.8-1.8,1.8-2.7s-0.8-1.2-1.8-0.6
							l-62.4,36C280.4,201,279.5,202.3,279.5,203.2z"/>
					</g>
					<g id="XMLID_7991_">
						<path id="XMLID_7993_" class="st9" d="M279.5,213.1c0,0.9,0.8,1.2,1.8,0.6l62.4-36c1-0.6,1.8-1.8,1.8-2.7s-0.8-1.2-1.8-0.6
							l-62.4,36C280.4,211,279.5,212.2,279.5,213.1z"/>
					</g>
				</g>
			</g>
		</g>
		<g id="XMLID_8014_">
			<path id="XMLID_8018_" class="st10" d="M329.9,167.1c0-0.8-0.3-1.3-0.7-1.6c0,0-0.1-0.1-0.2-0.1l-3.6-2.1l0,0l0,0l0,0
				c-0.4-0.2-1.1-0.2-1.7,0.2l-71.6,41.3l-2.1-8.4c-0.2-0.6-0.6-1.1-1-1.4l0,0l-3.7-2.2l0,0c-0.6-0.4-1.5-0.4-2.3,0.1l-30.5,17.6
				c-1.4,0.8-2.5,2.7-2.5,4.3v101.5c0,0.8,0.2,1.3,0.7,1.6l0,0l3.8,2.2l0,0c0.4,0.2,1,0.2,1.7-0.2l111.1-64.2
				c1.4-0.8,2.5-2.7,2.5-4.3L329.9,167.1z"/>
			<path id="XMLID_8017_" class="st15" d="M249,194.9c-0.6-0.4-1.4-0.3-2.2,0.1l-30.4,17.6c-0.7,0.4-1.3,1.1-1.8,1.9l-3.7-2.2
				c0.5-0.8,1.1-1.5,1.8-1.9l30.5-17.6c0.8-0.5,1.6-0.4,2.3-0.1l0,0L249,194.9z"/>
			<path id="XMLID_8016_" class="st15" d="M329,165.4c-0.4-0.2-1-0.1-1.6,0.2L255.8,207c-1.4,0.8-2.9,0.2-3.3-1.3l-0.3-0.9
				l71.6-41.3c0.4-0.2,0.8-0.3,1.1-0.3c0.2,0,0.5,0.1,0.6,0.2l0,0L329,165.4z"/>
			<path id="XMLID_8079_" class="st10" d="M329.9,167.1v84.3c0,1.6-1.1,3.5-2.5,4.3L216,320c-1,0.6-2.2-0.1-2.2-1.3V216.9
				c0-0.8,0.3-1.7,0.7-2.4c0.5-0.8,1.1-1.4,1.8-1.9l30.4-17.6c0.8-0.4,1.6-0.5,2.2-0.1h0.1l0,0c0.5,0.3,0.8,0.7,1,1.4l2.1,8.4
				l0.3,0.9c0.5,1.5,1.9,2.1,3.3,1.3l71.6-41.3c0.6-0.4,1.2-0.4,1.6-0.2l0.1,0.1c0,0,0,0,0.1,0l0,0
				C329.6,165.8,329.9,166.3,329.9,167.1z"/>
			<path id="XMLID_8055_" class="st11" d="M214.7,320.1h-0.1l-3.8-2.2c-0.4-0.3-0.7-0.8-0.7-1.6V214.7c0-0.8,0.3-1.7,0.7-2.4
				l3.7,2.2l0,0c-0.5,0.8-0.7,1.6-0.7,2.4v101.9C213.8,319.4,214.2,319.9,214.7,320.1z"/>
		</g>
	</g>
</g>
<g>
	<path class="st16" d="M192.3,383.5l19.6,36.4c1.3,2.5,4.5,3.4,6.9,1.9l117.3-70.7c5.1-3.1,1.4-10.8-4.2-8.9l-118.2,41
		c-1.3,0.5-2.8,0.3-4-0.4l-10.7-6C194.7,374.5,189.9,379.2,192.3,383.5z"/>
	<path class="st17" d="M192.3,374.5l19.6,36.4c1.3,2.5,4.5,3.4,6.9,1.9l117.3-70.7c5.1-3.1,1.4-10.8-4.2-8.9l-118.2,41
		c-1.3,0.5-2.8,0.3-4-0.4l-10.7-6C194.7,365.5,189.9,370.2,192.3,374.5z"/>
</g>
<g>
	<path class="st16" d="M265.5,252.4l4.6,5c0.3,0.3,0.9,0.4,1.2,0l15.7-16.1c0.7-0.7-0.2-1.8-1-1.2l-17.1,11.4
		c-0.2,0.1-0.4,0.2-0.7,0.1l-1.9-0.5C265.5,250.9,265,251.8,265.5,252.4z"/>
	<path class="st18" d="M265.1,251l4.6,5c0.3,0.3,0.9,0.4,1.2,0l15.7-16.1c0.7-0.7-0.2-1.8-1-1.2l-17.1,11.4
		c-0.2,0.1-0.4,0.2-0.7,0.1l-1.9-0.5C265.2,249.5,264.6,250.4,265.1,251z"/>
</g>
</svg>
